<?xml version="1.0" encoding="utf-8"?>
<!-- Generator: Adobe Illustrator 19.0.0, SVG Export Plug-In . SVG Version: 6.00 Build 0)  -->
<svg version="1.1" id="Layer_1" xmlns="http://www.w3.org/2000/svg" xmlns:xlink="http://www.w3.org/1999/xlink" x="0px" y="0px"
	 viewBox="0 0 500 500" style="enable-background:new 0 0 500 500;" xml:space="preserve">
<style type="text/css">
	.st0{fill:#FFFFFF;}
	.st1{fill:#CE1126;}
</style>
<g id="XMLID_1_">
	<path id="XMLID_63_" class="st0" d="M82.5,246.3l-0.3,0.3c-0.3,0.3-1.2,1.3-1.5,1.9c-0.3,0.6-0.6,1.8-0.1,2.3
		c0.5,0.5,1.8,0.9,1.3,1.5c-0.5,0.6-0.9,0.3-1.1,0.9c-0.2,0.7-0.1,2.5-0.5,3.2c-0.4,0.7-1.8,5.5-2,6.1c-0.3,0.6-9.7,26.1-9.7,26.4
		c-0.1,0.3-2.1,2.5,1.3,7.1c3.4,4.7,2.3,4.9,6.1,4.9c3.8,0,13.3-0.4,13.3-0.4s2.3-1.1,2.7-2.9c0.3-1.8-0.1-3.4-1.2-3.9
		c-1.1-0.5-4.9-8.7-4.9-8.7l-4.9-7.6c0,0,2.1-3.4,2.3-3.3c0.2,0.1,3.3,3.6,4.4,3.7c1.1,0.1,2.8-2.1,3.7-3c0.8-0.9,1-2,1.6-1.5
		c0.6,0.4,1.1,0.8,1.3,1.4s-4,4.7-4.2,5.1c-0.1,0.4,1.1,2,1.7,2.3c0.6,0.3,0.7,1.4,2.7-0.6c2-2,2.7-4,3.5-3.5
		c0.8,0.4-0.2,2.1-1.3,3.2c-1.1,1-3.8,3.8-4,4.2c-0.2,0.4,0.5,1.7,1,1.8c0.5,0.1,1.2-1.1,1.8-0.6c0.6,0.5,1.3,1.2,1.5,1.6
		c0.3,0.4-0.7,1.3-0.9,1.6c-0.2,0.3,4.7,6,5.1,6.1c0.4,0.1,2.7-1.8,3.1-1.7c0.4,0.1,1,1.7,1.6,1.3c0.6-0.4,6.2-4.4,5.9-4.9
		c-0.3-0.5-2.5-2.5-2.8-3c-0.4-0.6-1.1-1.4-1.3-5.2c-0.2-3.9,3,0.1,3.7,3.2c0.7,3.1,3.8,3.5,4.5,4.1c0.7,0.6,1.8-0.3,1.8-0.9
		s-1.1-8.2-0.9-8.5c0.2-0.3,1.5-0.8,1.6-0.3c0.1,0.5,0.1,7.2,0.6,7.4c0.5,0.2,7.4,0.1,7.8-0.5c0.4-0.6-0.6-5.6,1.2-6
		c1.8-0.4,3.3,1.5,3.9,2s1.8,1.6,1.6,2.5c-0.2,0.9,3.1,1.1,3.7,0.6c0.6-0.4,1.6-4.5,1.5-4.9c-0.2-0.4,2.8-1.6,4.7-0.4
		c1.9,1.1,4.9,3,5.2,3.7c0.3,0.8,3.4,2.4,4,2.3c0.6-0.1,0.3-3.2-0.3-4c-0.5-0.8-1.5-0.9-1.6-1.1c-0.1-0.2,3.3-8.5,4.1-9.4
		c0.8-0.9,2-3.5,2.3-4s1.5-1.4,1-0.1c-0.4,1.3-0.6,3.7-1.2,4.2c-0.6,0.5-3.3,4.7-3.4,5.5c-0.1,0.8,0.1,2.5,0.4,3.3
		c0.3,0.8,0.6,3.8,1.5,4.7s6.7,2.5,7.9,2.5c1.2-0.1,8.9,3.1,11.6,0.9c0,0,0.7-0.3,0.6-0.6s-2.1-5.1-2.2-5.4c-0.1-0.4,1-0.6,1-0.6
		s2.3,5.1,3.2,5.9s2.5,2.3,2.6,2.6c0.1,0.3-1.1,3.1-1.1,3.1l9,5.8c0,0-0.9,4-1.5,4.2c-0.6,0.2-8.5-3.9-8.5-3.9l-0.9,1.1
		c0,0-2.5-0.6-2.7-0.3c-0.1,0.4-0.9,1.2,0.4,2c1.3,0.8,7.6,3.4,8.3,4.5c0.7,1.1,1.4,2.6,1.6,2.9c0.2,0.3,2.2,1.3,2.2,1.3
		s0.9,1.6,5.1-6.7l1.2-1.7l11.4,7.1l1.2-1.2l1.1,1.4l-0.4,2.3l0.5,0.3l5.3,2l1.4,1.3l1.8-2.7c0,0,1.8,0.6,2.7-0.3s1.8-0.8,2.3-0.1
		c0.4,0.6-0.3,2.8,4.6,2.5c4.8-0.3,8.2-1.5,9.5-3.4c1.4-1.9,2-2.1,5.2-0.1c3.3,2,4.6,3.5,5.1,3.7c0.5,0.1-0.1-2-0.1-2.3
		s0.4-1.1,1.2-0.4c0.8,0.6,2,2.1,3.2,3.3c1.3,1.1,1.6,1.7,1.2-0.7c-0.4-2.4-0.6-7.3-0.3-7.8s2.8-0.8,3.1,0.3c0.3,1,0.9,2.8,3,2.7
		c2.1-0.1,5.3-2.5,6.4-3.4c1.1-0.9,4.2-2.5,3.5-4.1c-0.8-1.6-2.3-2.9-3.8-3.7c-1.5-0.8-3.3-2-4-1.8c-0.8,0.2-0.9,0.3-1,1.5
		c-0.1,1.1-1.3,2.1-2.3,2.7c-0.9,0.6-2.3,1.2-3.2,1c-0.8-0.2-1.4,1.3-1.8,1.8c-0.4,0.4-0.9-0.7,0.3-3.4c1.1-2.7,1.6-1.1,1.6-1.1
		s0.6-2,0.1-2.5c-0.5-0.5-1.2-1.7-0.1-2c1.1-0.3,6.2,0.1,7.4-0.2c1.2-0.3,1.3-0.2,1.6-0.6c0.3-0.4-1.3-5.4-0.1-7.1
		c1.2-1.7,2.8-2.8,2.7-3.4c-0.1-0.6-2-1.3-0.9-1.9c1.1-0.6,1.5-0.4,2.1,0.3s1.5,0.5,1.6,1.5s1.1,2.4,1.7,2.7s2,0.4,2.6-0.2
		s1.8-0.4,1.3,0.1c-0.6,0.5-1.2,1.3-2.3,1.3s-2.7-0.5-3.6-0.5s-1.4,0.3-2.3,0.5s-1.8,0.2-1.7,1c0.1,0.8,1,3.2,1,3.5s1.6,5.4,2.5,6
		c0.8,0.6,3.6,3.3,4.1,3.3s0.7-1.1,1.5-1.8c0.8-0.6,2.5-1.2,3-1.6c0.4-0.4,3-2,3.5-2.4c0.5-0.4,1.9-2.1,2.5-1.8c0.6,0.4,2-0.1,3-0.9
		c1.1-0.8,5.1-2.7,5.8-3.2c0.8-0.5,12.3-4.4,12.7-4.6c0.4-0.2,23.1-6.9,23.8-6.9c0.8,0,12.8-3.4,13.4-3.5c0.6-0.1,6.2-1.3,7.6-1.1
		s4.2,2.1,6.2,2.5c2,0.4,7-0.1,7-0.1s8.4,2.4,8.9,2.3c0.4-0.1,5.2-3.5,7.8-3.4c2.7,0.1,5.9-0.7,7-0.6c1,0.1,1-2.9,1.3-3.2
		s3-0.6,3.5-0.2c0.6,0.4,0.1,2.3,1.5,2.7c1.3,0.4,2.7,0.7,2.6-0.4s-0.6-5.9-0.6-5.9l-11.7-0.7l-5.6,2.1l-3.6-0.3
		c0,0-0.7-1.3,0.1-1.4c0.8-0.1,5.4-0.2,6.1-1.3c0.8-1.1,4.3-5.2,4-9.2c0,0-0.2-0.4-2.6-1.9c-2.4-1.5-1.6-2.1-1.3-2.8
		c0.1-0.3,1.1-3.5,2.5-6.6L82.5,246.3L82.5,246.3z M375.9,256.1L375.9,256.1c1.2,0.4,1.9,0.9,2.5,1c0.6,0.1,0.9,0.1,0.9,0.4
		c0,0.3-0.7,2.3-0.8,2.5s-0.7,2.4-0.8,2.7c-0.1,0.3-0.5,1.3-0.9,1.5c-0.4,0.3-2.5,0.9-2.8,1s-2.1,0.9-2.4,0.8
		c-0.3-0.1-0.8,0.1-0.3-1s1.7-3.8,2-4.4c0.3-0.6,1.5-2.6,1.7-3.2C375.4,256.9,375.7,256.2,375.9,256.1z M161,271.6
		c0.5,0,1.9,0.4,2.7,0.5c0.9,0.1,5.1,0.6,5.6,0.9c0.5,0.4,0.9,0.7,0.8,1.5c-0.1,0.8-0.1,1.5-0.4,2.6c-0.3,1.1-0.1,1.4,0.2,2.1
		c0.3,0.8,0.4,1.5,0.2,2.5c-0.2,0.9,0.3,1.4,0.1,1.8c-0.1,0.4-2.1,0-2.8-0.1c-0.6-0.1-2.4-1.2-3-1.8s-0.9-1.4-1.3-1.8
		c-0.3-0.4-2.8-2.1-3.4-2.2c-0.6-0.1-0.4-0.7-0.5-1.3c-0.1-0.6,0.3-2.2,0.6-3.1s0.6-1.5,0.9-1.6L161,271.6L161,271.6z M129.2,281.4
		l-0.2,0l-0.2,0.1c-0.6,0.4-1.2,0.8-1,1.4c0.2,0.6,0.3,1.1,0.5,1.7c0.2,0.6,1.3,2.4,1.8,2.4s1.1,0.3,1.4-0.4c0.3-0.7,0.6-1.1,0.1-2
		c-0.5-0.9-1.7-2.6-1.7-2.6S129.6,281.5,129.2,281.4L129.2,281.4z M143.1,282.4c-0.2,0-0.4,0.1-0.5,0.1c-0.3,0.1-1,0.6-1,0.6
		s0.8,1,1.6,1.5c0.8,0.5,1.7,1.9,2,1.7c0.3-0.2,0.9-0.9,0.9-1.2s-0.3-0.8-0.3-0.8l-1.3-0.3c0,0-0.4,0-0.5-0.5c-0.1-0.5,0-0.8-0.3-1
		C143.4,282.4,143.3,282.4,143.1,282.4z M123.7,292.9c-0.3,0-0.7,0.8-1.2,1.2c-0.4,0.4-4.9,3.2-5.7,3.5c-0.8,0.3-1.3,0-2.4,0.1
		c-1,0.1-1.4,0.5-1.9,1.1c-0.6,0.6-2.4,3.1-4,4.1c-1.7,1-8.3,6.5-9.5,7.1c-1.3,0.6-1.8,2.9-1.9,3.3c-0.2,0.4,0.8,1.1,1.3,1.7
		c0.6,0.6,2.4,2.7,2.4,3c0,0.3,7.3,13.3,7.6,13.8c0.3,0.5,4.3,0.7,4.6,0.7c0.3-0.1,9.9-4.2,10.4-4.4c0.5-0.2,1.5-0.8,1.3-2.4
		c-0.2-1.7-1.3-3.9-1.4-4.2c-0.2-0.3-5.9-4.5-6.1-4.7c-0.2-0.3-0.5-1.2-0.5-1.4s2.5-3.5,2.9-3.8c0.3-0.3,1.1-0.7,1.8-0.1
		c0.7,0.6,1.8,1.5,2.4,1.8c0.6,0.3,2.4,0.4,2.8,0.6c0.4,0.2,0.8,1.3,1.1,2.3c0.3,1,1.1,5.7,1.1,6.7c0,1,2.3,2.1,2.5,2.1
		c0.3,0,4.1-1.9,4.5-2c0.3-0.2,7.2-3,7.3-3.3c0.2-0.3,0.3-1,0.2-1.4c-0.2-0.4-0.8-0.8-1.6-1.3c-0.8-0.6-2.1-1-2.4-1.3
		c-0.3-0.3-1.8-1.5-2.1-2c-0.3-0.5-0.1-0.9,0.3-1.4s2.1,0.2,4,1.3s4.4,2.2,4.4,2.2s2.9,2.3,3.4,1.9c0.5-0.3,1.2-1.4,3.1-2.4
		c1.9-0.9,1.6-1.1,1.6-1.3s-0.9-1.4-1.4-1.6s-0.7-1.8-0.9-2c-0.2-0.3-0.6-1.7,0-1.5c0.6,0.2,3.7,1.4,4.6,1.9
		c0.9,0.5,2.2,0.8,2.9,0.4s1.4-1.3,3.3-1.7c1.9-0.4,1.9-1.4,1.9-1.4s-3-3.4-3.9-3.7c-0.9-0.3-1.8-0.8-3.2-1.5
		c-1.4-0.8-3.5-1.7-3.6-2.4c-0.2-0.7-0.2-2.3-0.6-3.5c-0.3-1.3-3.2-1.7-4.1-1.7s-7.1-2-10.2-2c0,0-3.3,1-3.5,1.4
		c-0.3,0.4,0.7,0.8,0.3,1.7c-0.3,0.8-0.8,1.2-1,1.6s-3.6,2.5-4.5,3.5c-0.8,0.9-1.3,4.5-1.9,5c-0.7,0.4-1.1-1-1.7-1
		c-0.6,0-3.4,3.2-3.6,3.2c-0.3,0-2.1-1.8-2.3-2.1c-0.2-0.3-1.2-1-1.2-1s3.7-2.6,4.4-2.9s1.6-2.4,1.8-2.8c0.2-0.4,0.8-1.7,1.6-2
		c0.8-0.3,1.5-1.9,1.8-2.4c0.3-0.4,0.1-1.7-0.2-1.7s-1,0.4-1.9,0.8C125.9,294.5,124,292.9,123.7,292.9z M219.6,313.5l-0.1,0
		l-0.2,0.1c-0.5,0.4-0.4,0.6-0.4,0.6c0,0.3,1.1,1.4,1.1,1.4s0.3-0.1,0.2-0.6c-0.1-0.5-0.1-0.8-0.3-0.9
		C219.8,313.9,219.8,313.5,219.6,313.5L219.6,313.5z M235.5,314.9c-0.3,0-1.6,0.1-1.8,0.2c-0.2,0.1-0.3,0.3-1.2,0.6
		c-0.9,0.4-1.8,1-2.2,1.3c-0.4,0.3-1.1,0.4-0.9,0.9c0.1,0.4,0.3,1.1,1.3,1.5c1,0.4,3.7,1.8,4.1,1.8c0.4,0,0.6-0.1,1.4,0.1
		c0.8,0.2,2.2,0.3,3,0.2c0.8-0.1,0.6-0.3,1.7-0.3c1.1,0,2.1-0.1,2.1-0.5c0.1-0.4,0.1-1.3-0.3-1.6c-0.4-0.3-2.7-1.5-3-2.1
		c-0.3-0.6-0.6-1.2-0.8-1.5c-0.3-0.3-0.6-0.4-0.6-0.4C238,314.9,235.9,314.9,235.5,314.9z M216.7,317.7c-0.4-0.1-0.4,0.8-0.4,1.1
		c0,0.4,0.4,0.8,1.1,1.5c0.6,0.6,0.3,1.2,0.6,1.5c0.3,0.3,2,1,2.8,1.3s1.3,0.6,2.1,1c0.8,0.4,1.8,1.6,2.3,2.1
		c0.5,0.6,1.8,1.3,2.8,2.1c1,0.8,1.1,0.6,1.7,1s0.5,0.9,0.9,1.5c0.4,0.6,1.5,0.7,2.2,1.1c0.8,0.4,1.2,0.9,2,1.8
		c0.8,0.9,1.3,1.6,1.6,1.7c0.3,0.1,0.8-0.9,0.9-1.1c0.1-0.2,1.4-0.8,2-1.1s1.6,0.2,2.1,0.1c0.6-0.1,1.1-0.4,1.1-0.9
		c0.1-0.4-1-1-1.1-1.3c-0.1-0.3,0.1-1.2,0.2-1.5c0.1-0.3,0.6-0.9,0.9-0.9c0.3,0.1,0.6,1.1,0.3,1.8c-0.3,0.7,0.3,0.7,0.8,0.8
		s0.5-0.6,0.9-1c0.4-0.4,1.5-2.1,1.6-2.3c0.1-0.3,1.6-2.2,2-2.8c0.4-0.6,0.4-0.9,0.2-1.2c-0.3-0.3-0.9-0.6-1.1-0.6
		c-0.3,0-2.1,0.3-3.2,0.3c-1.1,0-0.9-0.5-1.2-0.7c-0.3-0.2-1.3-0.7-2-0.7c-0.8,0-0.8,0.5-1.9,0.6c-1.1,0.1-1.5-0.1-2.3-0.3
		c-0.8-0.2-0.8-0.6-1.1-0.6c-0.3,0-0.8,0.4-1.6,0.5c-0.8,0.1-1.9-0.6-2.7-0.8s-2.5-1.1-3.5-1.4s-2.1-1.7-2.3-2
		c-0.2-0.3-0.3-0.1-1.1-0.1c-0.9,0.1-1,0.2-1.7,0.3c-0.7,0.1-1.8-0.2-2.6-0.2C219.3,318.4,217.6,317.8,216.7,317.7z M181.2,333.6
		c-0.6,0-1.3,0.3-1.6,0.3c0,0-0.3,0.1-0.5,0.8c-0.2,0.8,0.2,2.5,0.3,3.4c0.1,0.8,0.7,1.6,1,2c0.3,0.4,1.1,0.3,1.6,0.3
		c0.5,0,2.4,0.3,3.1,0.6c0.7,0.3,2.2,1,3.1,1.9s0.9,1.8,0.9,2.4s1.2,0.1,2.4,0.4c1.2,0.3,2.2,0.6,2.5,0.5c0.3-0.1-0.1-0.4-0.2-0.8
		c-0.1-0.3-1.1-1.8-1.5-2.2c-0.4-0.4-1.3-1.7-1.5-2.1c-0.3-0.4-1-0.9-1.3-1.1c-0.3-0.2-1.8-1.1-2.1-1.3s-0.9-0.9-1.1-1.1
		c-0.2-0.2-2-1.6-2.5-2.1c-0.5-0.4-0.9-1.2-1.7-1.6c-0.2-0.1-0.4-0.2-0.7-0.2C181.4,333.6,181.3,333.6,181.2,333.6L181.2,333.6z
		 M179.6,341.2c-0.2,0-0.3,0.1-0.5,0.3c-0.4,0.5-0.5,0.8-0.6,1.3c-0.1,0.5-0.9,1.3,0.4,1.6s3,1.1,3.3,1.1h2.3c0.7,0,0.7-0.1,0.9-0.4
		c0.3-0.4,0.1-0.4,0.8-0.9c0.7-0.4,0.9-0.7,0.8-1c-0.1-0.3-0.6-0.6-1.1-0.9s-1.6-0.8-2.5-0.8c-0.9,0-1.5,0.2-1.8,0.2
		c-0.3,0-1.1-0.3-1.1-0.3C180.2,341.3,179.9,341.2,179.6,341.2z"/>
	<path id="XMLID_75_" class="st1" d="M82.5,246.3l-0.4-0.3l-0.1,0.2l-0.1,0.1l0,0l0,0l0.3,0.2l-0.2-0.2l0,0l0.3,0.2l-0.2-0.2l0,0
		c-0.2,0.2-0.5,0.5-0.8,0.9c-0.3,0.4-0.6,0.8-0.8,1.2c-0.2,0.4-0.4,1-0.4,1.6c0,0.2,0,0.4,0.1,0.6c0.1,0.2,0.2,0.4,0.3,0.6
		c0.1,0.1,0.3,0.3,0.5,0.4c0.2,0.2,0.5,0.3,0.7,0.4l0.2,0.1l0,0h0l0.1-0.1h-0.1l0,0.1l0.1-0.1h-0.1h0.2l-0.1-0.1l0,0.1h0.2l-0.1-0.1
		l0.1,0l0,0l0,0l0.1,0l0,0l0,0l0,0l0,0c-0.2,0.2-0.3,0.2-0.5,0.3c-0.1,0-0.3,0.1-0.4,0.3c-0.1,0.1-0.2,0.3-0.3,0.6
		c-0.1,0.2-0.1,0.5-0.1,0.8c0,0.4-0.1,0.9-0.1,1.4c0,0.2-0.1,0.4-0.1,0.6c0,0.2-0.1,0.3-0.1,0.4c-0.1,0.1-0.1,0.3-0.2,0.5
		c-0.3,0.7-0.7,2-1,3.2c-0.2,0.6-0.4,1.1-0.5,1.6c-0.1,0.2-0.1,0.4-0.2,0.6c0,0.1-0.1,0.3-0.1,0.3l-0.1,0.1c-0.4,1-2.8,7.5-5.1,13.8
		c-1.2,3.1-2.3,6.2-3.1,8.5c-0.4,1.2-0.8,2.1-1,2.8c-0.1,0.3-0.2,0.6-0.3,0.8c0,0.1-0.1,0.2-0.1,0.2l0,0.1l0,0l0,0v0l0.3,0.1
		l-0.3-0.1l0,0.1l0.3,0.1l-0.3-0.1l0,0c0,0-0.1,0.1-0.2,0.3c-0.2,0.4-0.5,1.1-0.5,2.1c0,1.3,0.5,3,2.1,5.2c0.8,1.2,1.4,2,1.8,2.7
		c0.3,0.5,0.6,0.9,0.8,1.2c0.2,0.2,0.4,0.5,0.6,0.6c0.4,0.3,0.8,0.4,1.3,0.4c0.5,0.1,1.1,0.1,1.9,0.1c3.8,0,13.3-0.4,13.3-0.4l0.1,0
		l0.1,0c0,0,0.6-0.3,1.3-0.8c0.3-0.3,0.7-0.6,1-1c0.3-0.4,0.5-0.9,0.6-1.4c0.1-0.4,0.1-0.8,0.1-1.2c0-0.7-0.1-1.4-0.4-1.9
		c-0.3-0.6-0.7-1-1.2-1.3l0,0.1l0-0.1l0,0l0,0.1l0-0.1l-0.1-0.1c-0.1-0.1-0.3-0.4-0.5-0.7c-0.7-1.1-1.8-3-2.6-4.6
		c-0.4-0.8-0.8-1.6-1-2.1c-0.3-0.5-0.4-0.9-0.4-0.9l0,0l-4.9-7.6l-0.4,0.3l0.4,0.3c0,0,0.1-0.2,0.3-0.5c0.3-0.5,0.7-1.2,1.1-1.7
		c0.2-0.3,0.4-0.5,0.5-0.7l0.2-0.2l0,0l0,0l0,0l0,0l0,0l0,0l-0.2-0.2l0.1,0.3l0,0l-0.2-0.2l0.1,0.3l-0.2-0.4v0.4c0.1,0,0.2,0,0.2,0
		l-0.2-0.4v0.4v-0.5l-0.3,0.4l0.3,0.1v-0.5l-0.3,0.4l0,0l0.2-0.3l-0.2,0.3l0,0l0.2-0.3l-0.2,0.3l0.1-0.1l-0.1,0.1l0,0l0.1-0.1
		l-0.1,0.1l0.1,0.1c0.1,0.1,0.4,0.4,0.8,0.8c0.5,0.5,1.2,1.2,1.9,1.8c0.3,0.3,0.7,0.5,1,0.7c0.2,0.1,0.3,0.2,0.5,0.2
		c0.2,0.1,0.3,0.1,0.5,0.1l0.1,0c0.4,0,0.8-0.2,1.2-0.4c0.5-0.4,1.1-0.9,1.6-1.4c0.5-0.5,0.9-1,1.2-1.3c0.4-0.4,0.6-0.9,0.8-1.2
		c0.1-0.1,0.2-0.3,0.2-0.3l0,0l0,0l-0.1-0.1v0.1l0.1,0l-0.1-0.1v0.1v-0.1l0,0.1l0,0v-0.1l0,0.1l0,0c0.3,0.2,0.6,0.4,0.7,0.6
		c0.2,0.2,0.3,0.3,0.4,0.6l0.3-0.1h-0.3l0,0.1l0.3-0.1h-0.3h0.1l-0.1,0l0,0h0.1l-0.1,0c0,0-0.1,0.2-0.2,0.3
		c-0.2,0.3-0.5,0.7-0.9,1.2c-0.6,0.7-1.3,1.4-1.9,2c-0.3,0.3-0.5,0.6-0.7,0.8c-0.1,0.1-0.2,0.2-0.2,0.3l-0.1,0.1
		c0,0-0.1,0.1-0.1,0.2l0,0.2c0,0.2,0,0.3,0.1,0.4c0.1,0.2,0.2,0.4,0.3,0.6c0.2,0.3,0.5,0.7,0.7,1c0.1,0.1,0.3,0.3,0.4,0.4
		c0.1,0.1,0.3,0.2,0.4,0.3c0.1,0,0.2,0.1,0.3,0.3c0.1,0.1,0.2,0.2,0.3,0.2c0.1,0.1,0.3,0.1,0.5,0.1c0.3,0,0.6-0.1,0.9-0.3
		c0.3-0.2,0.7-0.5,1.2-1c0.9-0.9,1.6-1.9,2.1-2.5c0.2-0.3,0.4-0.6,0.6-0.8l0.2-0.1l0,0l0,0l0,0v0l0,0l0,0v0v0l0,0l0,0v0l0,0l0,0l0,0
		l0,0.1c0,0.1,0,0.2-0.1,0.4c-0.2,0.6-0.8,1.3-1.3,1.8c-0.5,0.5-1.5,1.5-2.3,2.3c-0.4,0.4-0.8,0.9-1.1,1.2c-0.2,0.2-0.3,0.3-0.4,0.4
		l-0.1,0.2l-0.1,0.2c-0.1,0.1-0.1,0.3-0.1,0.4c0,0.2,0.1,0.4,0.1,0.6c0.1,0.3,0.3,0.6,0.5,0.9c0.1,0.1,0.2,0.3,0.3,0.4
		c0.1,0.1,0.3,0.2,0.5,0.3l0.2,0c0.2,0,0.4-0.1,0.6-0.2c0.2-0.1,0.4-0.3,0.6-0.4l0.2-0.1l0.1,0l0,0c0.3,0.2,0.6,0.5,0.9,0.8
		c0.3,0.3,0.5,0.5,0.6,0.7l0.2-0.1h-0.2l0,0.1l0.2-0.1h-0.2h0.1l-0.1,0l0,0h0.1l-0.1,0l0,0c0,0,0,0.1-0.1,0.2
		c-0.1,0.2-0.2,0.3-0.4,0.5l-0.2,0.2l-0.2,0.2l0,0c-0.1,0.1-0.1,0.2-0.1,0.3c0,0.1,0,0.2,0,0.2c0,0.1,0.1,0.2,0.1,0.3
		c0.2,0.3,0.6,0.9,1.1,1.5c0.7,0.9,1.6,2,2.4,2.9c0.4,0.4,0.7,0.8,1,1.1c0.1,0.1,0.3,0.3,0.4,0.3l0.2,0.1l0.1,0.1l0.2,0.1h0l0.1,0
		c0.1,0,0.2,0,0.2,0c0.1,0,0.2-0.1,0.4-0.2c0.4-0.2,1-0.6,1.5-1c0.3-0.2,0.5-0.3,0.7-0.4c0.1-0.1,0.2-0.1,0.2-0.1l0,0l0-0.1l0,0.1
		l0,0l0-0.1l0,0.1l0-0.3v0.3l0,0l0-0.3v0.3v-0.4l-0.1,0.4l0.1,0v-0.4l-0.1,0.4l0,0l0-0.3l-0.1,0.2l0.1,0l0-0.3l-0.1,0.2l0.1-0.1
		l-0.1,0.1l0,0l0.1-0.1l-0.1,0.1l0,0c0,0,0.1,0.1,0.2,0.2c0.1,0.2,0.3,0.4,0.5,0.7c0.1,0.1,0.2,0.2,0.3,0.3c0.1,0.1,0.3,0.2,0.5,0.2
		c0.2,0,0.3-0.1,0.4-0.1l0,0c0.2-0.1,0.6-0.4,1.2-0.8c0.9-0.6,2.1-1.5,3.1-2.3c0.5-0.4,0.9-0.8,1.3-1.1c0.2-0.2,0.3-0.3,0.4-0.4
		l0.1-0.2c0-0.1,0.1-0.2,0.1-0.3l-0.1-0.3l0,0c-0.1-0.1-0.1-0.2-0.2-0.3c-0.3-0.4-0.9-1-1.5-1.5c-0.3-0.3-0.5-0.5-0.8-0.8
		c-0.2-0.2-0.4-0.4-0.4-0.5c-0.2-0.3-0.4-0.6-0.7-1.3c-0.2-0.7-0.5-1.8-0.6-3.7c0-0.1,0-0.2,0-0.3c0-0.4,0.1-0.7,0.1-0.8l0,0l0,0
		l0,0l0,0.1l0,0l0,0l0,0.1l0-0.1v0.1l0,0l0-0.1v0.1c0,0,0.1,0,0.1,0.1c0.2,0.1,0.4,0.3,0.6,0.6c0.8,0.9,1.6,2.5,1.9,3.8
		c0.2,0.8,0.6,1.5,1,2.1c0.7,0.8,1.5,1.3,2.2,1.6c0.4,0.2,0.7,0.3,0.9,0.4c0.3,0.1,0.5,0.2,0.5,0.3c0.2,0.2,0.5,0.3,0.8,0.3
		c0.5,0,0.9-0.2,1.2-0.5c0.2-0.1,0.3-0.3,0.4-0.5c0.1-0.2,0.2-0.4,0.2-0.6l0-0.2c-0.1-0.6-0.3-2.4-0.5-4.1c-0.1-0.9-0.2-1.7-0.3-2.4
		c-0.1-0.7-0.1-1.3-0.1-1.5l0-0.1l-0.2,0l0.2,0.1l0,0l-0.2,0l0.2,0.1l-0.4-0.1l0.3,0.2l0.1-0.1l-0.4-0.1l0.3,0.2l0,0l-0.1-0.1
		l0.1,0.1l0,0l-0.1-0.1l0.1,0.1l0,0c0,0,0.2-0.1,0.4-0.2c0.2-0.1,0.4-0.1,0.5-0.1l0,0l0,0l0-0.2l-0.1,0.1l0.1,0.1l0-0.2l-0.1,0.1
		l0.2-0.2l-0.3,0l0.1,0.2l0.2-0.2l-0.3,0l0,0.1c0,0.6,0.1,2.3,0.2,4c0,0.8,0.1,1.6,0.2,2.2c0,0.3,0.1,0.6,0.1,0.8
		c0,0.1,0.1,0.2,0.1,0.3l0.1,0.2c0,0.1,0.1,0.1,0.2,0.2l0.2,0c0.2,0,0.4,0,0.7,0.1c0.3,0,0.6,0,1,0c1.1,0,2.6,0,3.8-0.1
		c0.6,0,1.2-0.1,1.6-0.2c0.2,0,0.4-0.1,0.6-0.1l0.2-0.1c0.1,0,0.2-0.1,0.3-0.2c0.1-0.2,0.1-0.3,0.2-0.5c0-0.2,0-0.3,0-0.5
		c0-0.5,0-1.3,0-2c0-0.7,0-1.4,0.2-2c0.1-0.3,0.2-0.5,0.3-0.6c0.1-0.1,0.2-0.2,0.3-0.2c0.2,0,0.3-0.1,0.4-0.1c0.3,0,0.6,0.1,0.9,0.2
		c0.4,0.2,0.9,0.5,1.2,0.9c0.4,0.3,0.7,0.7,0.9,0.9c0.3,0.3,0.7,0.6,1,1c0.2,0.2,0.3,0.4,0.4,0.5c0.1,0.2,0.1,0.3,0.1,0.4l0,0.1
		l0,0.2c0,0.2,0.1,0.3,0.1,0.4c0.1,0.2,0.3,0.3,0.5,0.4c0.3,0.1,0.7,0.2,1,0.3c0.4,0.1,0.8,0.1,1.2,0.1c0.3,0,0.6,0,0.9-0.1
		c0.3,0,0.5-0.1,0.7-0.3c0.2-0.1,0.3-0.3,0.4-0.4c0.2-0.3,0.3-0.6,0.5-1.1c0.2-0.6,0.4-1.4,0.6-2c0.1-0.3,0.1-0.6,0.2-0.9
		c0-0.3,0.1-0.5,0.1-0.7l0-0.2c0-0.1,0-0.1-0.1-0.2l-0.4,0.2h0.4l0-0.2l-0.4,0.2h0.4h-0.4l0.3,0.2l0-0.2h-0.4l0.3,0.2l-0.2-0.1
		l0.1,0.1l0,0l-0.2-0.1l0.1,0.1l0,0c0,0,0.1-0.1,0.3-0.2c0.4-0.2,1.3-0.5,2.1-0.4c0.6,0,1.2,0.1,1.7,0.4c0.9,0.6,2.2,1.3,3.2,2
		c0.5,0.3,1,0.7,1.3,1c0.2,0.1,0.3,0.3,0.4,0.4c0.1,0.1,0.1,0.2,0.1,0.2c0.1,0.2,0.2,0.3,0.3,0.5c0.2,0.2,0.5,0.5,0.9,0.7
		c0.5,0.4,1.2,0.7,1.7,1c0.3,0.1,0.5,0.2,0.8,0.3c0.2,0.1,0.4,0.1,0.7,0.1l0.1,0l0,0c0.2,0,0.4-0.2,0.5-0.3c0.1-0.2,0.2-0.4,0.2-0.6
		c0-0.2,0-0.4,0-0.7c0-0.5-0.1-1.2-0.2-1.8c-0.1-0.3-0.1-0.6-0.2-0.8c-0.1-0.2-0.2-0.5-0.3-0.6c-0.3-0.5-0.8-0.8-1.2-1
		c-0.2-0.1-0.4-0.2-0.5-0.2l-0.1,0l0,0l-0.2,0.2l0.2-0.2l-0.1-0.1l-0.2,0.2l0.2-0.2l-0.4,0.3l0.5-0.1l-0.1-0.2l-0.4,0.3l0.5-0.1
		l-0.4,0.1h0.4l0-0.1l-0.4,0.1h0.4h-0.3l0.3,0l0,0h-0.3l0.3,0l0,0l0,0l0,0l0,0l0,0l0-0.2c0.1-0.3,0.4-1.1,0.7-1.9
		c0.5-1.3,1.2-2.9,1.8-4.3c0.3-0.7,0.6-1.3,0.9-1.8c0.1-0.2,0.2-0.5,0.3-0.6c0.1-0.2,0.2-0.3,0.2-0.3c0.2-0.3,0.5-0.6,0.7-1
		c0.4-0.6,0.7-1.3,1-1.9c0.1-0.3,0.3-0.6,0.4-0.8c0.1-0.2,0.2-0.4,0.2-0.4c0.1-0.1,0.2-0.3,0.4-0.4l0.2-0.1l0,0l0-0.1l0,0.1l0,0
		l0-0.1l0,0.1l0-0.2v0.2l0,0l0-0.2v0.2v-0.3l-0.1,0.3l0.1,0v-0.3l-0.1,0.3l0.1-0.3l-0.3,0.2l0.2,0.2l0.1-0.3l-0.3,0.2l0.2-0.1
		l-0.3,0l0,0.1l0.2-0.1l-0.3,0l0.1,0h-0.1l0,0l0.1,0h-0.1c0,0,0,0.1-0.1,0.3c-0.2,0.7-0.4,1.6-0.6,2.5c-0.1,0.4-0.2,0.8-0.3,1.1
		c0,0.1-0.1,0.3-0.1,0.4l-0.1,0.1c-0.1,0.1-0.2,0.2-0.4,0.4c-0.5,0.6-1.2,1.7-1.9,2.8c-0.3,0.5-0.6,1.1-0.9,1.5
		c-0.1,0.2-0.2,0.4-0.3,0.6c-0.1,0.2-0.1,0.3-0.1,0.5c0,0.1,0,0.3,0,0.4c0,0.5,0,1,0.1,1.6c0.1,0.6,0.2,1.1,0.4,1.5
		c0.1,0.1,0.1,0.5,0.2,0.9c0.1,0.6,0.3,1.4,0.5,2.1c0.1,0.4,0.2,0.7,0.4,1c0.2,0.3,0.3,0.6,0.6,0.8c0.2,0.2,0.4,0.3,0.7,0.4
		c0.5,0.2,1.1,0.5,1.8,0.7c1,0.4,2.2,0.7,3.3,1c0.5,0.1,1,0.2,1.4,0.3c0.4,0.1,0.8,0.1,1,0.1l0.1,0l0,0l0,0c0.1,0,0.2,0,0.4,0.1
		c0.7,0.2,2.1,0.6,3.5,0.9c1.5,0.4,3.2,0.7,4.7,0.7c0.6,0,1.2-0.1,1.8-0.2c0.5-0.1,1.1-0.4,1.5-0.7l-0.3-0.4l0.2,0.5
		c0,0,0.2-0.1,0.4-0.2c0.1-0.1,0.2-0.1,0.3-0.2l0.1-0.2c0-0.1,0.1-0.2,0.1-0.3l0-0.3c-0.1-0.2-0.6-1.4-1.1-2.7
		c-0.3-0.6-0.5-1.3-0.7-1.8c-0.1-0.3-0.2-0.5-0.3-0.6c-0.1-0.2-0.1-0.3-0.1-0.3l-0.3,0.1h0.3l0-0.1l-0.3,0.1h0.3h-0.3l0.2,0.2l0-0.2
		h-0.3l0.2,0.2l-0.1-0.1l0.1,0.1l0,0l-0.1-0.1l0.1,0.1l0.1-0.1c0.1-0.1,0.3-0.1,0.4-0.1l0.1,0l0,0l0,0l-0.1-0.5l-0.4,0.2
		c0,0,0.6,1.3,1.3,2.7c0.3,0.7,0.7,1.4,1.1,2c0.2,0.3,0.3,0.6,0.5,0.8c0.2,0.2,0.3,0.4,0.5,0.6c0.5,0.4,1.1,1,1.6,1.5
		c0.3,0.2,0.5,0.5,0.6,0.7l0.2,0.2l0,0.1l0,0l0.2-0.1l-0.2,0.1l0,0l0.2-0.1l-0.2,0.1l0.3-0.1h-0.3l0,0.1l0.3-0.1h-0.3h0.1l-0.1,0v0
		h0.1l-0.1,0c0,0,0,0.1,0,0.2c-0.1,0.4-0.4,1.1-0.6,1.6c-0.1,0.3-0.2,0.5-0.3,0.7c-0.1,0.2-0.1,0.3-0.1,0.3l-0.2,0.4l9.3,6l0.3-0.4
		l-0.5-0.1c0,0,0,0.1,0,0.2c-0.1,0.4-0.3,1.3-0.6,2.2c-0.1,0.4-0.3,0.8-0.4,1.1c-0.1,0.1-0.1,0.3-0.2,0.3l0,0l0.2,0.2l-0.1-0.2
		l-0.1,0l0.2,0.2l-0.1-0.2l0.1,0.3v-0.3l-0.1,0l0.1,0.3v-0.3v0.1l0-0.1l0,0v0.1l0-0.1l0,0c-0.1,0-0.3-0.1-0.6-0.2
		c-1-0.4-3-1.3-4.6-2.1c-0.8-0.4-1.6-0.8-2.1-1.1c-0.6-0.3-0.9-0.5-0.9-0.5l-0.4-0.2l-1.1,1.5l0.4,0.3l0.1-0.5c0,0-0.4-0.1-0.9-0.2
		c-0.5-0.1-1.1-0.2-1.5-0.2c-0.1,0-0.3,0-0.4,0l-0.2,0.1c-0.1,0.1-0.2,0.2-0.2,0.3c0,0-0.1,0.2-0.2,0.4c-0.1,0.2-0.2,0.4-0.2,0.7
		c0,0.2,0.1,0.5,0.2,0.8c0.2,0.2,0.4,0.5,0.8,0.7c0.4,0.2,1,0.5,1.8,0.9c1.2,0.6,2.7,1.3,4,1.9c0.6,0.3,1.2,0.6,1.6,0.9
		c0.2,0.1,0.4,0.3,0.5,0.4c0.1,0.1,0.2,0.2,0.2,0.2c0.3,0.5,0.7,1.2,1,1.7c0.1,0.3,0.3,0.5,0.4,0.7c0.1,0.2,0.2,0.4,0.2,0.5
		c0.1,0.1,0.2,0.2,0.3,0.3c0.2,0.1,0.4,0.3,0.6,0.4c0.7,0.4,1.5,0.8,1.6,0.8l0.2-0.4l-0.4,0.2c0,0,0.1,0.1,0.2,0.2
		c0.1,0.1,0.3,0.2,0.5,0.2c0.3,0,0.5-0.1,0.8-0.3c0.4-0.3,1-0.9,1.7-1.9c0.7-1.1,1.6-2.6,2.7-4.8l-0.4-0.2l0.4,0.3l0.9-1.3l11.4,7.1
		l1.1-1.1l0.6,0.8l-0.5,2.4l0.9,0.4l5.2,2l1.7,1.6l2.2-3.1l-0.4-0.3l-0.1,0.5c0,0,0.7,0.2,1.5,0.2c0.3,0,0.6,0,0.9-0.1
		c0.3-0.1,0.6-0.2,0.9-0.5c0.4-0.4,0.7-0.5,1-0.5c0.3,0,0.4,0.1,0.6,0.3l0.1,0.1c0.1,0.3,0.1,1,0.7,1.6c0.3,0.3,0.7,0.6,1.2,0.7
		c0.5,0.2,1.2,0.3,2.1,0.3c0.3,0,0.6,0,0.9,0c2.4-0.2,4.5-0.5,6.2-1.1c1.7-0.6,2.9-1.4,3.7-2.4c0.4-0.5,0.6-0.8,0.9-1
		c0.3-0.2,0.4-0.3,0.7-0.3c0.3,0,0.6,0.1,1.1,0.3c0.5,0.2,1.1,0.6,1.9,1c1.6,1,2.8,1.8,3.5,2.5c0.4,0.3,0.7,0.6,1,0.8
		c0.1,0.1,0.2,0.2,0.4,0.3c0.1,0.1,0.2,0.1,0.4,0.2l0.2,0c0.1,0,0.3-0.1,0.4-0.1c0.2-0.1,0.2-0.3,0.2-0.4c0-0.1,0-0.2,0-0.3
		c0-0.4-0.1-0.8-0.2-1.2c0-0.2-0.1-0.4-0.1-0.5l0-0.2l0,0l0,0h0l0,0l0,0h0h0l0,0l0,0h0l0,0l0.1-0.2l0,0l0,0c0,0,0.1,0,0.3,0.1
		c0.4,0.3,0.8,0.8,1.4,1.4c0.5,0.6,1.2,1.3,1.8,1.9c0.3,0.3,0.6,0.5,0.8,0.7c0.1,0.1,0.2,0.2,0.3,0.2c0.1,0.1,0.2,0.1,0.4,0.2
		c0.1,0,0.3,0,0.4-0.1c0.2-0.1,0.2-0.3,0.2-0.4c0-0.1,0-0.2,0-0.3c0-0.3-0.1-0.8-0.2-1.4c-0.2-1.5-0.4-4.1-0.4-5.9
		c0-0.5,0-0.9,0-1.2c0-0.1,0-0.3,0-0.4l0-0.1l0,0l0,0l-0.2-0.1l0.2,0.1l0,0l-0.2-0.1l0.2,0.1l-0.1-0.1l0.1,0.1l0,0l-0.1-0.1l0.1,0.1
		l0,0l0,0l0,0l0,0l0,0l0,0c0.1,0,0.2-0.1,0.5-0.2c0.2,0,0.5-0.1,0.7-0.1c0.3,0,0.6,0,0.8,0.1c0.1,0,0.2,0.1,0.2,0.1l0.1,0.1
		c0.1,0.5,0.4,1.3,0.8,1.9c0.2,0.3,0.6,0.6,1,0.8c0.4,0.2,0.9,0.3,1.4,0.3l0.2,0c0.6,0,1.2-0.2,1.9-0.5c1.9-0.8,3.9-2.3,4.8-3
		c0.2-0.2,0.5-0.4,0.9-0.7c0.6-0.4,1.2-0.9,1.8-1.4c0.3-0.3,0.5-0.5,0.7-0.9c0.2-0.3,0.3-0.7,0.3-1c0-0.2-0.1-0.5-0.2-0.7
		c-0.8-1.8-2.5-3.1-4-3.9c-0.7-0.4-1.4-0.8-2.1-1.2c-0.4-0.2-0.7-0.4-1-0.5c-0.3-0.1-0.6-0.2-0.9-0.2c-0.1,0-0.2,0-0.3,0
		c-0.2,0.1-0.4,0.1-0.5,0.2c-0.1,0.1-0.3,0.1-0.4,0.3c-0.2,0.2-0.3,0.4-0.3,0.6c-0.1,0.2-0.1,0.5-0.1,0.8c0,0.4-0.3,0.9-0.7,1.3
		c-0.4,0.4-0.9,0.8-1.3,1c-0.4,0.2-0.9,0.5-1.3,0.7c-0.5,0.2-0.9,0.3-1.2,0.3l-0.2,0l-0.2,0c-0.3,0-0.6,0.2-0.8,0.3
		c-0.3,0.3-0.5,0.6-0.7,0.9c-0.1,0.2-0.2,0.3-0.3,0.4c-0.1,0.1-0.1,0.2-0.2,0.3l0.1,0.1l-0.1-0.1l0,0l0.1,0.1l-0.1-0.1l0.2,0.3v-0.3
		l-0.2,0l0.2,0.3v-0.3v0.3l0.2-0.2c0,0-0.1-0.1-0.2-0.1v0.3l0.2-0.2l-0.1,0.1l0.2-0.1l0,0l-0.1,0.1l0.2-0.1l-0.1,0l0.1,0l0,0l-0.1,0
		l0.1,0c0,0-0.1-0.1-0.1-0.4c0-0.5,0.2-1.3,0.7-2.5c0.3-0.6,0.5-1,0.6-1.1l0.2-0.1l0,0v0l0-0.1v0.1l0,0l0-0.1v0.1v-0.1l-0.1,0.1
		l0.1,0v-0.1l-0.1,0.1l0,0l0,0l0,0l0,0l0,0l0.1,0.1l0,0l0,0l0.1-0.1l-0.1,0l0,0l0.1-0.1l-0.1,0l0.5,1.5l0.4-1.5c0,0,0.1-0.3,0.1-0.6
		c0.1-0.3,0.1-0.8,0.1-1.2c0-0.2,0-0.4-0.1-0.6c0-0.2-0.1-0.4-0.3-0.5c-0.1-0.1-0.3-0.3-0.4-0.5c-0.1-0.2-0.2-0.4-0.2-0.5l0-0.1
		c0,0,0,0,0.2-0.1c0.1,0,0.3,0,0.6-0.1c0.3,0,0.6,0,1,0c1,0,2.3,0,3.5,0c0.5,0,1,0,1.3,0c0.4,0,0.7-0.1,1-0.1
		c0.6-0.2,0.9-0.2,1.1-0.3c0.1,0,0.3-0.1,0.4-0.2c0.1-0.1,0.2-0.2,0.3-0.3c0.1-0.1,0.1-0.2,0.1-0.3l0-0.2c0-0.2,0-0.5-0.1-0.9
		c-0.2-1-0.5-2.7-0.5-4c0-0.4,0-0.8,0.1-1.1c0.1-0.3,0.2-0.5,0.3-0.7c0.6-0.8,1.2-1.5,1.8-2c0.3-0.3,0.5-0.5,0.7-0.8
		c0.1-0.1,0.2-0.2,0.2-0.4c0.1-0.1,0.1-0.3,0.1-0.5l0-0.1l0,0c0-0.2-0.1-0.3-0.1-0.4c-0.1-0.2-0.3-0.3-0.4-0.4
		c-0.2-0.2-0.4-0.4-0.6-0.5l-0.2-0.2l0,0l0,0l-0.1,0h0.1l0,0l-0.1,0h0.1h-0.2l0.1,0.1l0-0.1h-0.2l0.1,0.1l0,0l0,0l0,0l0,0l0,0
		l0.1-0.1c0.4-0.2,0.7-0.3,0.9-0.3c0.1,0,0.2,0,0.3,0.1c0.1,0.1,0.2,0.2,0.4,0.4c0.4,0.5,0.9,0.6,1.1,0.8c0.1,0.1,0.2,0.1,0.3,0.2
		c0,0,0.1,0.1,0.1,0.3c0,0.3,0.1,0.6,0.3,0.9c0.2,0.5,0.5,0.9,0.8,1.3c0.2,0.2,0.3,0.4,0.5,0.5c0.2,0.1,0.3,0.3,0.5,0.3
		c0.2,0.1,0.4,0.1,0.7,0.2c0.3,0,0.5,0.1,0.8,0.1c0.3,0,0.6,0,0.9-0.1c0.3-0.1,0.6-0.2,0.8-0.5c0.1-0.1,0.1-0.1,0.2-0.2
		c0.1,0,0.2-0.1,0.3-0.1l0.2,0l0.1-0.2l-0.1,0.1l0.1,0l0.1-0.2l-0.1,0.1l0.2-0.2h-0.3l0.1,0.2l0.2-0.2h-0.3h0.3l-0.2-0.1l0,0.1h0.3
		l-0.2-0.1l0.1,0.1l-0.1-0.1l0,0l0.1,0.1l-0.1-0.1l0,0l0,0l0,0l0,0l0,0l0,0c-0.3,0.3-0.6,0.6-0.9,0.8c-0.3,0.2-0.6,0.4-1,0.4l-0.1,0
		c-0.5,0-1.2-0.2-1.8-0.3c-0.7-0.1-1.3-0.2-1.8-0.2c-0.5,0-0.9,0.1-1.3,0.2c-0.4,0.1-0.7,0.2-1.1,0.3c-0.4,0.1-0.8,0.1-1.2,0.3
		c-0.2,0.1-0.4,0.2-0.6,0.3c-0.2,0.2-0.3,0.5-0.3,0.7l0,0.2c0,0.3,0.1,0.6,0.2,0.9c0.2,0.5,0.4,1.1,0.5,1.7c0.1,0.3,0.2,0.5,0.2,0.7
		l0.1,0.2l0,0.1l0,0l0.2,0h-0.2l0,0l0.2,0h-0.2l0,0.1c0,0.1,0.1,0.3,0.1,0.5c0.2,0.7,0.6,1.9,1.1,3.1c0.2,0.6,0.5,1.2,0.7,1.6
		c0.1,0.2,0.2,0.4,0.4,0.6c0.1,0.2,0.2,0.3,0.4,0.5c0.2,0.1,0.5,0.4,0.9,0.8c0.6,0.5,1.3,1.1,1.9,1.6c0.3,0.3,0.6,0.5,0.8,0.6
		c0.1,0.1,0.2,0.2,0.4,0.2l0.2,0.1c0.1,0,0.1,0,0.2,0c0.2,0,0.3,0,0.4-0.1c0.2-0.1,0.3-0.3,0.4-0.4c0.2-0.2,0.3-0.5,0.4-0.7
		c0.1-0.2,0.3-0.5,0.5-0.6c0.1-0.1,0.4-0.3,0.6-0.4c0.4-0.2,0.9-0.4,1.3-0.6c0.2-0.1,0.4-0.2,0.6-0.3c0.2-0.1,0.3-0.2,0.5-0.3
		c0,0,0.1-0.1,0.2-0.2c0.4-0.3,1.1-0.7,1.8-1.2c0.3-0.2,0.7-0.4,0.9-0.6c0.3-0.2,0.5-0.3,0.6-0.4c0.2-0.1,0.3-0.3,0.5-0.5
		c0.3-0.3,0.6-0.6,0.9-0.9c0.2-0.1,0.3-0.2,0.4-0.3l0.1-0.1l0.1,0v-0.1l0,0.1l0,0v-0.1l0,0.1c0.2,0.1,0.5,0.2,0.8,0.2
		c0.4,0,0.9-0.1,1.4-0.3c0.5-0.2,0.9-0.5,1.4-0.8c0.2-0.2,0.7-0.4,1.2-0.7c0.8-0.4,1.8-1,2.7-1.4c0.4-0.2,0.8-0.4,1.2-0.6
		c0.3-0.2,0.6-0.3,0.8-0.4l0,0c0,0,0.1-0.1,0.2-0.1c0.5-0.2,1.5-0.6,2.7-1c1.8-0.7,4.2-1.5,6.1-2.1c1-0.3,1.8-0.6,2.5-0.8
		c0.3-0.1,0.6-0.2,0.8-0.3c0.1,0,0.2-0.1,0.2-0.1l0.1-0.1l-0.1-0.2l0.1,0.2l0,0l-0.1-0.2l0.1,0.2c0,0,0.2-0.1,0.4-0.1
		c1.5-0.5,7.2-2.2,12.6-3.7c2.7-0.8,5.3-1.5,7.3-2.1c1-0.3,1.8-0.5,2.4-0.7c0.3-0.1,0.5-0.1,0.7-0.2l0.2,0l0,0l0,0l0-0.3v0.3l0,0
		l0-0.3v0.3l0.2,0c0.2,0,0.5-0.1,1-0.2c1.6-0.4,4.5-1.2,7.2-1.9c1.3-0.4,2.6-0.7,3.5-0.9c0.5-0.1,0.9-0.2,1.2-0.3
		c0.1,0,0.3-0.1,0.4-0.1l0.2,0c0.3-0.1,1.6-0.3,3-0.6c0.7-0.1,1.5-0.3,2.2-0.4c0.7-0.1,1.3-0.2,1.8-0.2c0.2,0,0.3,0,0.4,0
		c0.3,0,0.7,0.2,1.2,0.4c0.7,0.3,1.6,0.7,2.5,1.1c0.9,0.4,1.8,0.8,2.6,0.9c0.6,0.1,1.5,0.2,2.5,0.2c2.2,0,4.6-0.2,4.6-0.2l0-0.5
		l-0.1,0.5c0,0,2,0.6,4.1,1.1c1.1,0.3,2.1,0.6,3,0.8c0.4,0.1,0.8,0.2,1.1,0.3c0.2,0,0.3,0.1,0.4,0.1c0.1,0,0.2,0,0.3,0l0.2,0l0,0
		c0.1,0,0.1-0.1,0.2-0.1c0.3-0.1,0.7-0.4,1.2-0.7c0.8-0.5,2-1.2,3.1-1.7c1.1-0.5,2.3-0.9,3.1-0.9l0.1,0c0.1,0,0.2,0,0.3,0
		c1.3,0,2.7-0.2,3.8-0.3c0.6-0.1,1.1-0.2,1.6-0.2c0.5-0.1,0.8-0.1,1.1-0.1l0.1,0l0.1,0c0.2,0,0.5-0.1,0.6-0.2
		c0.3-0.2,0.4-0.6,0.5-0.9c0.2-0.5,0.3-1.1,0.3-1.5c0-0.2,0.1-0.4,0.1-0.6l0-0.2l0,0l0,0l-0.2-0.1l0.2,0.1l0-0.1l-0.2-0.1l0.2,0.1
		l-0.2-0.2l0.2,0.2l0.1-0.1l-0.2-0.2l0.2,0.2l-0.1-0.1l0,0.1l0,0l-0.1-0.1l0,0.1c0,0,0.1,0,0.2-0.1c0.4-0.1,1.2-0.2,1.8-0.2
		c0.3,0,0.5,0,0.7,0l0.2,0l0.1,0l0,0l0,0l0,0l0,0l0,0l0,0l0-0.1l-0.1,0.1l0,0l0-0.1l-0.1,0.1l0,0l0,0l0,0l0,0l0,0
		c0,0,0.1,0.2,0.1,0.4c0.1,0.3,0.1,0.8,0.3,1.3c0.1,0.2,0.2,0.5,0.4,0.7c0.2,0.2,0.5,0.4,0.8,0.5c0.6,0.2,1.3,0.4,1.9,0.4
		c0.3,0,0.6,0,0.9-0.3c0.1-0.1,0.3-0.2,0.3-0.4c0.1-0.2,0.1-0.3,0.1-0.5l0-0.1l0,0c0-0.6-0.2-2.1-0.3-3.4c-0.1-1.3-0.3-2.5-0.3-2.5
		l0-0.4l-12.2-0.7l-5.6,2.1l-3.5-0.3l0,0.5l0.4-0.2l0,0c0,0-0.1-0.1-0.1-0.3c-0.1-0.1-0.1-0.3-0.1-0.4l0,0l-0.1,0l0,0l0,0l-0.1,0
		l0,0l-0.1-0.1l0.1,0.1l0.1,0l-0.1-0.1l0.1,0.1l0-0.1l0,0.1l0,0l0-0.1l0,0.1l0,0c0.2,0,0.6,0,1.2-0.1c0.8-0.1,1.9-0.2,2.9-0.4
		c0.5-0.1,1-0.2,1.4-0.4c0.4-0.2,0.8-0.4,1-0.7c0.2-0.2,0.5-0.7,0.9-1.3c0.6-0.9,1.4-2.1,2.1-3.4c0.6-1.3,1.1-2.8,1.1-4.4
		c0-0.1,0-0.3,0-0.4l0-0.1l0-0.1c-0.1-0.1-0.2-0.3-0.5-0.6c-0.4-0.3-1-0.8-2.3-1.5c-0.6-0.4-1-0.7-1.2-0.9c-0.2-0.2-0.2-0.4-0.2-0.4
		c0-0.1,0-0.2,0.1-0.3c0.1-0.1,0.2-0.3,0.3-0.5c0-0.1,0.1-0.2,0.1-0.3c0.2-0.4,0.4-1.3,0.9-2.5c0.4-1.1,0.9-2.5,1.6-3.8l0.3-0.7
		l-297.9,0.2L82.5,246.3l0.4,0.3l0,0L82.5,246.3l-0.4-0.3L82.5,246.3l-0.4-0.3h0l-0.7,0.8l298.2-0.2l0-0.5l-0.4-0.2
		c-0.7,1.6-1.3,3.1-1.8,4.4c-0.2,0.6-0.4,1.1-0.5,1.5c-0.1,0.2-0.1,0.4-0.2,0.5l-0.1,0.1l0,0l0,0c-0.1,0.1-0.1,0.3-0.2,0.5
		c-0.1,0.2-0.2,0.4-0.2,0.7c0,0.4,0.2,0.7,0.5,1.1c0.3,0.4,0.8,0.7,1.4,1.1c1.2,0.7,1.8,1.2,2.1,1.5c0.2,0.1,0.2,0.2,0.3,0.3l0,0
		l0,0l0.3-0.2l-0.3,0.1l0,0.1l0.3-0.2l-0.3,0.1l0.4-0.2l-0.5,0c0,0.1,0,0.2,0,0.4c0,1.8-0.8,3.6-1.7,5.1c-0.5,0.8-0.9,1.5-1.3,2
		c-0.4,0.6-0.8,1-1,1.3c0,0.1-0.1,0.1-0.3,0.2c-0.3,0.2-0.7,0.3-1.2,0.4c-0.8,0.2-1.7,0.3-2.5,0.3c-0.8,0.1-1.5,0.1-1.7,0.1
		c-0.1,0-0.3,0-0.4,0.1c-0.2,0.1-0.3,0.2-0.4,0.4c-0.1,0.2-0.1,0.3-0.1,0.4c0,0.3,0.1,0.6,0.2,0.8c0.1,0.2,0.2,0.4,0.2,0.4l0.1,0.2
		l4,0.3l5.6-2.2l11.6,0.7l0-0.5l-0.5,0.1c0,0,0,0.3,0.1,0.8c0.1,0.7,0.2,1.8,0.3,2.8c0.1,1,0.2,1.9,0.2,2.3l0,0l0,0.1l0,0.1l0,0
		c0,0-0.1,0-0.3,0c-0.4,0-1-0.1-1.6-0.3c-0.2-0.1-0.3-0.2-0.4-0.3c-0.2-0.2-0.2-0.7-0.3-1.1c0-0.2-0.1-0.4-0.1-0.6
		c0-0.1-0.1-0.2-0.1-0.3c-0.1-0.1-0.2-0.2-0.3-0.3c-0.2-0.1-0.4-0.2-0.7-0.2c-0.2,0-0.5,0-0.8,0c-0.5,0-1.1,0-1.5,0.1
		c-0.2,0-0.4,0.1-0.6,0.1c-0.1,0-0.2,0.1-0.3,0.1c-0.1,0-0.2,0.1-0.3,0.2c-0.1,0.1-0.1,0.2-0.1,0.2c0,0.1-0.1,0.2-0.1,0.4
		c-0.1,0.5-0.2,1.2-0.3,1.7c-0.1,0.3-0.2,0.5-0.2,0.6l-0.1,0.1l0,0l0,0v0l0,0l0,0v0h0l-0.2,0c-0.3,0-0.7,0-1.2,0.1
		c-1.4,0.2-3.5,0.5-5.3,0.5c-0.1,0-0.2,0-0.3,0l-0.1,0c-0.8,0-1.6,0.2-2.4,0.5c-1.3,0.5-2.6,1.2-3.6,1.8c-0.5,0.3-1,0.6-1.3,0.8
		c-0.2,0.1-0.3,0.2-0.4,0.2l-0.1,0.1l0,0l0,0l0.1,0.2l-0.1-0.2l0,0l0.1,0.2l-0.1-0.2l0,0l0.1,0.3v-0.3l-0.1,0l0.1,0.3v-0.3
		c0,0-0.1,0-0.2,0c-0.4-0.1-1.1-0.2-2-0.4c-1.3-0.3-2.9-0.8-4.3-1.1c-0.7-0.2-1.2-0.3-1.6-0.5c-0.4-0.1-0.7-0.2-0.7-0.2l-0.1,0
		l-0.1,0c0,0-0.1,0-0.4,0c-0.8,0.1-2.6,0.2-4.1,0.2c-0.9,0-1.7,0-2.3-0.1c-0.9-0.2-2.1-0.7-3.2-1.2c-0.6-0.3-1.1-0.5-1.6-0.8
		c-0.5-0.2-1-0.4-1.4-0.5c-0.2,0-0.4,0-0.6,0c-0.5,0-1.2,0.1-1.9,0.2c-1.1,0.1-2.3,0.4-3.3,0.6c-1,0.2-1.8,0.4-2,0.4
		c-0.1,0-0.1,0-0.3,0.1c-0.9,0.2-4,1.1-7,1.9c-1.5,0.4-2.9,0.8-4.1,1.1c-0.6,0.1-1,0.3-1.4,0.3c-0.2,0-0.3,0.1-0.4,0.1l-0.1,0l0,0
		l0,0l0,0.1v-0.1l0,0l0,0.1v-0.1l-0.1,0c-0.1,0-0.3,0.1-0.5,0.1c-1.8,0.4-7.5,2.1-12.9,3.7c-2.7,0.8-5.2,1.5-7.2,2.1
		c-1,0.3-1.8,0.5-2.3,0.7c-0.3,0.1-0.5,0.2-0.7,0.2l-0.2,0.1l-0.1,0l-0.1,0l0,0c-0.1,0-0.3,0.1-0.7,0.3c-1.3,0.5-4.2,1.4-6.7,2.3
		c-1.3,0.5-2.5,0.9-3.5,1.2c-0.5,0.2-0.9,0.3-1.2,0.5c-0.2,0.1-0.3,0.1-0.4,0.2c-0.1,0.1-0.2,0.1-0.3,0.1c-0.2,0.1-0.5,0.3-1,0.6
		c-0.7,0.4-1.7,0.9-2.6,1.4c-0.5,0.2-0.9,0.5-1.3,0.7c-0.4,0.2-0.7,0.4-0.9,0.6c-0.4,0.3-0.8,0.5-1.2,0.7c-0.4,0.2-0.8,0.3-1,0.3
		c-0.2,0-0.2,0-0.3-0.1c-0.1-0.1-0.3-0.1-0.4-0.1c-0.3,0-0.6,0.2-0.9,0.3c-0.4,0.3-0.7,0.6-1.1,0.9c-0.2,0.2-0.3,0.3-0.4,0.4
		c-0.1,0.1-0.2,0.2-0.3,0.3c-0.1,0.1-0.4,0.3-0.7,0.5c-0.5,0.3-1.1,0.7-1.7,1.1c-0.3,0.2-0.5,0.4-0.7,0.5c-0.2,0.1-0.4,0.3-0.5,0.4
		c0,0-0.2,0.1-0.4,0.3c-0.3,0.2-0.8,0.4-1.3,0.6c-0.5,0.2-0.9,0.5-1.3,0.7c-0.5,0.4-0.7,0.9-0.9,1.3c-0.1,0.2-0.2,0.3-0.2,0.4l0,0
		l0,0l0.1,0.1v-0.1l-0.1,0l0.1,0.1v-0.1v0.3l0.1-0.3l-0.1,0v0.3l0.1-0.3l0,0.1l0-0.1l0,0l0,0.1l0-0.1c0,0-0.1,0-0.2-0.1
		c-0.4-0.3-1.2-0.9-1.9-1.5c-0.4-0.3-0.7-0.6-1-0.9c-0.3-0.3-0.6-0.5-0.8-0.6c0,0-0.1-0.1-0.2-0.3c-0.2-0.3-0.4-0.8-0.7-1.4
		c-0.4-0.8-0.7-1.8-1-2.6c-0.1-0.4-0.2-0.7-0.3-1c0-0.1-0.1-0.2-0.1-0.3l0-0.1l0,0l-0.3,0h0.3l0,0l-0.3,0h0.3l0-0.2
		c0-0.2-0.1-0.4-0.2-0.7c-0.1-0.4-0.3-1-0.5-1.5c-0.2-0.5-0.3-1-0.3-1.2l0-0.1l0-0.1l0.1-0.1c0.1,0,0.3-0.1,0.5-0.1
		c0.2,0,0.5-0.1,0.7-0.1c0.5-0.1,0.8-0.2,1.2-0.3c0.3-0.1,0.6-0.2,1-0.2c0.4,0,1,0.1,1.6,0.2c0.6,0.1,1.3,0.2,2,0.3l0.1,0
		c0.7,0,1.2-0.2,1.6-0.5c0.4-0.3,0.7-0.6,1-0.8c0.1-0.1,0.1-0.1,0.2-0.2c0.1-0.1,0.1-0.2,0.1-0.4c0-0.2-0.1-0.3-0.1-0.4
		c-0.1-0.2-0.3-0.2-0.4-0.3c-0.1,0-0.3-0.1-0.4-0.1c-0.2,0-0.4,0-0.6,0.1c-0.2,0.1-0.4,0.2-0.6,0.4c-0.1,0.1-0.2,0.1-0.3,0.2
		c-0.2,0-0.4,0.1-0.6,0.1c-0.2,0-0.4,0-0.6-0.1c-0.2,0-0.4-0.1-0.5-0.1c0,0-0.2-0.1-0.3-0.3c-0.2-0.2-0.5-0.6-0.7-1
		c-0.2-0.4-0.3-0.8-0.4-1c0-0.3-0.1-0.6-0.3-0.8c-0.3-0.3-0.6-0.4-0.8-0.5c-0.2-0.1-0.4-0.2-0.6-0.4c-0.2-0.2-0.4-0.4-0.6-0.6
		c-0.2-0.1-0.5-0.2-0.8-0.2c-0.4,0-0.8,0.2-1.3,0.4c-0.2,0.1-0.3,0.2-0.4,0.3c-0.1,0.1-0.2,0.3-0.2,0.5c0,0.2,0.1,0.3,0.1,0.4
		c0.1,0.2,0.2,0.3,0.4,0.5c0.2,0.2,0.4,0.4,0.6,0.5l0.2,0.2l0,0l0,0l0,0l0,0l0,0l0,0l0.1,0l-0.1,0l0,0l0.1,0l-0.1,0l0,0l0.1,0h-0.1
		l0,0l0.1,0h-0.1l0,0c0,0-0.1,0.2-0.2,0.4c-0.2,0.3-0.6,0.7-1,1.1c-0.4,0.5-0.9,1-1.3,1.6c-0.2,0.3-0.4,0.7-0.4,1.1
		c-0.1,0.4-0.1,0.8-0.1,1.3c0,1,0.2,2.1,0.3,3c0.1,0.5,0.2,0.9,0.2,1.2c0.1,0.3,0.1,0.6,0.1,0.7l0,0l0,0l0.3,0l-0.3-0.2l-0.1,0.1
		l0.3,0l-0.3-0.2l0,0.1l0,0c0,0-0.1,0-0.3,0.1c-0.2,0-0.5,0.1-0.9,0.2c-0.1,0-0.4,0.1-0.8,0.1c-0.4,0-0.8,0-1.3,0
		c-1.1,0-2.4,0-3.5,0c-0.4,0-0.8,0-1.1,0c-0.3,0-0.6,0-0.8,0.1c-0.3,0.1-0.5,0.2-0.7,0.4c-0.2,0.2-0.2,0.5-0.2,0.7
		c0,0.4,0.1,0.7,0.3,1c0.2,0.3,0.4,0.5,0.5,0.7l0,0l0,0l0,0l0,0l0,0l0,0c0,0.1,0.1,0.2,0.1,0.4c0,0.3-0.1,0.7-0.1,1
		c0,0.2-0.1,0.3-0.1,0.4l0,0.1l0,0l0.5,0.1l0.5-0.2c0,0-0.1-0.2-0.2-0.3c-0.1-0.1-0.1-0.2-0.3-0.3c-0.1-0.1-0.3-0.2-0.5-0.2
		c-0.2,0-0.3,0.1-0.5,0.1c-0.2,0.1-0.4,0.3-0.6,0.6c-0.2,0.3-0.4,0.6-0.6,1.1c-0.5,1.3-0.7,2.2-0.7,2.9c0,0.3,0,0.5,0.1,0.7
		c0,0.1,0.1,0.2,0.2,0.3c0.1,0.1,0.3,0.2,0.4,0.2c0.1,0,0.2,0,0.3-0.1l0.2-0.2c0.1-0.2,0.2-0.3,0.3-0.5c0.2-0.3,0.4-0.6,0.5-0.8
		c0.1-0.1,0.2-0.2,0.2-0.2l0.1-0.1l0,0c0.1,0,0.3,0,0.4,0c0.5,0,1.1-0.2,1.6-0.4c0.5-0.2,1.1-0.5,1.5-0.7c0.5-0.3,1.1-0.7,1.5-1.2
		c0.5-0.5,0.9-1.1,1-1.8c0-0.3,0.1-0.5,0.1-0.6c0-0.1,0.1-0.2,0.1-0.2l0.1-0.1c0.1,0,0.2-0.1,0.4-0.1l0.1,0c0.1,0,0.3,0,0.6,0.2
		c0.4,0.2,0.9,0.4,1.4,0.7c0.5,0.3,1.1,0.6,1.6,0.9c1.4,0.8,2.9,2,3.6,3.5c0.1,0.1,0.1,0.2,0.1,0.3c0,0.2-0.1,0.5-0.3,0.8
		c-0.3,0.4-0.9,0.9-1.5,1.3c-0.6,0.4-1.2,0.8-1.6,1.2c-0.5,0.4-1.6,1.3-2.7,2c-0.6,0.4-1.2,0.7-1.8,0.9c-0.6,0.2-1.1,0.4-1.6,0.4
		l-0.2,0c-0.4,0-0.7-0.1-1-0.2c-0.4-0.2-0.7-0.6-0.9-0.9c-0.2-0.4-0.3-0.8-0.4-1.2c-0.1-0.2-0.2-0.4-0.3-0.6
		c-0.2-0.2-0.5-0.3-0.8-0.4c-0.3-0.1-0.6-0.1-0.9-0.1c-0.4,0-0.8,0.1-1.1,0.1c-0.2,0-0.3,0.1-0.5,0.2c-0.1,0.1-0.3,0.2-0.4,0.3
		c-0.1,0.2-0.1,0.3-0.1,0.4c-0.1,0.4-0.1,1-0.1,1.7c0,1.8,0.2,4.4,0.4,6c0.1,0.6,0.1,1,0.1,1.2l0,0.1l0,0l0.1,0l-0.1,0l0,0l0.1,0
		l-0.1,0l0.3,0.1l-0.2-0.3l-0.1,0.1l0.3,0.1l-0.2-0.3l0.2,0.3v-0.4l-0.2,0.1l0.2,0.3v-0.4v0.3l0.1-0.2l-0.1,0v0.3l0.1-0.2l0,0l0,0
		l0,0l0,0l0,0c0,0-0.2-0.1-0.3-0.3c-0.2-0.2-0.4-0.4-0.7-0.6c-0.6-0.5-1.2-1.2-1.7-1.8c-0.5-0.6-1-1.1-1.5-1.5
		c-0.3-0.2-0.6-0.3-0.9-0.3c-0.2,0-0.4,0.1-0.5,0.1c-0.2,0.1-0.4,0.3-0.4,0.5c-0.1,0.2-0.1,0.3-0.1,0.5l0,0.2c0,0.2,0.1,0.5,0.2,0.9
		c0.1,0.3,0.1,0.7,0.1,0.9l0,0.1l0,0l0,0l0,0l0,0l0,0l0,0l0.3,0.1l-0.2-0.2l-0.1,0.1l0.3,0.1l-0.2-0.2l0.3,0.3v-0.4l-0.3,0.1
		l0.3,0.3v-0.4v0.3l0.1-0.3l-0.1,0v0.3l0.1-0.3l0,0.1l0-0.1l0,0l0,0.1l0-0.1l-0.1-0.1c-0.3-0.2-0.8-0.7-1.6-1.3
		c-0.8-0.6-1.8-1.4-3.3-2.2c-0.8-0.5-1.4-0.8-2-1.1c-0.6-0.2-1-0.4-1.5-0.4c-0.5,0-1,0.2-1.3,0.5c-0.4,0.3-0.7,0.7-1.1,1.2
		c-0.6,0.8-1.7,1.6-3.3,2.1c-1.6,0.5-3.6,0.9-5.9,1.1c-0.3,0-0.6,0-0.9,0c-0.9,0-1.5-0.1-2-0.3c-0.3-0.1-0.5-0.3-0.6-0.4
		c-0.2-0.2-0.3-0.5-0.4-0.8c0-0.1-0.1-0.3-0.1-0.4c0-0.1-0.1-0.3-0.2-0.5c-0.3-0.4-0.8-0.7-1.3-0.7c-0.6,0-1.1,0.3-1.7,0.7
		c-0.1,0.1-0.3,0.2-0.5,0.2c-0.2,0.1-0.4,0.1-0.6,0.1c-0.3,0-0.6,0-0.8-0.1c-0.1,0-0.2,0-0.3-0.1l-0.1,0l0,0l0,0l-0.3-0.1l-1.7,2.5
		l-1.1-1l-5.4-2l-0.2-0.1l0.4-2.1l-1.5-2l-1.3,1.3l-11.5-7.2l-1.5,2.1l0,0c-1.5,3-2.5,4.7-3.2,5.6c-0.4,0.5-0.6,0.7-0.8,0.9
		c-0.1,0.1-0.2,0.1-0.2,0.1l0,0l0,0v0.1l0.1-0.1l-0.1,0v0.1l0.1-0.1l-0.2,0.2l0.2-0.1l-0.1-0.1l-0.2,0.2l0.2-0.1l-0.1-0.1l-0.1-0.1
		c0,0-0.1-0.1-0.3-0.2c-0.3-0.1-0.7-0.4-1.1-0.6c-0.2-0.1-0.4-0.2-0.5-0.3l-0.1-0.1l0,0l-0.1,0.1l0.2-0.1l0,0l-0.1,0.1l0.2-0.1
		c0,0-0.1-0.2-0.2-0.4c-0.3-0.6-0.8-1.7-1.4-2.5c-0.2-0.2-0.4-0.4-0.6-0.6c-0.5-0.3-1.1-0.7-1.8-1.1c-1.1-0.6-2.4-1.2-3.5-1.7
		c-0.6-0.3-1.1-0.5-1.5-0.7c-0.4-0.2-0.8-0.4-1-0.5c-0.3-0.1-0.4-0.3-0.5-0.4c-0.1-0.1-0.1-0.2-0.1-0.2c0-0.1,0-0.2,0.1-0.3
		c0.1-0.1,0.1-0.3,0.2-0.5l-0.3-0.1l0.2,0.3c0,0,0.1-0.1,0.1-0.2l-0.3-0.1l0.2,0.3l-0.1-0.2l0.1,0.2l0.1,0l-0.1-0.2l0.1,0.2l0,0
		l0.1,0c0.3,0,0.9,0.1,1.3,0.2c0.2,0,0.4,0.1,0.6,0.1c0.1,0,0.2,0.1,0.2,0.1l0.3,0.1l1.1-1.4l-0.4-0.3l-0.2,0.4c0,0,1.9,1,3.9,2
		c1,0.5,2,1,2.9,1.4c0.4,0.2,0.8,0.3,1.1,0.5c0.2,0.1,0.3,0.1,0.4,0.1c0.1,0,0.2,0.1,0.4,0.1l0.2,0c0.1-0.1,0.2-0.1,0.3-0.2
		c0.1-0.1,0.2-0.3,0.3-0.5c0.2-0.3,0.3-0.7,0.4-1.1c0.4-1.2,0.8-2.7,0.8-2.8l0.1-0.3l-9.3-5.9l-0.3,0.4l0.4,0.2c0,0,0.3-0.6,0.6-1.3
		c0.1-0.4,0.3-0.7,0.4-1c0.1-0.2,0.1-0.3,0.1-0.4c0-0.1,0.1-0.3,0.1-0.4c0-0.1,0-0.1,0-0.2c-0.1-0.1-0.1-0.2-0.2-0.3
		c-0.1-0.1-0.3-0.3-0.5-0.5c-0.6-0.6-1.4-1.4-2.1-2c-0.1-0.1-0.2-0.2-0.3-0.4c-0.5-0.7-1.2-2.1-1.8-3.2c-0.3-0.6-0.5-1.1-0.7-1.5
		c-0.2-0.4-0.3-0.6-0.3-0.6l-0.2-0.4l-0.4,0.1c0,0-0.3,0.1-0.6,0.2c-0.2,0.1-0.3,0.1-0.5,0.2c-0.1,0.1-0.2,0.1-0.2,0.2
		c-0.1,0.1-0.1,0.2-0.1,0.4l0,0.2c0,0.1,0.1,0.2,0.1,0.4c0.2,0.6,0.7,1.8,1.2,2.9c0.4,1.1,0.9,2.1,0.9,2.2l0.3-0.1h-0.3l0,0.1
		l0.3-0.1h-0.3h0.2l-0.2-0.1l0,0.1h0.2l-0.2-0.1l0.1,0l-0.1-0.1l0,0l0.1,0l-0.1-0.1l-0.2,0.1l-0.1,0l0,0l0,0l0,0.1l0-0.1l0,0l0,0.1
		l0-0.1l-0.1,0l-0.1,0.1c-0.3,0.2-0.7,0.4-1.1,0.5c-0.4,0.1-1,0.2-1.5,0.2c-1.6,0-3.5-0.4-5.1-0.8c-0.8-0.2-1.5-0.4-2.2-0.6
		c-0.3-0.1-0.6-0.1-0.8-0.2c-0.2,0-0.4-0.1-0.6-0.1l-0.1,0l0,0l0,0c-0.1,0-0.3,0-0.6-0.1c-0.9-0.2-2.5-0.6-3.9-1
		c-0.7-0.2-1.4-0.5-1.9-0.7c-0.3-0.1-0.5-0.2-0.7-0.3c-0.2-0.1-0.3-0.2-0.4-0.2c-0.1-0.1-0.3-0.4-0.5-0.8c-0.2-0.6-0.4-1.3-0.5-2
		c-0.1-0.3-0.1-0.7-0.2-1c-0.1-0.3-0.1-0.5-0.2-0.7c-0.1-0.3-0.2-0.8-0.3-1.3c-0.1-0.5-0.1-1-0.1-1.5c0-0.1,0-0.2,0-0.3l0,0
		c0,0,0-0.2,0.1-0.4c0.3-0.6,0.9-1.8,1.6-2.8c0.3-0.5,0.6-1,0.9-1.3c0.1-0.2,0.3-0.3,0.4-0.5c0.1-0.1,0.2-0.2,0.2-0.2
		c0.1-0.1,0.2-0.3,0.3-0.4c0.1-0.3,0.2-0.6,0.3-0.9c0.1-0.5,0.2-1.1,0.4-1.7c0.1-0.6,0.2-1.1,0.4-1.5c0.1-0.2,0.1-0.4,0.1-0.6
		c0-0.1,0-0.3-0.1-0.5l-0.2-0.2l-0.2,0c-0.2,0-0.3,0.1-0.5,0.1c-0.2,0.1-0.4,0.2-0.5,0.4c-0.2,0.2-0.3,0.3-0.4,0.5
		c-0.1,0.2-0.2,0.4-0.4,0.8c-0.2,0.5-0.6,1.1-0.9,1.8c-0.3,0.6-0.7,1.2-0.9,1.5c-0.1,0.1-0.1,0.2-0.2,0.3c-0.3,0.5-0.7,1.2-1.1,2.1
		c-0.6,1.4-1.4,3.1-1.9,4.5c-0.3,0.7-0.5,1.3-0.7,1.8c-0.1,0.2-0.2,0.4-0.2,0.6l-0.1,0.2c0,0.1,0,0.1,0,0.2l0,0.1l0.1,0.2
		c0.1,0.1,0.2,0.2,0.2,0.2c0.1,0.1,0.2,0.1,0.4,0.2c0.4,0.1,0.8,0.4,1,0.7c0,0.1,0.1,0.2,0.2,0.4c0.2,0.6,0.3,1.6,0.3,2.3
		c0,0.3,0,0.5-0.1,0.6l0,0.1l0,0l0,0l0.1,0.1l-0.1-0.1l0,0l0.1,0.1l-0.1-0.1l0.2,0.2l0-0.3l-0.1,0.1l0.2,0.2l0-0.3l0,0l0,0.1v-0.1
		l0,0l0,0.1v-0.1c0,0-0.1,0-0.2,0c-0.4-0.1-1.3-0.5-2-1c-0.4-0.2-0.7-0.4-0.9-0.6c-0.1-0.1-0.2-0.2-0.3-0.3l-0.1-0.1l0,0
		c-0.1-0.2-0.2-0.3-0.3-0.5c-0.2-0.3-0.6-0.5-1-0.8c-1.2-0.9-2.9-1.9-4.2-2.7c-0.7-0.4-1.5-0.5-2.2-0.5c-0.8,0-1.5,0.2-2.1,0.4
		c-0.3,0.1-0.5,0.2-0.7,0.3c-0.1,0.1-0.2,0.1-0.3,0.2l-0.1,0.2c0,0.1-0.1,0.2-0.1,0.3l0.1,0.3l0.2-0.1l-0.3,0l0,0.1l0.2-0.1l-0.3,0
		l0,0c0,0.1,0,0.5-0.1,0.9c-0.1,0.7-0.4,1.5-0.6,2.2c-0.1,0.3-0.2,0.6-0.3,0.9c-0.1,0.1-0.1,0.2-0.1,0.3l0,0.1l0,0l0.1,0.1l0-0.1
		l0,0l0.1,0.1l0-0.1l0,0c0,0-0.2,0.1-0.4,0.1c-0.2,0-0.4,0-0.7,0c-0.5,0-1.1-0.1-1.5-0.2c-0.2-0.1-0.4-0.1-0.4-0.2l0,0l0,0l-0.1,0.1
		h0.1l0-0.1l-0.1,0.1h0.1h-0.1l0.1,0l0,0h-0.1l0.1,0c0-0.1,0-0.2,0-0.3c0-0.3-0.1-0.6-0.2-0.9c-0.2-0.4-0.5-0.7-0.8-1.1
		c-0.3-0.3-0.6-0.6-0.8-0.8c-0.1-0.1-0.3-0.3-0.5-0.5c-0.3-0.3-0.8-0.7-1.3-1.1c-0.5-0.3-1.2-0.6-1.9-0.6c-0.2,0-0.4,0-0.7,0.1
		c-0.4,0.1-0.7,0.3-0.9,0.6c-0.3,0.4-0.5,0.9-0.5,1.5c-0.1,0.5-0.1,1.1-0.1,1.7c0,0.8,0,1.5,0,2c0,0.2,0,0.3,0,0.4l0,0.1l0,0l0.1,0
		l-0.1,0l0,0l0.1,0l-0.1,0l0.2,0.1l-0.2-0.1l0,0l0.2,0.1l-0.2-0.1l0.3,0.2l-0.2-0.2l-0.1,0.1l0.3,0.2l-0.2-0.2l0.1,0.1l-0.1-0.1l0,0
		l0.1,0.1l-0.1-0.1c0,0-0.1,0-0.2,0.1c-0.5,0.1-1.4,0.2-2.5,0.3c-1,0.1-2.2,0.1-3.1,0.1c-0.4,0-0.8,0-1.1,0c-0.1,0-0.3,0-0.3,0
		l-0.1,0l0,0l0,0.2l0.1-0.2l0,0l0,0.2l0.1-0.2l-0.1,0.3l0.3-0.2c0,0-0.1-0.1-0.2-0.1l-0.1,0.3l0.3-0.2l-0.2,0.1l0.2-0.1l0,0
		l-0.2,0.1l0.2-0.1l-0.1,0l0.1,0l0,0l-0.1,0l0.1,0l0,0c0-0.1-0.1-0.3-0.1-0.5c-0.1-0.9-0.2-2.4-0.3-3.8c0-0.7,0-1.3-0.1-1.8
		c0-0.2,0-0.5,0-0.6c0-0.2,0-0.3,0-0.4c0-0.1,0-0.2-0.1-0.3c-0.1-0.1-0.2-0.2-0.3-0.3c-0.1,0-0.2-0.1-0.3-0.1
		c-0.3,0-0.6,0.1-0.9,0.2c-0.1,0.1-0.3,0.1-0.4,0.2c-0.1,0.1-0.2,0.1-0.3,0.3l0,0c-0.1,0.1-0.1,0.1-0.1,0.2l0,0.2l0,0.1
		c0,0.4,0.1,1,0.2,1.8c0.1,1.2,0.3,2.7,0.5,4c0.1,0.6,0.2,1.2,0.2,1.7c0,0.2,0,0.4,0.1,0.6c0,0.1,0,0.3,0,0.3l-0.1,0.1
		c-0.1,0.1-0.2,0.3-0.3,0.4c-0.2,0.1-0.3,0.2-0.4,0.2c-0.1,0-0.1,0-0.2-0.1c-0.1-0.1-0.3-0.2-0.5-0.3c-0.3-0.1-0.6-0.3-1-0.4
		c-0.6-0.3-1.2-0.6-1.7-1.1c-0.5-0.5-0.9-1.1-1.2-2c-0.3-1.2-0.8-2.4-1.5-3.4c-0.3-0.5-0.7-0.9-1-1.2c-0.2-0.2-0.3-0.3-0.5-0.4
		c-0.2-0.1-0.4-0.2-0.6-0.2c-0.2,0-0.4,0.1-0.5,0.2c-0.2,0.2-0.4,0.4-0.4,0.7c-0.1,0.3-0.1,0.6-0.1,0.9c0,0.1,0,0.2,0,0.3
		c0.1,2,0.3,3.2,0.6,4c0.3,0.8,0.6,1.2,0.8,1.5c0.1,0.1,0.2,0.2,0.3,0.3c0.4,0.4,1,1,1.5,1.5c0.3,0.3,0.5,0.5,0.7,0.7
		c0.1,0.1,0.2,0.2,0.2,0.3l0.1,0.1l0,0l0,0l0,0l0.4-0.2h-0.4l0,0.2l0.4-0.2h-0.4h0.3l-0.3-0.1l0,0.1h0.3l-0.3-0.1l0.1,0l-0.1,0l0,0
		l0.1,0l-0.1,0c0,0-0.1,0.2-0.3,0.3c-0.3,0.3-0.8,0.7-1.3,1.1c-0.8,0.6-1.8,1.4-2.6,2c-0.8,0.6-1.5,1-1.6,1.1l0,0l0.1,0.1v-0.2
		l-0.1,0l0.1,0.1v-0.2v0.1l0-0.1l0,0v0.1l0-0.1l0,0c0,0-0.1-0.1-0.2-0.2c-0.1-0.2-0.3-0.4-0.5-0.6c-0.1-0.1-0.2-0.2-0.3-0.3
		l-0.2-0.1c-0.1,0-0.2-0.1-0.3-0.1l0,0l-0.1,0c-0.1,0-0.2,0-0.2,0c-0.1,0-0.2,0.1-0.4,0.2c-0.4,0.2-1,0.6-1.5,1
		c-0.3,0.2-0.5,0.3-0.7,0.4c-0.1,0.1-0.2,0.1-0.2,0.1l0,0l0,0.1l0-0.1l0,0l0,0.1l0-0.1l0,0.3v-0.3l0,0l0,0.3v-0.3v0.4l0.1-0.3
		l-0.1,0v0.4l0.1-0.3l0,0l-0.1,0.3l0.2-0.3c0,0,0,0-0.1,0l-0.1,0.3l0.2-0.3l0,0l0,0l0,0l0,0l0,0l-0.1-0.1c-0.2-0.2-0.7-0.7-1.2-1.2
		c-0.7-0.8-1.7-1.9-2.4-2.8c-0.4-0.4-0.7-0.9-0.9-1.2c-0.1-0.2-0.2-0.3-0.2-0.4l0-0.1l0,0l-0.3,0.1h0.3l0-0.1l-0.3,0.1h0.3h-0.4
		l0.4,0.2c0.1-0.1,0.1-0.2,0.1-0.2h-0.4l0.4,0.2l0,0c0,0,0.1-0.1,0.2-0.2c0.1-0.2,0.3-0.4,0.5-0.6c0.1-0.1,0.2-0.2,0.2-0.4
		c0.1-0.1,0.1-0.3,0.1-0.5c0-0.1,0-0.3-0.1-0.4c-0.2-0.2-0.4-0.5-0.7-0.8c-0.3-0.3-0.6-0.6-1-0.9c-0.2-0.2-0.4-0.2-0.6-0.2
		c-0.2,0-0.4,0.1-0.6,0.2c-0.2,0.1-0.4,0.3-0.6,0.4l-0.2,0.1l0,0l0,0l0,0.1v-0.1l0,0l0,0.1v-0.1v0.2l0-0.2l0,0v0.2l0-0.2l0,0.1
		l0-0.1l0,0l0,0.1l0-0.1l0,0c0,0-0.1-0.1-0.2-0.2c-0.1-0.1-0.3-0.4-0.3-0.6c-0.1-0.2-0.1-0.4-0.1-0.4l0,0l-0.2,0l0.1,0.1l0-0.1
		l-0.2,0l0.1,0.1l-0.1-0.1l0.1,0.1l0,0l-0.1-0.1l0.1,0.1c0,0,0.1-0.1,0.2-0.2c0.3-0.4,1-1.1,1.8-1.9c0.7-0.8,1.5-1.5,2-1.9
		c0.4-0.4,0.8-0.9,1.2-1.4c0.2-0.3,0.3-0.5,0.4-0.8c0.1-0.3,0.2-0.5,0.2-0.8c0-0.2,0-0.4-0.1-0.5c-0.1-0.2-0.2-0.3-0.4-0.4
		c-0.1-0.1-0.3-0.1-0.5-0.1c-0.2,0-0.4,0.1-0.5,0.1c-0.3,0.1-0.4,0.4-0.6,0.6c-0.3,0.4-0.6,0.8-1,1.3c-0.4,0.5-0.9,1.1-1.4,1.7
		c-0.4,0.4-0.8,0.7-1,0.9c-0.2,0.2-0.4,0.2-0.4,0.2l-0.1,0c0,0-0.1-0.1-0.2-0.2c-0.1-0.1-0.2-0.2-0.4-0.3c-0.1,0-0.2-0.2-0.4-0.3
		c-0.3-0.3-0.5-0.6-0.8-0.9c-0.1-0.2-0.2-0.3-0.3-0.4l-0.1-0.1l0,0l0,0l0,0l0,0l0,0l0,0l-0.1,0h0.1l0,0l-0.1,0h0.1h-0.3l0.3,0.1
		l0-0.1h-0.3l0.3,0.1l-0.3-0.1l0.2,0.1l0-0.1l-0.3-0.1l0.2,0.1l0.1-0.1c0.2-0.2,0.5-0.6,0.9-1c0.6-0.7,1.4-1.5,2-2.2
		c0.3-0.4,0.6-0.7,0.8-1c0.1-0.2,0.2-0.3,0.3-0.4c0.1-0.1,0.1-0.3,0.1-0.5l0-0.2c-0.2-0.4-0.4-0.7-0.6-0.9c-0.3-0.2-0.5-0.4-0.9-0.7
		c-0.2-0.1-0.3-0.2-0.5-0.2c-0.1,0-0.3,0-0.4,0.1c-0.2,0.1-0.3,0.2-0.4,0.4c-0.2,0.2-0.3,0.4-0.4,0.6c-0.1,0.2-0.3,0.5-0.5,0.7
		c-0.4,0.5-1,1.2-1.7,1.8c-0.3,0.3-0.6,0.6-0.9,0.8c-0.3,0.2-0.5,0.3-0.6,0.3l0,0c0,0-0.1,0-0.3-0.1c-0.3-0.1-0.7-0.4-1.1-0.8
		c-0.6-0.5-1.2-1.2-1.8-1.7c-0.3-0.3-0.5-0.5-0.6-0.7l-0.2-0.2l-0.1-0.1l-0.1-0.1l0,0c-0.1-0.1-0.2-0.1-0.3-0.1
		c-0.1,0-0.2,0-0.3,0.1c-0.1,0.1-0.1,0.1-0.2,0.2c-0.1,0.1-0.2,0.2-0.3,0.3c-0.3,0.5-0.8,1.2-1.2,1.8c-0.4,0.6-0.7,1.2-0.7,1.2
		l-0.2,0.3l5.1,7.8l0.4-0.3l-0.4,0.2c0,0,1,2,2.1,4.2c0.6,1.1,1.1,2.1,1.7,3c0.3,0.4,0.5,0.8,0.7,1.1c0.1,0.1,0.2,0.3,0.3,0.4
		c0.1,0.1,0.2,0.2,0.4,0.3c0.3,0.1,0.6,0.4,0.7,0.8c0.2,0.4,0.3,0.9,0.3,1.5c0,0.3,0,0.7-0.1,1c-0.1,0.4-0.2,0.7-0.5,1
		c-0.3,0.5-0.8,0.9-1.2,1.1c-0.2,0.1-0.4,0.2-0.5,0.3l-0.1,0.1l0,0l0,0l0.2,0.4l0-0.5c0,0-0.6,0-1.5,0.1c-2.8,0.1-8.9,0.4-11.7,0.4
		c-0.9,0-1.6,0-2-0.1c-0.3-0.1-0.5-0.1-0.7-0.3c-0.3-0.2-0.6-0.6-1-1.3c-0.4-0.7-1.1-1.7-2-3c-1.5-2.1-1.9-3.6-1.9-4.6
		c0-0.6,0.1-1.1,0.3-1.4c0.1-0.2,0.1-0.3,0.2-0.4l0.1-0.1l0-0.1l0-0.1v0l-0.3-0.1l0.3,0.1l0,0l-0.3-0.1l0.3,0.1c0,0,0.1-0.2,0.1-0.4
		c0.6-1.6,2.9-8,5.2-14c1.1-3,2.2-5.9,3-8.1c0.4-1.1,0.8-2,1-2.7c0.1-0.3,0.2-0.6,0.3-0.8c0-0.1,0.1-0.2,0.1-0.2l0-0.1l0,0l0,0
		c0-0.1,0.1-0.2,0.2-0.4c0.2-0.7,0.6-1.9,1-3.1c0.2-0.6,0.4-1.2,0.5-1.6c0.1-0.2,0.1-0.4,0.2-0.6c0.1-0.2,0.1-0.3,0.1-0.3
		c0.1-0.3,0.2-0.5,0.3-0.8c0.1-0.5,0.1-1,0.2-1.4c0-0.5,0.1-0.9,0.1-1.1c0-0.1,0.1-0.1,0.1-0.2l0.1,0c0.1-0.1,0.5-0.2,0.9-0.6l0,0
		c0.1-0.1,0.2-0.4,0.2-0.6c0-0.1,0-0.3-0.1-0.4c-0.1-0.2-0.2-0.3-0.4-0.4c-0.2-0.2-0.4-0.3-0.6-0.4c-0.2-0.1-0.4-0.3-0.5-0.3
		l-0.1-0.2c0-0.1,0-0.2,0-0.3c0-0.4,0.2-0.9,0.3-1.3c0.1-0.2,0.3-0.6,0.6-0.9c0.3-0.3,0.6-0.6,0.7-0.8l0,0l0,0l0.1-0.2l0.1-0.1
		l-0.7-0.6L82.5,246.3z M375.9,256.1v0.5h0.1L375.9,256.1l-0.1,0.5c0.5,0.2,1,0.4,1.4,0.6c0.4,0.2,0.8,0.4,1.2,0.4
		c0.3,0,0.6,0.1,0.6,0.1l0,0l0,0l0,0l0,0l0,0l0,0l0.1-0.2l-0.2,0.1l0.1,0.1l0.1-0.2l-0.2,0.1l0.2-0.1h-0.2l0,0.1l0.2-0.1h-0.2h0.1
		l-0.1,0l0,0h0.1l-0.1,0l0,0.1c-0.1,0.3-0.2,0.8-0.4,1.3c-0.1,0.2-0.1,0.5-0.2,0.6l-0.1,0.2l0,0.2c0,0-0.1,0.2-0.1,0.5
		c-0.1,0.4-0.2,0.9-0.4,1.3c-0.1,0.2-0.1,0.4-0.2,0.6c0,0.2-0.1,0.3-0.1,0.4c0,0,0,0.1-0.1,0.2c-0.1,0.2-0.2,0.4-0.3,0.6
		c-0.1,0.2-0.3,0.3-0.3,0.4c-0.1,0-0.3,0.1-0.5,0.2c-0.4,0.1-0.9,0.3-1.3,0.4c-0.2,0.1-0.4,0.1-0.6,0.2c-0.2,0.1-0.3,0.1-0.4,0.1
		c-0.2,0.1-0.6,0.3-1.1,0.4c-0.2,0.1-0.5,0.2-0.7,0.2c-0.1,0-0.2,0.1-0.3,0.1l-0.1,0l0,0v0.3l0.1-0.3c-0.1,0-0.1,0-0.1,0v0.3
		l0.1-0.3c-0.1-0.1-0.2-0.1-0.3-0.1l-0.1,0l0,0l-0.1,0.2l0.2-0.1l-0.1-0.1l-0.1,0.2l0.2-0.1l-0.2,0.2l0.3-0.1l0-0.1l-0.2,0.2
		l0.3-0.1l-0.1,0h0.1l0,0l-0.1,0h0.1l0-0.1c0-0.1,0.1-0.2,0.1-0.4c0.5-1.1,1.7-3.8,2-4.4c0-0.1,0.2-0.3,0.3-0.6
		c0.2-0.4,0.5-0.9,0.8-1.4c0.3-0.5,0.5-0.9,0.6-1.2c0.1-0.3,0.2-0.6,0.4-0.8c0.1-0.1,0.1-0.2,0.2-0.3l0-0.1l0,0l0,0l0,0l0,0l0,0
		l-0.1-0.2l0.1,0.2l0,0l-0.1-0.2l0.1,0.2L375.9,256.1v0.5V256.1l-0.2-0.4c-0.2,0.1-0.2,0.2-0.3,0.3c-0.1,0.2-0.2,0.4-0.3,0.6
		c-0.1,0.2-0.2,0.4-0.3,0.7c0,0.1-0.2,0.4-0.3,0.6c-0.2,0.4-0.5,0.9-0.8,1.4c-0.3,0.5-0.5,0.9-0.6,1.1c-0.3,0.6-1.5,3.3-2,4.4
		c-0.2,0.4-0.3,0.6-0.3,0.9c0,0.2,0,0.3,0.2,0.5c0.1,0.1,0.2,0.2,0.3,0.2c0.1,0.1,0.2,0.1,0.3,0.1l0.1,0l0,0l0-0.1l-0.1,0.1l0,0
		l0-0.1l-0.1,0.1c0.1,0.1,0.2,0.1,0.3,0.1c0.1,0,0.2,0,0.3,0c0.4-0.1,0.8-0.2,1.3-0.4c0.4-0.2,0.8-0.3,0.9-0.4
		c0.1,0,0.2-0.1,0.5-0.2c0.4-0.1,0.8-0.3,1.3-0.4c0.2-0.1,0.4-0.2,0.6-0.2c0.2-0.1,0.3-0.1,0.5-0.2c0.2-0.1,0.3-0.3,0.5-0.4
		c0.2-0.2,0.3-0.5,0.5-0.8c0.1-0.3,0.2-0.5,0.3-0.7c0,0,0.1-0.2,0.1-0.5c0.1-0.4,0.2-0.9,0.4-1.3c0.1-0.2,0.1-0.4,0.2-0.6
		c0-0.2,0.1-0.3,0.1-0.3l0-0.1c0.1-0.3,0.3-0.8,0.4-1.3c0.1-0.2,0.2-0.5,0.2-0.7c0-0.1,0.1-0.2,0.1-0.3c0-0.1,0-0.2,0-0.3
		c0-0.2,0-0.4-0.2-0.5c-0.1-0.1-0.2-0.2-0.3-0.2c-0.2-0.1-0.3-0.1-0.4-0.1c-0.1,0-0.3,0-0.5,0c-0.2,0-0.5-0.1-0.9-0.3
		c-0.4-0.2-0.9-0.4-1.5-0.6l-0.1,0h-0.2h-0.1l-0.1,0.1L375.9,256.1z M161,271.6l0,0.5c0.1,0,0.3,0,0.5,0.1c0.6,0.1,1.5,0.4,2.2,0.5
		c0.5,0.1,1.8,0.2,3,0.4c0.6,0.1,1.2,0.2,1.7,0.3c0.2,0,0.4,0.1,0.6,0.1l0.2,0.1l0,0l0,0l0.1-0.1l-0.1,0.1l0,0l0.1-0.1l-0.1,0.1
		c0.2,0.2,0.4,0.3,0.5,0.4c0.1,0.1,0.1,0.2,0.1,0.4l0,0.2c-0.1,0.9-0.1,1.5-0.4,2.6c-0.1,0.4-0.1,0.7-0.1,1c0,0.3,0,0.5,0.1,0.7
		c0.1,0.2,0.2,0.4,0.3,0.7c0.2,0.4,0.3,0.8,0.3,1.3c0,0.3,0,0.6-0.1,0.9c0,0.2-0.1,0.4-0.1,0.6c0,0.3,0.1,0.6,0.1,0.8
		c0.1,0.2,0.1,0.3,0.1,0.4l0,0l0.3,0.1l-0.2-0.2l-0.1,0.2l0.3,0.1l-0.2-0.2l0.1,0.2l-0.1-0.2l0,0l0.1,0.2l-0.1-0.2l0,0.1l0-0.1l0,0
		l0,0.1l0-0.1c0,0-0.1,0-0.3,0c-0.3,0-0.7-0.1-1.1-0.1c-0.4-0.1-0.8-0.1-1-0.2c-0.1,0-0.3-0.1-0.5-0.2c-0.4-0.2-0.8-0.4-1.3-0.7
		c-0.4-0.3-0.8-0.6-1-0.8c-0.3-0.3-0.5-0.6-0.7-0.9c-0.2-0.3-0.3-0.6-0.6-0.8c-0.1-0.1-0.2-0.2-0.3-0.3c-0.4-0.3-1-0.8-1.7-1.2
		c-0.3-0.2-0.7-0.4-0.9-0.6c-0.1-0.1-0.3-0.1-0.4-0.2c-0.1-0.1-0.3-0.1-0.4-0.1l-0.1,0l0,0.1l0,0l0,0l0,0.1l0,0l0,0l0.1,0l0,0l0,0
		l0.1,0l0,0c0,0,0-0.2,0-0.3c0-0.2,0-0.4,0-0.6l0-0.1c0-0.3,0.1-0.8,0.2-1.3c0.1-0.5,0.3-1.1,0.4-1.5c0.2-0.4,0.3-0.8,0.4-1.1
		c0.1-0.1,0.1-0.2,0.2-0.3l0,0l0,0l0-0.1l0,0.1l0,0l0-0.1l0,0.1l0,0l-0.1-0.2l0,0.3l0.1,0l-0.1-0.2l0,0.3l0,0l0,0l0,0l0.5,0v-0.5
		H161l0,0.5L161,271.6h-0.5v0L161,271.6l0-0.5l-0.1,0c-0.1,0-0.2,0-0.3,0.1l0,0c-0.2,0.1-0.3,0.2-0.4,0.3c-0.2,0.2-0.3,0.4-0.4,0.7
		c-0.1,0.3-0.2,0.6-0.3,0.9c-0.2,0.4-0.3,1-0.4,1.6c-0.1,0.6-0.2,1.1-0.2,1.5l0,0.2c0,0.1,0,0.3,0,0.4c0,0.2,0,0.5,0.1,0.8
		c0.1,0.1,0.2,0.3,0.3,0.4c0.2,0.1,0.3,0.2,0.5,0.2l0,0l0,0l0,0l0,0l0,0c0,0,0.1,0,0.2,0.1c0.4,0.2,1.1,0.6,1.7,1
		c0.3,0.2,0.6,0.4,0.8,0.6c0.1,0.1,0.2,0.2,0.3,0.2l0.1,0.1c0.1,0.1,0.3,0.4,0.5,0.7c0.2,0.3,0.5,0.7,0.8,1.1
		c0.2,0.2,0.4,0.4,0.7,0.6c0.4,0.3,0.9,0.6,1.4,0.9c0.2,0.1,0.4,0.2,0.6,0.3c0.2,0.1,0.4,0.2,0.6,0.2c0.2,0,0.6,0.1,1,0.2
		c0.4,0.1,0.9,0.1,1.3,0.1c0.2,0,0.4,0,0.5-0.1c0.1,0,0.2-0.1,0.3-0.1c0.1-0.1,0.2-0.2,0.2-0.3c0-0.1,0-0.2,0-0.3
		c0-0.3-0.1-0.5-0.1-0.6c0-0.2-0.1-0.4-0.1-0.6c0-0.1,0-0.2,0-0.4c0.1-0.4,0.1-0.7,0.1-1.1c0-0.6-0.1-1.1-0.3-1.7
		c-0.1-0.2-0.2-0.4-0.2-0.6c0-0.2-0.1-0.3-0.1-0.5c0-0.2,0-0.5,0.1-0.8c0.3-1.1,0.3-1.9,0.4-2.6c0-0.1,0-0.2,0-0.3
		c0-0.4-0.1-0.8-0.4-1c-0.2-0.3-0.5-0.4-0.7-0.6l-0.2-0.1c-0.1-0.1-0.3-0.1-0.5-0.2c-0.7-0.2-1.8-0.3-2.8-0.5
		c-1-0.1-1.9-0.2-2.3-0.3c-0.4,0-0.9-0.2-1.4-0.3c-0.3-0.1-0.5-0.1-0.7-0.2c-0.2,0-0.4-0.1-0.6-0.1l-0.5,0v0.5H161z M129.2,281.4
		l0.1-0.5l-0.1,0c-0.1,0-0.2,0-0.2,0l0,0c-0.1,0-0.3,0.1-0.4,0.2c-0.3,0.2-0.5,0.4-0.8,0.6c-0.1,0.1-0.2,0.3-0.3,0.4
		c-0.1,0.2-0.1,0.4-0.1,0.6c0,0.1,0,0.2,0,0.3c0.2,0.6,0.3,1.1,0.5,1.7c0.1,0.2,0.2,0.4,0.3,0.7c0.2,0.4,0.5,0.9,0.8,1.3
		c0.2,0.2,0.3,0.4,0.5,0.5c0.1,0.1,0.2,0.1,0.3,0.2c0.1,0.1,0.2,0.1,0.4,0.1c0.2,0,0.4,0,0.7,0.1c0.2,0,0.4,0,0.6-0.1
		c0.2-0.1,0.4-0.3,0.5-0.6c0.1-0.2,0.2-0.4,0.3-0.6c0.1-0.2,0.1-0.5,0.1-0.7c0-0.4-0.1-0.7-0.3-1.2c-0.3-0.5-0.7-1.1-1.1-1.7
		c-0.4-0.5-0.7-1-0.7-1l-0.4,0.3l0.4-0.2c0,0-0.1-0.2-0.3-0.4c-0.1-0.1-0.2-0.2-0.3-0.3c-0.1-0.1-0.3-0.2-0.5-0.2l-0.6-0.1v0.6
		H129.2l0.1-0.5L129.2,281.4h0.5v0L129.2,281.4l-0.1,0.5l0.1,0l0.2,0.2l0.1,0.1l0,0l0,0l0.1-0.1l-0.1,0.1l0,0l0.1-0.1l-0.1,0.1l0,0
		l0,0c0,0,0.1,0.1,0.2,0.3c0.4,0.5,1.1,1.6,1.5,2.3c0.2,0.3,0.2,0.5,0.2,0.7c0,0.1,0,0.2-0.1,0.4c-0.1,0.1-0.1,0.3-0.2,0.5
		c-0.1,0.1-0.1,0.1-0.1,0.2c0,0-0.1,0-0.2,0c-0.2,0-0.4,0-0.7-0.1v0.2l0.1-0.2l-0.1,0v0.2l0.1-0.2l0,0l0,0l0,0l0,0l0,0
		c0,0-0.2-0.1-0.3-0.3c-0.2-0.3-0.5-0.6-0.7-1c-0.1-0.2-0.2-0.4-0.3-0.5c-0.1-0.1-0.1-0.3-0.1-0.3c-0.2-0.6-0.3-1.1-0.5-1.7l0-0.1
		l0-0.1c0-0.1,0.1-0.2,0.3-0.3c0.1-0.1,0.3-0.3,0.5-0.4l0,0l0,0l0,0l0,0l0,0l0,0l0,0l0,0l0,0l0,0l0,0l0,0v0h0l0,0v0v-0.2l0,0.2l0,0
		v-0.2l0,0.2l0.6,0.1v-0.6H129.2z M143.1,282.4l0-0.5c-0.2,0-0.4,0.1-0.6,0.1c-0.2,0-0.3,0.1-0.4,0.2c-0.4,0.2-0.8,0.5-0.8,0.5
		l-0.4,0.3l0.3,0.4c0,0,0.2,0.3,0.5,0.6c0.3,0.3,0.7,0.7,1.2,1c0.3,0.2,0.7,0.6,1,0.9c0.2,0.2,0.3,0.4,0.5,0.5
		c0.1,0.1,0.2,0.1,0.3,0.2c0.1,0.1,0.2,0.1,0.4,0.1l0.3-0.1l0,0c0.2-0.1,0.3-0.2,0.4-0.3c0.2-0.2,0.3-0.4,0.5-0.6
		c0.1-0.1,0.1-0.2,0.2-0.3c0-0.1,0.1-0.2,0.1-0.4c0-0.2,0-0.3-0.1-0.4c-0.1-0.3-0.3-0.7-0.3-0.7l-0.1-0.2l-1.6-0.3h0v0.1l0-0.1l0,0
		v0.1l0-0.1l0,0c0,0,0,0,0-0.1c0-0.2,0-0.4-0.1-0.6c0-0.1,0-0.2-0.1-0.4c-0.1-0.1-0.2-0.3-0.3-0.4c-0.2-0.1-0.5-0.2-0.7-0.2l-0.1,0
		L143.1,282.4h0.5v-0.5l-0.5,0L143.1,282.4h-0.5v0.5l0.5,0l0.1,0l0.1,0l0,0l0,0l0,0l0,0l0,0l0,0l0,0l0.1-0.1l-0.1,0l0,0l0.1-0.1
		l-0.1,0l0,0c0,0,0,0.1,0,0.2c0,0.1,0,0.3,0.1,0.5c0,0.2,0.1,0.4,0.2,0.5c0.1,0.2,0.3,0.3,0.5,0.4c0.1,0,0.3,0.1,0.3,0.1V284
		l-0.1,0.5l1.3,0.3l0.1-0.5l-0.4,0.2l0,0c0,0.1,0.1,0.2,0.2,0.3l0.1,0.2l0,0.1l0,0l0.1,0h-0.1l0,0l0.1,0h-0.1h0.2l-0.2,0l0,0h0.2
		l-0.2,0l0,0l0,0l0,0l0,0l0,0l-0.1,0.2c-0.1,0.1-0.2,0.3-0.3,0.4c-0.1,0.1-0.2,0.2-0.2,0.2l0,0l0.2,0.3l0-0.3l-0.2,0l0.2,0.3l0-0.3
		v0.3l0.1-0.2l-0.1,0v0.3l0.1-0.2l0,0.1l0-0.1l0,0l0,0.1l0-0.1c0,0-0.1-0.1-0.2-0.2c-0.2-0.2-0.4-0.4-0.7-0.7
		c-0.3-0.3-0.6-0.5-0.9-0.7c-0.4-0.2-0.7-0.6-1-0.9c-0.1-0.1-0.3-0.3-0.3-0.4l-0.1-0.1l0,0l0,0l-0.4,0.3l0.3,0.4l0,0
		c0.1,0,0.2-0.2,0.4-0.3l0.3-0.1l0.2-0.1c0.2,0,0.3-0.1,0.4-0.1L143.1,282.4h-0.5H143.1z M123.7,292.9v-0.5c-0.1,0-0.2,0-0.3,0.1
		c-0.2,0.1-0.3,0.2-0.4,0.3c-0.2,0.2-0.3,0.3-0.4,0.5c-0.1,0.2-0.3,0.3-0.4,0.4l-0.1,0.1c-0.2,0.1-0.6,0.4-1.1,0.7
		c-0.7,0.5-1.7,1.1-2.6,1.6c-0.4,0.2-0.8,0.5-1.1,0.6c-0.2,0.1-0.3,0.2-0.4,0.2c-0.1,0.1-0.2,0.1-0.2,0.1c-0.2,0.1-0.4,0.1-0.6,0.1
		c-0.3,0-0.7-0.1-1.2-0.1c-0.1,0-0.3,0-0.5,0c-0.6,0-1,0.2-1.4,0.4c-0.4,0.2-0.6,0.5-0.9,0.8c-0.2,0.2-0.4,0.5-0.7,0.8
		c-0.4,0.5-0.9,1.2-1.5,1.8c-0.6,0.6-1.2,1.2-1.8,1.5c-0.5,0.3-1.2,0.8-2.1,1.5c-1.3,1-3,2.3-4.4,3.4c-0.7,0.5-1.4,1.1-1.9,1.4
		c-0.3,0.2-0.5,0.4-0.7,0.5c-0.2,0.1-0.3,0.2-0.4,0.3c-0.4,0.2-0.7,0.5-1,0.8c-0.4,0.5-0.7,1.1-0.8,1.6c-0.1,0.3-0.2,0.5-0.2,0.7
		c-0.1,0.2-0.1,0.3-0.1,0.4c0,0.1-0.1,0.2-0.1,0.3c0,0.3,0.1,0.5,0.2,0.6c0.2,0.2,0.4,0.5,0.6,0.7c0.2,0.2,0.5,0.4,0.7,0.6
		c0.3,0.3,0.9,0.9,1.4,1.6c0.3,0.3,0.5,0.6,0.7,0.8c0.1,0.1,0.1,0.2,0.2,0.3l0,0.1l0.1-0.1l-0.2,0l0,0l0.1-0.1l-0.2,0l0.4-0.1h-0.4
		l0,0.1l0.4-0.1h-0.4l0,0.1l0.1,0.2c0.1,0.2,0.2,0.5,0.5,0.9c0.8,1.6,2.5,4.7,4.1,7.4c0.8,1.4,1.5,2.7,2,3.7
		c0.3,0.5,0.5,0.9,0.7,1.2c0.1,0.2,0.2,0.3,0.2,0.4l0.1,0.2c0.1,0.1,0.1,0.2,0.2,0.3c0.1,0.1,0.3,0.2,0.4,0.2c0.3,0.1,0.6,0.2,1,0.2
		c1.1,0.2,2.5,0.3,3.1,0.3l0.2,0l0.1,0l0.1,0l0,0l0.1,0c0.2-0.1,0.9-0.4,1.9-0.8c1.4-0.6,3.5-1.5,5.2-2.2c0.9-0.4,1.6-0.7,2.2-0.9
		c0.3-0.1,0.5-0.2,0.7-0.3c0.1,0,0.2-0.1,0.2-0.1l0.1,0c0.3-0.1,0.7-0.3,1.1-0.7c0.4-0.4,0.6-1,0.6-1.8c0-0.1,0-0.3,0-0.4
		c-0.1-0.9-0.4-1.9-0.8-2.7c-0.3-0.8-0.7-1.5-0.7-1.6l-0.1-0.1l-0.2-0.2c-0.3-0.2-0.8-0.6-1.3-1.1c-0.9-0.7-2-1.5-2.9-2.2
		c-0.5-0.3-0.9-0.6-1.1-0.9c-0.1-0.1-0.3-0.2-0.3-0.3l-0.1-0.1l0,0l0,0l-0.2,0.2l0.3-0.2l0,0l-0.2,0.2l0.3-0.2c0,0-0.1-0.1-0.1-0.2
		c-0.1-0.2-0.2-0.4-0.2-0.6c0-0.1-0.1-0.2-0.1-0.3l0-0.1l0,0l0,0l-0.1,0h0.1l0,0l-0.1,0h0.1h-0.4l0.4,0.1c0,0,0,0,0-0.1h-0.4
		l0.4,0.1l-0.1-0.1l0.1,0.1l0,0l-0.1-0.1l0.1,0.1c0,0,0.1-0.1,0.1-0.2c0.3-0.4,0.9-1.2,1.4-1.9c0.3-0.4,0.5-0.7,0.8-1
		c0.1-0.1,0.2-0.2,0.3-0.3l0.1-0.2c0.1-0.1,0.2-0.1,0.3-0.2c0.1-0.1,0.2-0.1,0.3-0.1c0.2,0,0.3,0,0.5,0.2c0.3,0.3,0.8,0.7,1.2,1
		c0.4,0.4,0.9,0.7,1.2,0.9c0.2,0.1,0.5,0.2,0.8,0.3c0.4,0.1,0.9,0.2,1.3,0.2c0.2,0,0.4,0.1,0.5,0.1c0.1,0,0.3,0.1,0.3,0.1l0-0.1
		l0,0.1l0,0l0-0.1l0,0.1c0,0,0.1,0.1,0.1,0.2c0.1,0.2,0.2,0.5,0.3,0.8c0.1,0.3,0.2,0.7,0.4,1c0.1,0.2,0.2,0.7,0.3,1.3
		c0.2,0.9,0.4,2,0.5,3.1c0.1,0.5,0.1,1,0.2,1.4c0,0.4,0.1,0.7,0.1,0.9c0,0.2,0.1,0.4,0.1,0.6c0.2,0.3,0.4,0.6,0.6,0.8
		c0.4,0.3,0.8,0.6,1.2,0.8c0.2,0.1,0.4,0.2,0.5,0.3l0.2,0.1l0.1,0l0.1,0l0.1,0c0.1,0,0.2-0.1,0.4-0.1c1-0.4,3.8-1.8,4.1-1.9l0.1-0.1
		c0.5-0.2,2.3-1,3.9-1.7c0.8-0.4,1.6-0.7,2.2-1c0.3-0.1,0.6-0.3,0.8-0.4c0.1,0,0.2-0.1,0.2-0.1l0.1-0.1c0,0,0.1,0,0.1-0.1
		c0.1-0.2,0.2-0.4,0.2-0.6c0.1-0.2,0.1-0.5,0.1-0.7c0-0.2,0-0.4-0.1-0.6c-0.1-0.4-0.4-0.6-0.7-0.8c-0.3-0.2-0.7-0.5-1.1-0.7
		c-0.5-0.3-1-0.6-1.5-0.8c-0.2-0.1-0.4-0.2-0.6-0.3l-0.2-0.1l0,0l0,0l0,0.1l0.1-0.1l0,0l0,0.1l0.1-0.1l-0.2-0.2
		c-0.2-0.2-0.7-0.6-1.1-0.9c-0.2-0.2-0.4-0.4-0.5-0.5c-0.1-0.1-0.2-0.3-0.3-0.3c-0.1-0.1-0.1-0.2-0.1-0.3c0-0.1,0-0.2,0.1-0.3
		c0.1-0.1,0.1-0.2,0.3-0.4l-0.1-0.1l0,0.1l0,0l-0.1-0.1l0,0.1l0,0l0,0l0,0l0,0l0,0l0,0l0.1,0c0.2,0,0.7,0.1,1.3,0.4
		c0.6,0.2,1.3,0.6,2,1c2,1.1,4.4,2.2,4.4,2.2l0.2-0.4l-0.3,0.4c0,0,0.6,0.5,1.4,1c0.4,0.3,0.8,0.5,1.1,0.7c0.2,0.1,0.4,0.2,0.5,0.2
		c0.2,0.1,0.3,0.1,0.5,0.1c0.1,0,0.3,0,0.4-0.1l0,0l0,0c0.2-0.1,0.3-0.3,0.5-0.4c0.5-0.5,1.2-1.2,2.6-1.9c0.7-0.4,1.2-0.6,1.4-0.8
		c0.1-0.1,0.2-0.2,0.3-0.3c0.1-0.1,0.1-0.3,0.1-0.4l0-0.2l0,0l-0.1,0l0.1,0l0,0l-0.1,0l0.1,0l0-0.2c-0.1-0.2-0.1-0.3-0.3-0.5
		c-0.2-0.3-0.4-0.5-0.7-0.8c-0.1-0.1-0.3-0.2-0.4-0.3c-0.1-0.1-0.3-0.2-0.4-0.2l0,0.1l0.1-0.1l0,0l0,0.1l0.1-0.1l0,0
		c0,0-0.1-0.1-0.2-0.3c-0.1-0.2-0.2-0.5-0.3-0.8c0-0.1-0.1-0.3-0.1-0.4l-0.1-0.2l-0.1-0.2l-0.1,0.1l0.1,0l0,0l-0.1,0.1l0.1,0
		l-0.1-0.1c-0.1-0.2-0.2-0.6-0.2-0.8l0-0.1l0,0l-0.2-0.1l0.1,0.2l0.1-0.1l-0.2-0.1l0.1,0.2l-0.2-0.2v0.3l0.2-0.1l-0.2-0.2v0.3v-0.2
		l0,0.2l0,0v-0.2l0,0.2l0,0c0.1,0,0.4,0.1,0.8,0.3c0.6,0.2,1.3,0.5,2.1,0.8c0.7,0.3,1.4,0.6,1.7,0.7c0.7,0.4,1.5,0.7,2.3,0.7
		c0.4,0,0.7-0.1,1.1-0.3c0.4-0.2,0.7-0.5,1.2-0.8c0.5-0.3,1.1-0.6,1.9-0.8c1-0.2,1.6-0.6,1.9-1.1c0.3-0.4,0.3-0.8,0.3-0.8l0-0.2
		l-0.1-0.1c0,0-0.7-0.9-1.6-1.7c-0.4-0.4-0.9-0.9-1.3-1.3c-0.2-0.2-0.4-0.4-0.6-0.5c-0.2-0.1-0.4-0.2-0.6-0.3
		c-0.9-0.3-1.7-0.7-3.1-1.5c-0.7-0.4-1.6-0.8-2.3-1.2c-0.3-0.2-0.6-0.4-0.8-0.6c-0.1-0.1-0.2-0.2-0.2-0.2l0-0.1l0,0l0,0l0,0l0,0l0,0
		l0,0l0,0c-0.1-0.3-0.1-0.8-0.2-1.5c-0.1-0.6-0.2-1.4-0.4-2.1c-0.1-0.2-0.2-0.4-0.3-0.6c-0.3-0.3-0.6-0.5-1-0.7
		c-0.6-0.3-1.2-0.4-1.8-0.6c-0.6-0.1-1.1-0.2-1.5-0.2c0,0-0.2,0-0.5-0.1c-0.9-0.2-2.6-0.7-4.5-1.1c-1.9-0.4-3.8-0.8-5.3-0.8h-0.1
		l-0.1,0c0,0-0.8,0.3-1.7,0.6c-0.4,0.2-0.9,0.3-1.2,0.5c-0.2,0.1-0.3,0.2-0.5,0.2l-0.2,0.1c-0.1,0.1-0.1,0.1-0.2,0.2
		c-0.1,0.1-0.1,0.3-0.1,0.4c0,0.2,0.1,0.3,0.1,0.5c0.1,0.2,0.2,0.3,0.2,0.4c0.1,0.1,0.1,0.2,0.1,0.3l0,0.2c-0.2,0.4-0.3,0.6-0.5,0.8
		c-0.2,0.2-0.3,0.4-0.5,0.7l0.2,0.1l-0.2-0.1l0,0l0.2,0.1l-0.2-0.1l0.1,0l-0.1,0l0,0l0.1,0l-0.1,0c0,0-0.1,0.1-0.2,0.2
		c-0.4,0.3-1.3,0.9-2.1,1.5c-0.4,0.3-0.8,0.6-1.2,0.9c-0.4,0.3-0.7,0.5-0.9,0.8c-0.3,0.3-0.5,0.8-0.7,1.3c-0.3,0.7-0.5,1.6-0.7,2.4
		c-0.1,0.4-0.2,0.7-0.3,0.9c0,0.1-0.1,0.2-0.1,0.3l0,0.1l0,0l0.1,0.1l0-0.1l0,0l0.1,0.1l0-0.1l0,0l0,0l0,0.1v-0.1l0,0l0,0.1v-0.1
		v0.1l0-0.1l0,0v0.1l0-0.1l0,0l0,0l0,0l0,0l0,0l-0.1-0.1c-0.1-0.1-0.3-0.3-0.5-0.5c-0.1-0.1-0.2-0.2-0.3-0.3
		c-0.1-0.1-0.3-0.2-0.5-0.2c-0.1,0-0.2,0-0.3,0.1c-0.2,0.1-0.3,0.2-0.5,0.3c-0.6,0.4-1.3,1.2-1.9,1.8c-0.3,0.3-0.6,0.6-0.8,0.8
		c-0.1,0.1-0.2,0.2-0.3,0.2l0,0l0,0l0.1,0.2l-0.1-0.2l0,0l0.1,0.2l-0.1-0.2l0.2,0.4v-0.4c-0.1,0-0.1,0-0.2,0l0.2,0.4v-0.4v0.3
		l0.1-0.3c0,0,0,0-0.1,0v0.3l0.1-0.3l0,0c-0.1,0-0.2-0.2-0.4-0.4c-0.3-0.3-0.7-0.6-1-1c-0.2-0.2-0.3-0.3-0.4-0.4l-0.1-0.1l0,0l0,0
		l0,0l-0.1,0.1l0.1-0.1l0,0l-0.1,0.1l0.1-0.1l-0.2-0.2c-0.2-0.2-0.5-0.4-0.7-0.6c-0.2-0.2-0.4-0.3-0.4-0.3l-0.3,0.4l0.3,0.4
		c0,0,0.2-0.2,0.6-0.4c0.5-0.4,1.4-0.9,2.1-1.4c0.4-0.2,0.7-0.5,1-0.7c0.1-0.1,0.3-0.2,0.4-0.2c0.1-0.1,0.2-0.1,0.2-0.1
		c0.2-0.1,0.3-0.2,0.4-0.3c0.2-0.2,0.4-0.4,0.6-0.7c0.5-0.8,0.9-1.8,1.1-2.1c0.1-0.2,0.3-0.6,0.5-0.9c0.1-0.2,0.3-0.4,0.4-0.5
		c0.1-0.1,0.3-0.3,0.4-0.3c0.3-0.1,0.5-0.3,0.7-0.6c0.3-0.3,0.6-0.8,0.8-1.1c0.2-0.4,0.4-0.7,0.5-0.8c0.1-0.2,0.1-0.3,0.2-0.5
		c0-0.2,0-0.3,0-0.5c0-0.3,0-0.6-0.1-0.8c0-0.1-0.1-0.2-0.1-0.4l-0.2-0.2c-0.1-0.1-0.2-0.1-0.4-0.1c-0.1,0-0.2,0-0.2,0
		c-0.2,0.1-0.5,0.2-0.8,0.3c-0.3,0.1-0.7,0.3-1,0.4l-0.1,0c-0.1,0-0.3-0.1-0.6-0.2c-0.4-0.2-0.8-0.4-1.2-0.7
		c-0.2-0.1-0.3-0.2-0.5-0.3l-0.2-0.1c-0.1,0-0.2-0.1-0.3-0.1V292.9v0.5v-0.3l-0.1,0.2l0.1,0v-0.3l-0.1,0.2l0.1,0.1
		c0.2,0.1,0.7,0.4,1.2,0.7c0.2,0.1,0.5,0.3,0.8,0.4c0.3,0.1,0.5,0.2,0.8,0.2c0.1,0,0.3,0,0.4-0.1c0.4-0.2,0.8-0.4,1.2-0.5
		c0.2-0.1,0.3-0.1,0.4-0.2l0.1,0l0,0l0-0.1v0.1l0,0l0-0.1v0.1v-0.4l-0.2,0.3c0,0,0.1,0.1,0.2,0.1v-0.4l-0.2,0.3l0.2-0.2l-0.2,0.1
		l0.1,0.1l0.2-0.2l-0.2,0.1l0,0l0,0l0,0l0,0l0,0c0,0,0,0.1,0.1,0.2c0,0.1,0,0.3,0,0.4c0,0.1,0,0.2,0,0.3l0,0.1l0,0
		c-0.1,0.1-0.2,0.3-0.3,0.5c-0.2,0.3-0.4,0.7-0.6,1c-0.1,0.2-0.2,0.3-0.4,0.4c-0.1,0.1-0.2,0.2-0.3,0.2c-0.3,0.1-0.5,0.3-0.7,0.5
		c-0.6,0.6-1,1.4-1.2,1.8c-0.1,0.2-0.3,0.8-0.7,1.4c-0.2,0.3-0.3,0.6-0.5,0.8c-0.1,0.1-0.2,0.2-0.2,0.2l-0.1,0.1
		c-0.1,0.1-0.3,0.1-0.5,0.2c-0.6,0.4-1.6,1-2.5,1.6c-0.9,0.6-1.6,1.1-1.6,1.1l-0.5,0.4l0.5,0.4c0,0,0.1,0,0.2,0.1
		c0.1,0.1,0.4,0.3,0.6,0.4c0.1,0.1,0.2,0.2,0.3,0.2l0.1,0.1l0,0l0,0l0.1,0l-0.1,0l0,0l0.1,0l-0.1,0l0.2,0.2c0.3,0.3,0.7,0.8,1.2,1.2
		c0.2,0.2,0.5,0.4,0.6,0.6c0.1,0.1,0.2,0.1,0.3,0.2l0.1,0.1c0.1,0,0.1,0.1,0.3,0.1c0.1,0,0.2,0,0.2-0.1l0.2-0.1
		c0.2-0.2,0.5-0.4,0.8-0.7c0.5-0.5,1.1-1.1,1.6-1.6c0.3-0.2,0.5-0.4,0.7-0.6l0.2-0.1l0,0l-0.1-0.2v0.2l0.1,0l-0.1-0.2v0.2v-0.1
		l0,0.1l0,0v-0.1l0,0.1l0,0l0,0h0l0,0l0,0l0.2,0.1c0.1,0.1,0.3,0.3,0.5,0.5c0.1,0.1,0.2,0.2,0.3,0.3c0.1,0.1,0.3,0.1,0.5,0.1
		c0.2,0,0.4-0.1,0.5-0.2c0.2-0.1,0.3-0.3,0.4-0.5c0.2-0.3,0.3-0.7,0.4-1.1c0.2-0.6,0.4-1.4,0.6-2.1c0.1-0.3,0.2-0.6,0.3-0.9
		c0.1-0.2,0.2-0.4,0.3-0.5c0.2-0.2,0.5-0.5,1-0.8c0.6-0.5,1.5-1.1,2.1-1.5c0.3-0.2,0.6-0.5,0.9-0.7c0.1-0.1,0.2-0.2,0.3-0.3
		c0.1-0.1,0.2-0.1,0.2-0.3c0.1-0.2,0.3-0.3,0.4-0.6c0.2-0.3,0.4-0.6,0.6-1.1c0.1-0.2,0.1-0.4,0.1-0.5c0-0.4-0.2-0.7-0.3-0.9
		c-0.1-0.1-0.1-0.2-0.1-0.2l0,0l0,0l0,0l0,0l0,0l0,0l-0.1,0h0.1l0,0l-0.1,0h0.1h-0.2l0.2,0.1l0-0.1h-0.2l0.2,0.1l-0.2-0.1l0.2,0.2
		l0,0l-0.2-0.1l0.2,0.2l0,0l0,0l0,0l0,0l0,0c0,0,0.1-0.1,0.2-0.1c0.4-0.2,1.2-0.5,1.9-0.7c0.3-0.1,0.7-0.2,0.9-0.3
		c0.2-0.1,0.4-0.1,0.4-0.1l-0.1-0.5v0.5c0.7,0,1.7,0.1,2.7,0.3c1.5,0.3,3.2,0.7,4.6,1.1c0.7,0.2,1.3,0.3,1.8,0.5
		c0.2,0.1,0.5,0.1,0.6,0.1c0.2,0,0.3,0.1,0.5,0.1c0.4,0,1.3,0.1,2.1,0.4c0.4,0.1,0.8,0.3,1.1,0.5c0.1,0.1,0.2,0.2,0.3,0.3l0.1,0.2
		c0.2,0.6,0.3,1.3,0.3,1.9c0.1,0.6,0.1,1.2,0.2,1.6c0,0.2,0.1,0.3,0.2,0.5c0.2,0.2,0.4,0.4,0.7,0.6c0.8,0.6,2,1.1,2.9,1.6
		c1.4,0.8,2.3,1.2,3.3,1.5c0,0,0.2,0.1,0.3,0.2c0.3,0.2,0.6,0.5,1,0.9c0.6,0.5,1.2,1.2,1.6,1.7c0.2,0.2,0.4,0.5,0.6,0.6
		c0.1,0.2,0.2,0.2,0.2,0.2l0.4-0.3l-0.5,0l0.3,0l-0.3,0l0,0l0.3,0l-0.3,0l0,0c0,0,0,0.2-0.2,0.4c-0.2,0.2-0.5,0.5-1.3,0.6
		c-1,0.2-1.7,0.6-2.2,0.9c-0.5,0.3-0.9,0.7-1.2,0.8c-0.1,0.1-0.3,0.1-0.5,0.1c-0.5,0-1.3-0.2-1.8-0.5c-0.3-0.1-0.6-0.3-1.1-0.5
		c-0.7-0.3-1.4-0.6-2.1-0.9c-0.3-0.1-0.7-0.2-0.9-0.3c-0.3-0.1-0.5-0.2-0.6-0.2l0,0l0,0l-0.2,0c-0.1,0-0.3,0-0.4,0.1
		c-0.2,0.1-0.2,0.3-0.3,0.4c0,0.1,0,0.2,0,0.4c0,0.3,0.1,0.6,0.1,0.8c0,0.1,0.1,0.2,0.1,0.3c0,0.1,0.1,0.2,0.1,0.3l0.2-0.1l-0.2,0.1
		l0,0l0.2-0.1l-0.2,0.1l0,0c0,0,0.1,0.2,0.1,0.4c0.1,0.3,0.2,0.6,0.3,1c0.1,0.2,0.1,0.3,0.3,0.5c0.1,0.1,0.2,0.3,0.5,0.4
		c0,0,0.1,0.1,0.3,0.2c0.2,0.2,0.4,0.4,0.6,0.7c0.1,0.1,0.2,0.2,0.2,0.3l0,0.1l0,0l0.3-0.1h-0.3l0,0.1l0.3-0.1h-0.3
		c0,0.1,0,0.2,0,0.2l0,0l0.1,0h-0.1l0,0l0.1,0h-0.1h0.2l-0.1-0.1l0,0.1h0.2l-0.1-0.1l0,0c0,0-0.1,0.1-0.4,0.3
		c-0.2,0.1-0.5,0.3-1,0.5c-1,0.5-1.7,1-2.2,1.5c-0.3,0.2-0.5,0.4-0.6,0.6c-0.2,0.2-0.3,0.3-0.4,0.3l0,0l0.1,0.2V317l-0.1,0l0.1,0.2
		V317l0,0c0,0-0.1,0-0.3-0.1c-0.4-0.2-1.1-0.6-1.7-1c-0.3-0.2-0.5-0.4-0.7-0.5c-0.1-0.1-0.2-0.1-0.2-0.2l-0.1-0.1l0,0l-0.1,0
		c0,0-0.2-0.1-0.4-0.2c-0.8-0.4-2.5-1.2-3.9-2c-0.8-0.4-1.5-0.8-2.1-1.1c-0.6-0.3-1.2-0.4-1.7-0.4c-0.1,0-0.3,0-0.4,0.1
		c-0.1,0.1-0.3,0.1-0.4,0.3c-0.2,0.2-0.3,0.4-0.4,0.6c-0.1,0.2-0.2,0.4-0.2,0.7c0,0.2,0.1,0.5,0.2,0.7c0.1,0.2,0.3,0.4,0.5,0.6
		c0.3,0.3,0.7,0.6,1,0.9c0.2,0.1,0.3,0.3,0.4,0.4c0.1,0.1,0.2,0.2,0.2,0.2l0.2,0.2c0.3,0.2,0.6,0.3,1,0.5c0.4,0.2,0.8,0.4,1.2,0.6
		c0.4,0.3,0.8,0.5,1,0.7c0.3,0.2,0.4,0.3,0.4,0.4c0,0,0,0.1,0,0.3c0,0.1,0,0.3-0.1,0.5c0,0.1-0.1,0.3-0.1,0.3l0.3,0.2l-0.3-0.3
		l-0.1,0.1l0.3,0.2l-0.3-0.3l0.1,0.2l-0.1-0.2l0,0l0.1,0.2l-0.1-0.2l-0.1,0.1c-0.3,0.1-0.8,0.4-1.5,0.7c-1,0.5-2.4,1-3.5,1.5
		c-0.6,0.2-1,0.4-1.4,0.6c-0.2,0.1-0.3,0.1-0.5,0.2c-0.1,0.1-0.2,0.1-0.2,0.1c-0.2,0.1-1.2,0.6-2.2,1.1c-0.5,0.2-1,0.5-1.4,0.7
		c-0.2,0.1-0.4,0.2-0.5,0.2l-0.1,0l0,0l0,0l0.1,0.3v-0.3l-0.1,0l0.1,0.3v-0.3v0.3l0.1-0.3l-0.1,0v0.3l0.1-0.3l0,0l0,0h0l0,0l0,0
		c0,0-0.3-0.1-0.5-0.2c-0.4-0.2-0.8-0.5-1.1-0.7c-0.2-0.1-0.3-0.3-0.4-0.4c-0.1-0.1-0.1-0.2-0.1-0.3c0-0.3-0.1-0.8-0.1-1.4
		c-0.1-0.9-0.3-2.1-0.5-3.1c-0.1-0.5-0.2-1-0.3-1.4c-0.1-0.4-0.2-0.7-0.2-1c-0.2-0.5-0.3-1-0.5-1.5c-0.1-0.2-0.2-0.4-0.3-0.6
		c-0.1-0.2-0.3-0.4-0.5-0.5c-0.1,0-0.2-0.1-0.3-0.1c-0.4-0.1-0.9-0.1-1.3-0.2c-0.2,0-0.5-0.1-0.7-0.1c-0.2,0-0.3-0.1-0.4-0.1
		c-0.2-0.1-0.7-0.4-1.1-0.8c-0.4-0.3-0.9-0.7-1.2-1c-0.3-0.3-0.8-0.4-1.1-0.4c-0.3,0-0.5,0.1-0.8,0.2c-0.2,0.1-0.4,0.2-0.5,0.4
		c-0.1,0.1-0.1,0.2-0.2,0.3c-0.4,0.4-1,1.3-1.6,2c-0.3,0.4-0.6,0.7-0.8,1c-0.1,0.1-0.2,0.3-0.2,0.4l-0.1,0.2l0,0.1c0,0,0,0.1,0,0.2
		l0,0.2c0,0.2,0.1,0.5,0.2,0.8c0.1,0.1,0.1,0.3,0.2,0.4c0.1,0.1,0.1,0.2,0.2,0.3l0.1,0.1c0.1,0.1,0.2,0.2,0.4,0.4
		c0.7,0.5,2.1,1.6,3.3,2.5c0.6,0.5,1.2,0.9,1.6,1.2c0.2,0.2,0.4,0.3,0.5,0.4l0.1,0.1l0,0l0.2-0.2l-0.3,0.1l0,0.1l0.2-0.2l-0.3,0.1
		c0.1,0.2,0.4,0.8,0.7,1.6c0.3,0.8,0.6,1.7,0.7,2.5c0,0.1,0,0.2,0,0.3c0,0.6-0.2,1-0.4,1.2c-0.2,0.2-0.5,0.4-0.6,0.4
		c-0.1,0-0.1,0-0.2,0.1c-0.7,0.3-3.2,1.4-5.6,2.3c-1.2,0.5-2.3,1-3.1,1.3c-0.4,0.2-0.8,0.3-1,0.4c-0.1,0.1-0.2,0.1-0.3,0.1l-0.1,0
		l0,0l0,0l0.1,0.2l-0.1-0.2l0,0l0.1,0.2l-0.1-0.2l0,0l0,0l0.1,0.3l0-0.3l-0.1,0l0.1,0.3l0-0.3c0,0-0.1,0-0.2,0
		c-0.5,0-1.5-0.1-2.4-0.2c-0.4-0.1-0.9-0.1-1.2-0.2c-0.2,0-0.3-0.1-0.3-0.1l0,0l0,0l-0.1,0.1l0.1-0.1l0,0l-0.1,0.1l0.1-0.1l-0.2,0.2
		l0.3-0.1l-0.1-0.1l-0.2,0.2l0.3-0.1c0,0-0.1-0.1-0.1-0.3c-0.5-0.9-2.4-4.3-4.1-7.4c-0.9-1.6-1.7-3.1-2.3-4.2
		c-0.3-0.6-0.6-1-0.7-1.4c-0.1-0.2-0.2-0.3-0.2-0.4l0-0.1l0,0l-0.2,0.1l0.2-0.1l0,0l-0.2,0.1l0.2-0.1l-0.4,0.1h0.4
		c0-0.1,0-0.1,0-0.1l-0.4,0.1h0.4l0-0.2c0-0.1-0.1-0.2-0.2-0.3c-0.2-0.4-0.7-0.9-1.1-1.5c-0.5-0.5-0.9-1.1-1.2-1.3
		c-0.3-0.3-0.6-0.6-0.9-0.8c-0.1-0.1-0.2-0.2-0.3-0.3l-0.1-0.1l0,0l-0.1,0h0.1l0,0l-0.1,0h0.1h-0.2l0.2,0.1l0-0.1h-0.2l0.2,0.1
		c0-0.1,0.1-0.2,0.1-0.3c0.1-0.4,0.3-1,0.6-1.5c0.3-0.6,0.6-1.1,1-1.2c0.2-0.1,0.5-0.3,0.8-0.5c1.1-0.7,2.9-2.2,4.7-3.6
		c0.9-0.7,1.7-1.4,2.5-1.9c0.7-0.5,1.3-1,1.7-1.2c0.9-0.6,1.8-1.5,2.5-2.3c0.4-0.4,0.7-0.8,1-1.2c0.3-0.3,0.5-0.6,0.6-0.7
		c0.3-0.3,0.5-0.5,0.7-0.7c0.2-0.1,0.5-0.2,0.9-0.3c0.1,0,0.3,0,0.4,0c0.4,0,0.8,0.1,1.2,0.1c0.3,0,0.6,0,0.9-0.1
		c0.1-0.1,0.3-0.1,0.5-0.2c0.7-0.4,1.9-1.1,3-1.8c0.5-0.3,1.1-0.7,1.5-0.9c0.2-0.1,0.4-0.3,0.5-0.4c0.1-0.1,0.2-0.2,0.3-0.3
		c0.3-0.3,0.5-0.6,0.7-0.8c0.1-0.1,0.2-0.2,0.2-0.2l0,0l0,0l0-0.1l0,0.1l0,0l0-0.1l0,0.1l-0.1-0.2v0.2l0.1,0l-0.1-0.2v0.2V292.9z
		 M219.6,313.5l-0.1-0.5l-0.1,0l0,0l0,0c-0.1,0-0.2,0.1-0.3,0.2c-0.2,0.1-0.3,0.3-0.4,0.4c-0.1,0.1-0.2,0.3-0.2,0.5
		c0,0.2,0.1,0.3,0.1,0.3l0.4-0.3h-0.5c0,0.1,0,0.2,0,0.2c0,0.1,0.1,0.2,0.1,0.2c0.2,0.3,0.4,0.6,0.7,0.8c0.2,0.3,0.4,0.4,0.4,0.4
		l0.2,0.2l0.3-0.1c0.1,0,0.2-0.1,0.3-0.2c0.1-0.2,0.2-0.4,0.2-0.7l0-0.2c0-0.3-0.1-0.5-0.1-0.7c0-0.1-0.1-0.2-0.1-0.3
		c-0.1-0.1-0.1-0.2-0.3-0.3l-0.2,0.2l0.2-0.2l-0.1-0.1l-0.2,0.2l0.2-0.2l-0.1,0.1l0.1-0.1l0,0l-0.1,0.1l0.1-0.1l0,0
		c0,0,0-0.2-0.1-0.3l-0.2-0.2c-0.1-0.1-0.2-0.2-0.4-0.2l-0.3,0l-0.2,0.3L219.6,313.5l-0.1-0.5L219.6,313.5l0.4,0.2l0,0L219.6,313.5
		l-0.1,0.5l0-0.3l-0.2,0.3l0.1,0.1l0-0.3l-0.2,0.3l0.1-0.2l-0.2,0.2l0.1,0.1l0.1-0.2l-0.2,0.2l0.1-0.1l-0.1,0.1l0,0l0.1-0.1
		l-0.1,0.1l0,0l0,0l0,0l0,0l0,0c0,0,0,0.1,0.1,0.2l0.1,0.2c0,0.1,0.1,0.2,0.2,0.2l0.1-0.1l-0.1,0.1l0,0l0.1-0.1l-0.1,0.1l0,0l0,0
		l0,0l0,0l0,0l0,0c0,0,0.1,0.3,0.1,0.6l0,0.1l0,0.1l0.1,0l-0.1-0.1l-0.1,0.1l0.1,0l-0.1-0.1l0.2,0.2l-0.1-0.3l-0.1,0.1l0.2,0.2
		l-0.1-0.3l0.1,0.5l0.3-0.3l0,0c-0.1-0.1-0.4-0.4-0.6-0.7c-0.1-0.1-0.2-0.3-0.3-0.4l-0.1-0.1l0,0l-0.3,0.1h0.3c0-0.1,0-0.1,0-0.1
		l-0.3,0.1h0.3V314l-0.1-0.1l-0.3,0.2h0.4l-0.1-0.2l-0.3,0.2h0.4h-0.2l0.2,0.1l0-0.1h-0.2l0.2,0.1l-0.1,0l0.1,0l0,0l-0.1,0l0.1,0
		l0,0l0,0l0,0l0,0l0,0c0,0,0.1-0.1,0.2-0.2l0,0l0,0l-0.1-0.1l0,0.1l0,0l-0.1-0.1l0,0.1l-0.2-0.5l0.1,0.5l0.1,0l0.2,0l0.1-0.2
		L219.6,313.5z M235.5,314.9v-0.5c-0.2,0-0.6,0-1,0c-0.2,0-0.4,0-0.6,0.1l-0.2,0c-0.1,0-0.1,0-0.3,0.1c-0.1,0.1-0.2,0.1-0.3,0.2
		c-0.1,0.1-0.4,0.2-0.8,0.4c-0.5,0.2-0.9,0.5-1.3,0.7c-0.4,0.2-0.7,0.5-0.9,0.6c-0.2,0.1-0.4,0.2-0.6,0.3c-0.1,0.1-0.2,0.2-0.4,0.3
		c-0.1,0.1-0.2,0.3-0.2,0.5l0,0.2c0.1,0.2,0.1,0.5,0.4,0.9c0.2,0.3,0.6,0.7,1.2,0.9c0.5,0.2,1.4,0.7,2.3,1c0.4,0.2,0.8,0.4,1.2,0.5
		c0.2,0.1,0.3,0.1,0.5,0.2l0.2,0.1l0.2,0c0.2,0,0.3,0,0.4,0c0.1,0,0.2,0,0.3,0c0.1,0,0.3,0,0.6,0.1c0.3,0.1,0.7,0.1,1.1,0.2
		c0.4,0,0.9,0.1,1.3,0.1c0.3,0,0.5,0,0.7,0c0.4,0,0.7-0.1,0.9-0.2c0.1,0,0.2-0.1,0.3-0.1c0.1,0,0.3,0,0.5,0c0.5,0,1.1,0,1.5-0.1
		c0.2,0,0.4-0.1,0.6-0.2c0.1-0.1,0.2-0.1,0.3-0.2c0.1-0.1,0.1-0.2,0.2-0.4c0-0.2,0-0.3,0-0.5c0-0.2,0-0.5-0.1-0.8
		c-0.1-0.3-0.2-0.5-0.4-0.7c-0.1-0.1-0.2-0.1-0.3-0.2c-0.4-0.2-1-0.6-1.5-1c-0.3-0.2-0.5-0.4-0.7-0.5c-0.1-0.1-0.2-0.2-0.2-0.2
		l-0.1-0.1l0,0l0,0c-0.1-0.3-0.3-0.7-0.4-0.9c-0.2-0.3-0.3-0.5-0.5-0.7c-0.3-0.3-0.6-0.5-0.7-0.5l-0.1-0.1h-0.1c-0.1,0-0.8,0-1.4,0
		c-0.6,0-1.2,0-1.4,0V314.9v0.5c0.1,0,0.8,0,1.4,0c0.6,0,1.2,0,1.4,0v-0.5l-0.2,0.4l0,0c0,0,0.3,0.2,0.5,0.4
		c0.1,0.1,0.2,0.3,0.3,0.5c0.1,0.2,0.3,0.5,0.4,0.8c0.1,0.2,0.2,0.3,0.3,0.4c0.2,0.2,0.4,0.4,0.7,0.6c0.4,0.3,0.9,0.6,1.3,0.8
		c0.2,0.1,0.4,0.2,0.5,0.3c0.1,0.1,0.3,0.2,0.3,0.2c0,0,0.1,0.1,0.1,0.2c0,0.1,0.1,0.3,0.1,0.5c0,0.1,0,0.3,0,0.4l0.2,0l-0.1-0.1
		l0,0.1l0.2,0l-0.1-0.1l0.1,0l0-0.1l0,0l0.1,0l0-0.1c0,0-0.1,0-0.2,0.1c-0.1,0-0.4,0.1-0.7,0.1c-0.3,0-0.6,0-0.9,0
		c-0.3,0-0.5,0-0.7,0c-0.3,0-0.5,0.1-0.6,0.2c-0.1,0-0.2,0.1-0.5,0.1c-0.2,0-0.4,0-0.6,0c-0.4,0-0.8,0-1.2-0.1c-0.4,0-0.8-0.1-1-0.1
		c-0.4-0.1-0.6-0.1-0.8-0.1c-0.1,0-0.3,0-0.4,0c-0.1,0-0.2,0-0.3,0v0.1l0-0.1l0,0v0.1l0-0.1c0,0-0.1,0-0.2-0.1
		c-0.4-0.1-1.1-0.5-1.8-0.8c-0.7-0.3-1.4-0.7-1.9-0.9c-0.4-0.2-0.6-0.4-0.8-0.6c-0.1-0.2-0.2-0.4-0.2-0.6l-0.1,0h0.1l0,0l-0.1,0h0.1
		h-0.1l0.1,0.1l0-0.1h-0.1l0.1,0.1l-0.1,0l0.1,0l0,0l-0.1,0l0.1,0l0,0l0,0l0,0l0,0l0,0c0,0,0.1-0.1,0.2-0.2c0.1-0.1,0.3-0.2,0.5-0.3
		c0.2-0.1,0.6-0.4,1-0.6c0.4-0.2,0.8-0.5,1.2-0.6c0.5-0.2,0.7-0.3,0.9-0.4c0.2-0.1,0.3-0.2,0.4-0.2l-0.1-0.2l0.1,0.2l0.1,0l-0.1-0.2
		l0.1,0.2l0,0c0.1,0,0.2,0,0.3-0.1c0.4-0.1,1-0.1,1.2-0.1V314.9z M216.7,317.7l0.1-0.5l-0.1,0c-0.1,0-0.3,0-0.4,0.1
		c-0.2,0.1-0.3,0.3-0.4,0.4c-0.1,0.2-0.1,0.4-0.1,0.6c0,0.2,0,0.4,0,0.5c0,0.2,0.1,0.4,0.1,0.5c0.1,0.2,0.3,0.4,0.5,0.6
		c0.2,0.2,0.4,0.4,0.6,0.7c0.1,0.1,0.2,0.2,0.2,0.3c0.1,0.1,0.1,0.3,0.1,0.5c0,0.1,0,0.2,0.1,0.3c0,0.1,0.1,0.3,0.2,0.4
		c0.1,0.1,0.2,0.1,0.3,0.2c0.3,0.2,0.8,0.4,1.3,0.7c0.5,0.2,1,0.4,1.4,0.6c0.7,0.3,1.2,0.6,2,1c0.3,0.2,0.8,0.5,1.1,0.9
		c0.4,0.4,0.7,0.8,1,1.1c0.3,0.4,0.8,0.7,1.3,1.1c0.5,0.4,1.1,0.8,1.6,1.1c0.5,0.4,0.9,0.6,1.1,0.7c0.1,0.1,0.2,0.1,0.3,0.1
		c0.1,0,0.2,0.1,0.3,0.2c0.2,0.1,0.2,0.2,0.4,0.5c0.1,0.2,0.2,0.5,0.5,0.9c0.3,0.4,0.8,0.6,1.2,0.8c0.4,0.2,0.9,0.3,1.2,0.4
		c0.3,0.2,0.6,0.4,0.9,0.6c0.3,0.3,0.6,0.6,0.9,1.1c0.4,0.5,0.7,0.9,1,1.2c0.1,0.2,0.3,0.3,0.4,0.4c0.1,0.1,0.2,0.2,0.4,0.3l0.2,0
		c0.2,0,0.3-0.1,0.4-0.1c0.2-0.1,0.3-0.2,0.4-0.3c0.1-0.2,0.3-0.4,0.4-0.5l0.1-0.2l0.1-0.1l-0.2-0.1l0.2,0.2l0,0l-0.2-0.1l0.2,0.2
		c0,0,0.1-0.1,0.2-0.2c0.4-0.2,1.2-0.6,1.6-0.8c0.1,0,0.2,0,0.3,0c0.2,0,0.5,0,0.7,0.1c0.3,0.1,0.5,0.1,0.8,0.1l0.2,0l0,0l0,0
		c0.4,0,0.7-0.2,1-0.4c0.3-0.2,0.5-0.5,0.6-0.9l0-0.1c0-0.1,0-0.3-0.1-0.4c-0.1-0.2-0.2-0.3-0.3-0.4c-0.2-0.2-0.4-0.3-0.5-0.5
		l-0.2-0.1l0,0l0,0l-0.2,0.2l0.3-0.1l0-0.1l-0.2,0.2l0.3-0.1l-0.2,0l0.2,0l0,0l-0.2,0l0.2,0l0,0l0,0c0-0.1,0-0.4,0.1-0.6
		c0-0.2,0.1-0.5,0.1-0.6l-0.1,0l0.1,0l0,0l-0.1,0l0.1,0l0.1-0.1c0.1-0.1,0.2-0.2,0.3-0.3l0.1-0.1l0,0l0,0l-0.1-0.2v0.2l0.1,0
		l-0.1-0.2v0.2v-0.3l-0.1,0.3l0.1,0v-0.3l-0.1,0.3l0,0l0.1-0.3l-0.2,0.2l0.1,0l0.1-0.3l-0.2,0.2l0.1-0.1l-0.1,0.1l0,0l0.1-0.1
		l-0.1,0.1l0,0l0,0l0,0l0,0l0,0c0,0,0.1,0.1,0.1,0.2c0,0.1,0.1,0.3,0.1,0.5c0,0.2,0,0.3-0.1,0.5c-0.1,0.2-0.1,0.3-0.1,0.5
		c0,0.2,0.1,0.4,0.2,0.5c0.1,0.1,0.2,0.2,0.3,0.2c0.2,0.1,0.3,0.1,0.4,0.1c0.1,0,0.3,0,0.4,0l0.1,0c0.2,0,0.5-0.1,0.6-0.2
		c0.1-0.1,0.2-0.2,0.2-0.3c0.1-0.1,0.1-0.3,0.2-0.4c0.1-0.1,0.1-0.2,0.2-0.3c0.1-0.1,0.3-0.3,0.4-0.5c0.2-0.3,0.5-0.7,0.8-1.1
		c0.1-0.2,0.2-0.3,0.3-0.5l0.1-0.2l0.1-0.1l-0.1,0l0.1,0l0,0l-0.1,0l0.1,0l0.1-0.1c0.2-0.3,0.6-0.8,0.9-1.3c0.4-0.5,0.8-1,1-1.3
		c0.1-0.2,0.2-0.4,0.3-0.6c0.1-0.2,0.1-0.4,0.1-0.5c0-0.1,0-0.3-0.1-0.4c-0.1-0.1-0.1-0.2-0.2-0.3c-0.2-0.2-0.4-0.3-0.7-0.5
		c-0.1-0.1-0.3-0.1-0.4-0.2c-0.1,0-0.2-0.1-0.4-0.1l-0.2,0c-0.3,0-0.8,0.1-1.4,0.2c-0.6,0.1-1.2,0.1-1.6,0.1c-0.2,0-0.4,0-0.4-0.1
		l-0.1,0l-0.1-0.1c0-0.1-0.1-0.2-0.3-0.4c-0.1-0.1-0.2-0.1-0.4-0.2c-0.2-0.1-0.5-0.3-0.9-0.4c-0.3-0.1-0.7-0.2-1.1-0.2
		c-0.2,0-0.5,0-0.6,0.1c-0.3,0.1-0.4,0.2-0.6,0.3c-0.2,0.1-0.3,0.1-0.7,0.2c-0.1,0-0.3,0-0.4,0c-0.4,0-0.6,0-0.9-0.1
		c-0.3-0.1-0.5-0.1-0.9-0.2c-0.3-0.1-0.4-0.2-0.5-0.3c-0.1-0.1-0.1-0.1-0.2-0.2c-0.1-0.1-0.3-0.2-0.5-0.2c-0.2,0-0.3,0-0.4,0.1
		c-0.4,0.1-0.7,0.3-1.3,0.4l-0.1,0c-0.3,0-0.7-0.1-1.1-0.3c-0.4-0.2-0.9-0.4-1.3-0.5c-0.4-0.1-1-0.4-1.6-0.7
		c-0.7-0.3-1.3-0.6-1.9-0.7c-0.2,0-0.4-0.1-0.6-0.3c-0.7-0.5-1.4-1.3-1.5-1.5c-0.1-0.1-0.1-0.2-0.3-0.2c-0.1-0.1-0.3-0.1-0.4-0.1
		c-0.1,0-0.2,0-0.4,0c-0.1,0-0.3,0-0.5,0.1c-0.5,0-0.8,0.1-1,0.1c-0.2,0-0.4,0.1-0.7,0.1l-0.2,0c-0.3,0-0.7,0-1.1-0.1
		c-0.4,0-0.8-0.1-1.2-0.1c-0.1,0-0.4,0-0.6-0.1c-0.4-0.1-0.9-0.2-1.4-0.3c-0.5-0.1-0.9-0.2-1.3-0.3L216.7,317.7l-0.1,0.5
		c0.4,0.1,1,0.2,1.7,0.4c0.3,0.1,0.6,0.2,0.9,0.2c0.3,0.1,0.6,0.1,0.8,0.1c0.3,0,0.7,0,1.1,0.1c0.4,0,0.8,0.1,1.2,0.1
		c0.1,0,0.2,0,0.3,0c0.4,0,0.6-0.1,0.8-0.1c0.2,0,0.4-0.1,0.9-0.1c0.3,0,0.4,0,0.6-0.1c0.1,0,0.2,0,0.2,0v0l0,0l0,0v0l0,0l0-0.2
		l-0.1,0.2l0.1,0l0-0.2l-0.1,0.2l0.1-0.1l-0.1,0.1l0,0l0.1-0.1l-0.1,0.1l0,0c0.1,0.2,0.5,0.6,0.9,1c0.2,0.2,0.5,0.5,0.8,0.6
		c0.3,0.2,0.6,0.4,0.9,0.4c0.4,0.1,1.1,0.4,1.7,0.7c0.6,0.3,1.3,0.6,1.7,0.7c0.3,0.1,0.7,0.3,1.2,0.5c0.5,0.2,0.9,0.4,1.5,0.4
		c0.1,0,0.2,0,0.3,0c0.5-0.1,0.8-0.2,1.1-0.3c0.1-0.1,0.3-0.1,0.3-0.1l0.1,0l0,0l0,0l0-0.1v0.1l0,0l0-0.1v0.1v-0.2l-0.1,0.2l0.1,0
		v-0.2l-0.1,0.2l0-0.1l-0.1,0.1l0,0l0-0.1l-0.1,0.1l0,0l0,0l0,0l0,0l0,0c0,0,0.1,0.1,0.3,0.3c0.2,0.1,0.4,0.3,0.8,0.4
		c0.3,0.1,0.6,0.2,0.9,0.2c0.3,0.1,0.7,0.1,1.1,0.1c0.1,0,0.3,0,0.4,0c0.6,0,1-0.2,1.3-0.4c0.1-0.1,0.2-0.1,0.3-0.2
		c0.1,0,0.2,0,0.3,0c0.3,0,0.7,0.1,1,0.2c0.2,0.1,0.3,0.1,0.5,0.2c0.1,0.1,0.2,0.1,0.2,0.1l0.1-0.1l-0.1,0.1l0,0l0.1-0.1l-0.1,0.1
		l0,0l0,0l0,0l0,0l0,0l0.1,0.1c0.1,0.1,0.2,0.3,0.5,0.5c0.2,0.1,0.6,0.2,1,0.2c0.6,0,1.3-0.1,2-0.2c0.3,0,0.6-0.1,0.8-0.1
		c0.1,0,0.2,0,0.3,0l0.1,0l0,0l0,0l0-0.1v0.1l0,0l0-0.1v0.1v-0.1l0,0.1l0,0v-0.1l0,0.1l0.1,0c0.1,0,0.3,0.1,0.4,0.2
		c0.1,0.1,0.2,0.2,0.3,0.2l0,0l0,0l0,0l0,0l0,0l0,0l0,0c0,0,0,0.1,0,0.2c0,0.1-0.1,0.2-0.2,0.4c-0.2,0.3-0.7,1-1.1,1.6
		c-0.2,0.3-0.4,0.6-0.6,0.8c-0.1,0.1-0.2,0.2-0.2,0.3l-0.1,0.2l-0.1,0.1c-0.1,0.2-0.4,0.7-0.8,1.1c-0.3,0.4-0.6,0.9-0.8,1
		c-0.3,0.3-0.3,0.6-0.4,0.8l0,0.1l0,0l0.1,0.1l0-0.1l0,0l0.1,0.1l0-0.1l0,0.1l0-0.1l0,0l0,0.1l0-0.1l0,0l0,0l0,0l0,0l0,0l0,0l0,0
		c-0.2,0-0.5,0-0.5-0.1l0,0l0,0l-0.1,0.1l0.1-0.1l-0.1-0.1l-0.1,0.1l0.1-0.1l-0.1,0.1l0.2,0l0,0l-0.1,0.1l0.2,0l-0.1,0l0.1,0l0,0
		l-0.1,0l0.1,0l0,0l0,0l0,0l0,0l0,0c0,0,0-0.1,0-0.2c0.1-0.3,0.1-0.5,0.1-0.8c0-0.3-0.1-0.6-0.2-0.9c-0.1-0.1-0.1-0.3-0.2-0.4
		c-0.1-0.1-0.2-0.2-0.4-0.3l0,0l-0.1,0c-0.2,0-0.4,0.1-0.5,0.2c-0.2,0.1-0.4,0.3-0.5,0.5l-0.2,0.3c-0.1,0.1-0.1,0.2-0.1,0.3
		c0,0.1-0.1,0.4-0.1,0.6c0,0.3-0.1,0.6-0.1,0.8c0,0.1,0,0.2,0,0.3c0,0.2,0.1,0.2,0.2,0.3c0.1,0.1,0.2,0.2,0.3,0.3
		c0.2,0.1,0.3,0.3,0.5,0.4l0.1,0.1l0,0l0,0l0.1,0h-0.1l0,0l0.1,0h-0.1h0.2l-0.2,0l0,0h0.2l-0.2,0c0,0.1-0.1,0.2-0.2,0.3
		c-0.1,0.1-0.3,0.2-0.5,0.2l0,0l0,0l-0.1,0c-0.1,0-0.4,0-0.7-0.1c-0.3-0.1-0.6-0.1-0.9-0.1c-0.2,0-0.4,0-0.6,0.1
		c-0.3,0.1-0.8,0.4-1.2,0.6c-0.2,0.1-0.4,0.2-0.6,0.3l-0.2,0.1c-0.1,0.1-0.1,0.1-0.2,0.2c-0.1,0.1-0.1,0.2-0.2,0.3
		c-0.1,0.2-0.2,0.4-0.3,0.5l-0.1,0.1l0,0l0.1,0.1l0-0.1l0,0l0.1,0.1l0-0.1l0.1,0.3v-0.3l-0.1,0l0.1,0.3v-0.3v0.3l0.1-0.3l-0.1,0v0.3
		l0.1-0.3l0,0c-0.1,0-0.3-0.2-0.5-0.5c-0.2-0.3-0.5-0.6-0.9-1.1c-0.4-0.5-0.7-0.9-1-1.2c-0.3-0.3-0.7-0.6-1.1-0.8
		c-0.4-0.2-0.9-0.3-1.3-0.5c-0.4-0.1-0.7-0.3-0.8-0.5c-0.2-0.2-0.2-0.4-0.4-0.7c-0.1-0.3-0.3-0.6-0.7-0.9c-0.2-0.1-0.3-0.2-0.4-0.2
		c-0.2-0.1-0.3-0.1-0.5-0.2c-0.2-0.1-0.4-0.2-0.8-0.5c-0.5-0.4-1.1-0.8-1.6-1.2c-0.5-0.4-1-0.7-1.1-0.9c-0.2-0.3-0.6-0.7-1-1.1
		c-0.4-0.4-0.9-0.8-1.4-1.1c-0.8-0.4-1.4-0.7-2.1-1c-0.4-0.2-1-0.4-1.5-0.7c-0.3-0.1-0.5-0.2-0.7-0.4c-0.1-0.1-0.2-0.1-0.2-0.1
		l-0.1-0.1l0,0l0,0l0,0l0,0l0,0l0,0l0,0l0-0.1c0-0.1,0-0.3-0.1-0.6c-0.1-0.3-0.2-0.5-0.5-0.8c-0.3-0.3-0.6-0.6-0.7-0.8
		c-0.1-0.1-0.1-0.2-0.2-0.2l0-0.1c0-0.2,0-0.4,0-0.6l0-0.1l0,0l-0.1,0l0,0l0,0l-0.1,0l0,0l-0.1-0.1l0.1,0.2l0.1,0l-0.1-0.1l0.1,0.2
		l-0.1-0.2v0.2l0.1,0l-0.1-0.2v0.2V318l0,0.1l0,0V318l0,0.1L216.7,317.7z M181.2,333.6l0-0.5c-0.4,0-0.7,0.1-1,0.2
		c-0.3,0.1-0.5,0.1-0.6,0.1l0,0l0,0c-0.1,0-0.3,0.1-0.4,0.3c-0.2,0.2-0.3,0.5-0.4,0.9c-0.1,0.2-0.1,0.4-0.1,0.7c0,0.5,0.1,1,0.2,1.6
		c0.1,0.5,0.2,1,0.2,1.3c0.1,0.5,0.3,0.9,0.5,1.3c0.2,0.4,0.5,0.7,0.6,0.9c0.2,0.3,0.5,0.4,0.8,0.4c0.3,0.1,0.5,0.1,0.8,0.1
		c0.2,0,0.3,0,0.4,0c0.1,0,0.3,0,0.5,0.1c0.4,0,0.9,0.1,1.3,0.2c0.4,0.1,0.9,0.2,1.1,0.3c0.3,0.2,0.9,0.4,1.4,0.7
		c0.6,0.3,1.1,0.7,1.5,1.1c0.4,0.4,0.6,0.8,0.7,1.1c0.1,0.3,0.1,0.7,0.1,1c0,0.1,0,0.3,0.1,0.4c0.1,0.1,0.1,0.2,0.2,0.2
		c0.1,0.1,0.2,0.1,0.4,0.1c0.1,0,0.2,0,0.3,0c0.3,0,0.6,0,1,0c0.3,0,0.5,0,0.8,0.1c0.5,0.1,1,0.3,1.4,0.4c0.2,0.1,0.4,0.1,0.6,0.1
		c0.2,0,0.3,0.1,0.5,0.1c0.1,0,0.2,0,0.4-0.1c0.1,0,0.2-0.1,0.3-0.2c0.1-0.1,0.1-0.2,0.1-0.3c0-0.1,0-0.2-0.1-0.3
		c0-0.1-0.1-0.2-0.2-0.3l-0.1-0.2l-0.1-0.2c-0.2-0.3-0.4-0.7-0.7-1.1c-0.3-0.4-0.6-0.8-0.8-1c-0.2-0.2-0.5-0.6-0.8-1
		c-0.3-0.4-0.6-0.8-0.7-1c-0.2-0.3-0.5-0.6-0.8-0.8c-0.3-0.2-0.6-0.4-0.7-0.5c-0.2-0.1-0.6-0.4-1.1-0.6c-0.2-0.1-0.4-0.3-0.6-0.4
		l-0.2-0.2l-0.1-0.1l0,0l0,0c-0.1-0.1-0.4-0.4-0.6-0.6c-0.2-0.2-0.5-0.4-0.5-0.5l-0.2-0.1c-0.2-0.2-0.7-0.6-1.2-1
		c-0.5-0.4-0.9-0.8-1.1-1c-0.2-0.2-0.4-0.5-0.7-0.8c-0.3-0.3-0.6-0.7-1.1-0.9c-0.3-0.2-0.6-0.2-0.9-0.2l-0.2,0l-0.2,0L181.2,333.6
		v-0.5l0,0h0l0,0L181.2,333.6v0.5l0,0h0l0,0l0.1,0l0.1,0c0.2,0,0.4,0.1,0.4,0.1c0.3,0.2,0.6,0.4,0.8,0.7c0.3,0.3,0.5,0.6,0.8,0.9
		c0.3,0.2,0.8,0.7,1.4,1.1c0.3,0.2,0.5,0.4,0.7,0.6c0.1,0.1,0.2,0.2,0.2,0.2l0.1,0.1c0.1,0.1,0.3,0.3,0.6,0.5
		c0.2,0.2,0.5,0.4,0.6,0.5l0.2,0.2c0.3,0.2,0.7,0.5,1.1,0.7c0.4,0.2,0.8,0.5,0.9,0.5c0.1,0.1,0.4,0.3,0.6,0.4
		c0.2,0.2,0.5,0.4,0.5,0.5c0.1,0.3,0.4,0.7,0.7,1.1c0.3,0.4,0.6,0.9,0.8,1.1c0.2,0.2,0.5,0.7,0.8,1.1c0.2,0.2,0.3,0.4,0.4,0.6
		l0.1,0.2l0.1,0.1c0.1,0.2,0.2,0.3,0.2,0.4l0.1,0.1l0,0l0.2-0.1h-0.2l0,0.1l0.2-0.1h-0.2h0.3l-0.3-0.2l-0.1,0.2h0.3l-0.3-0.2
		l0.3,0.2l-0.1-0.3l-0.1,0.1l0.3,0.2l-0.1-0.3l0.1,0.2l0-0.2l-0.1,0l0.1,0.2l0-0.2h0l0,0c0,0-0.2,0-0.3,0c-0.4-0.1-1.1-0.3-1.9-0.5
		c-0.4-0.1-0.7-0.1-1-0.1c-0.4,0-0.8,0-1,0l-0.1,0l0,0l0,0l0,0.1l0.1-0.1l0,0l0,0.1l0.1-0.1l-0.1,0.2l0.2-0.1l-0.1-0.1l-0.1,0.2
		l0.2-0.1l-0.2,0.1l0.2,0l0-0.1l-0.2,0.1l0.2,0l-0.1,0h0.1l0,0l-0.1,0h0.1c0-0.3,0-0.8-0.2-1.2c-0.1-0.5-0.4-1-0.9-1.5
		c-0.5-0.5-1.1-0.9-1.7-1.2c-0.6-0.3-1.2-0.6-1.5-0.8c-0.2-0.1-0.5-0.2-0.8-0.3c-0.4-0.1-1-0.2-1.4-0.3c-0.2,0-0.4-0.1-0.6-0.1
		c-0.2,0-0.3,0-0.5,0c-0.1,0-0.3,0-0.4,0c-0.2,0-0.4,0-0.6,0c-0.2,0-0.2-0.1-0.3-0.1c-0.1-0.2-0.4-0.4-0.5-0.7
		c-0.2-0.3-0.3-0.7-0.4-1c-0.1-0.3-0.1-0.8-0.2-1.3c-0.1-0.5-0.1-1-0.1-1.4c0-0.2,0-0.3,0-0.4c0.1-0.3,0.2-0.4,0.2-0.5l0,0l0,0l0,0
		l0,0l0,0l0,0l-0.1-0.2l0.1,0.3l0.1,0l-0.1-0.2l0.1,0.3l-0.1-0.5l0.1,0.5c0.2,0,0.4-0.1,0.7-0.2c0.3-0.1,0.6-0.1,0.8-0.1
		L181.2,333.6v0.5V333.6z M179.6,341.2l-0.1-0.5c-0.1,0-0.3,0.1-0.4,0.2c-0.1,0.1-0.2,0.2-0.3,0.3c-0.4,0.5-0.6,1-0.7,1.5
		c0,0.1-0.1,0.2-0.2,0.4c-0.1,0.2-0.2,0.4-0.2,0.7c0,0.2,0.1,0.5,0.3,0.7c0.2,0.2,0.5,0.3,0.8,0.4c0.6,0.1,1.3,0.4,2,0.7
		c0.3,0.1,0.6,0.2,0.8,0.3c0.1,0,0.2,0.1,0.3,0.1l0.1,0l0.2,0h2.3c0.2,0,0.3,0,0.5,0c0.1,0,0.2,0,0.3-0.1c0.2-0.1,0.3-0.2,0.4-0.3
		c0.1-0.1,0.1-0.2,0.2-0.3c0.1-0.1,0.1-0.2,0.2-0.3c0.1-0.1,0.1-0.1,0.1-0.2c0-0.1,0.2-0.1,0.4-0.3c0.3-0.2,0.5-0.4,0.7-0.5
		c0.1-0.1,0.2-0.2,0.2-0.3c0.1-0.1,0.1-0.3,0.1-0.4c0-0.1,0-0.2-0.1-0.3c-0.1-0.3-0.3-0.5-0.5-0.7c-0.2-0.2-0.5-0.3-0.8-0.5
		c-0.3-0.1-0.7-0.3-1.1-0.5c-0.5-0.2-1-0.3-1.5-0.3c-0.5,0-0.9,0.1-1.2,0.1c-0.2,0-0.3,0-0.4,0.1c-0.1,0-0.2,0-0.2,0l0,0
		c0,0-0.1,0-0.2-0.1c-0.2,0-0.3-0.1-0.5-0.2l-0.2-0.1l-0.1,0l-0.2,0.5l0.2-0.4c-0.4-0.2-0.7-0.3-1.1-0.4l-0.2,0l0,0l0,0L179.6,341.2
		l0.1,0.5l0,0c0.1,0,0.3,0.1,0.7,0.3l0,0l0,0c0,0,0.2,0.1,0.5,0.2c0.1,0,0.3,0.1,0.4,0.1l0.2,0l0.2,0c0.1,0,0.2,0,0.3,0
		c0.3-0.1,0.8-0.2,1.4-0.2c0.4,0,0.8,0.1,1.2,0.3c0.4,0.1,0.8,0.3,1,0.5c0.2,0.1,0.4,0.2,0.6,0.4c0.2,0.1,0.2,0.2,0.2,0.3l0,0l0.1,0
		h-0.1l0,0l0.1,0h-0.1h0.1l-0.1,0l0,0h0.1l-0.1,0l0,0l0,0l0,0l0,0l0,0c0,0,0,0.1-0.2,0.2c-0.1,0.1-0.3,0.2-0.5,0.3
		c-0.2,0.1-0.3,0.2-0.4,0.3c-0.2,0.1-0.3,0.3-0.4,0.4c-0.1,0.1-0.1,0.2-0.2,0.3c-0.1,0.1-0.1,0.2-0.1,0.2l0,0l0,0l0,0l0,0l0,0l0,0
		l0,0.1l0-0.1l0,0l0,0.1l0-0.1l-0.1,0c-0.1,0-0.2,0-0.3,0h-2.3v0.3l0-0.3l0,0v0.3l0-0.3l0,0l0,0l0,0l0,0l0,0c0,0-0.2-0.1-0.4-0.2
		c-0.7-0.3-1.8-0.7-2.8-1c-0.2-0.1-0.3-0.1-0.3-0.1l0,0l0,0l0,0l0,0l0,0l0,0l0,0c0,0,0-0.2,0.1-0.3c0.1-0.2,0.2-0.3,0.2-0.6
		c0.1-0.5,0.2-0.7,0.6-1.2l0.1-0.1l0,0l0,0l0,0L179.6,341.2z"/>
	<path id="XMLID_88_" class="st1" d="M222.1,153.3c-1.2,0-2.6,0.2-4.1,0.7l-1-0.4c0,0-5.6,1.1-7,2.7c-1.3,1.6-2.3,0.6-5.8,3.9
		c0,0-2.1,1-2.6,1.3c-0.5,0.3-2.6,1.8-2.8,2.1c-0.2,0.3-2.1,1.3-2.3,1.6c-0.2,0.3-5.1,3.4-5.1,3.4s-5.1,2.3-5.7,2.8
		s-1.5,1.8-1.3,2.5c0.1,0.6-2,1-2.3,0.9c-0.3-0.1-1.6-0.9-2-0.8c-0.4,0.1-1.5,0.4-1.8,0.6c-0.3,0.2-1.5,0.3-2.3-0.1
		c-0.9-0.3-3.7-0.6-4-0.8c-0.3-0.1-5.4-1.1-5.7-1.2c-0.3-0.1-0.9-0.3-1,0.8c-0.1,1.1-0.2,3.3-0.2,3.7c0,0.4,0.4,3,1.7,4.9
		c1.3,1.9,1.5,3.7,1.1,4.2s-2.5,4.4-3.6,5.1c-1.1,0.8-2.1,1.1-2.1,1.1s-0.3,1.2,0.1,2c0.3,0.8-1.1,1-1.8,1.4c-0.7,0.4-2.8,1.3-3,1.9
		c-0.3,0.6-0.8,1.5-0.6,1.7c0.3,0.3,0.4,0.6-0.2,0.9s-1.5-0.1-1.5,0.5s0.5,2.8,0.9,3.4c0.4,0.6,2,4.9,2.2,5.1c0.2,0.3,2.3,1.6,1.9,3
		c-0.4,1.5-1,1.3-1.2,1.6c-0.2,0.3-1.3-0.4-1.5-1.7c-0.2-1.3-0.9-2.8-1.3-3.3c-0.4-0.4-1.5-3.6-2-3.2c-0.5,0.4-0.9,0.8-1.3,1.6
		c-0.4,0.8-0.1,2-0.1,2.6s-0.2,1.8-0.4,2.1c-0.2,0.4-1,1.5-1.4,1.7c-0.4,0.3-2.1,0.2-2.5,0.1c-0.4-0.1-0.3-0.7,0.5-1.1
		c0.8-0.4,1.3-0.2,1.6-1.3c0.3-1.1,0.7-1.3-0.1-1.6s-1.1-0.2-0.6-0.9c0.5-0.7,0.4-1.8,0.7-2.1s0.9-1.9,1.1-2.1
		c0.2-0.3,0.6-2,0.4-2.7c-0.2-0.8-0.5-1.2-1.1-0.9s-1,1-1.1,1.3c-0.1,0.3,0.1-1-0.5-1.3c-0.6-0.3-1.3-0.4-1.7-0.3
		c-0.4,0.1-1.6,0-2.1,0.3c-0.4,0.3-1.1,0.9-1-0.6s-0.4-2.3,0.1-2.6c0.5-0.3,0.9-0.1,1.4,0.3c0.4,0.4,1.8,0.7,2.5,0.9
		c0.6,0.3,3,0.6,3.4,0.1c0.3-0.5,1.8-0.5,2.7-2s3.6-3.3,4.2-3.8c0.6-0.5,1.5-1.8,1.6-3.7c0.1-1.8,0.7-2.7,0.9-3.2
		c0.3-0.6,1.5-3.8,1.1-4.3c-0.3-0.5-1.5-1.2-1.8-2.5c-0.3-1.3-0.6-2.7,0-3.5c0.6-0.9,1.7-0.4,0.4-1.5c-1.3-1-3-1.9-3.3-2.5
		s-1.6-1.9-2.1-2.5c-0.5-0.6-0.5-0.8-1.8-1c-1.3-0.3-3.9-0.5-4.8-0.3c-0.9,0.3-4,0.3-5.8,1.1s-6.5,3.7-8.3,5.3
		c-1.8,1.6-6.3,6.1-8.4,6.5c-2.1,0.4-2.8,0.1-3.4,0.5c-0.6,0.4-0.4,2.5-1.2,2.3s-1.1-0.6-1.5-0.1c-0.4,0.5-0.2,1.3-0.8,1.1
		c-0.6-0.2-0.5-0.6-1.1-0.1c-0.6,0.5-1.3,1.4-2.1,1.5c-0.8,0.1-0.9-0.1-1.8,0.1s-1.8,1.7-2.1,2.1c-0.3,0.4-1.6,0.9-1.6,1.6
		c0,0.8-0.4,1.5,0.1,2c0.5,0.5,0.7,1.1-0.3,1.2c-0.9,0.1-0.9,0.8-0.9,1.4c0,0.6,0.3,2,0,2.9c-0.3,0.9-1.6,1-1.5,1.4s0.8,0.5,0.5,1.6
		c-0.3,1.1-1.1,1.5-1.2,1.1c0-0.1,0-0.2,0-0.2c0,0-0.2,0.2-0.7,0.4c-1.1,0.4-3.5,1.7-4.1,2.4c-0.6,0.7,0.6,3.4-0.8,5.4
		c-1.4,2.1,0,3.2-0.6,4.3c-0.6,1.1-0.2,2.6-0.9,3.4c-0.8,0.8-1,1.5-1.2,1.9c-0.2,0.4-0.5-0.4-1,0.6c-0.5,0.9-0.6,2.6-1.1,3.2
		c-0.4,0.6-1.8,4-2.1,4.4c-0.3,0.4-1.3,2.1-1.7,1.5s-0.6-0.9-0.6-0.3c-0.1,0.7,0.4,0.8-0.4,1.1c-0.8,0.3-1.1,0.1-0.9,0.6
		c0.1,0.6,0.2,0.6-0.1,1.3c-0.3,0.7-1.3,1.9-1.5,2.3c-0.2,0.4-1.5,2.1-1.8,3c-0.3,0.9-0.3,1.9-0.8,2.4c-0.5,0.5-5,5.6-5.2,5.9
		c-0.3,0.3-1.2,2-1.4,2.6c-0.1,0.3-0.3,0.8-0.3,1.3h298c1.8-3.8,5.2-11.3,5.2-11.3s10.5,3.9,10.9,4.2c0.4,0.3,1.1,0.3,1-0.1
		s-4.6-4.1-6.1-4.4c-1.5-0.3-7.6-3.9-8-3.7c-0.3,0.2-1.2,1.3-2.2,0.6c-1-0.7-1.8-1.5-1.6-1.9s-2-0.8-2-0.8s-0.8,0.8-1.8,0.5
		s-3.5-0.3-2.9-1.6c0.6-1.3,2.5-0.3,2.5-1.2c-0.1-0.9-0.8-0.1-1.5-1.5c-0.7-1.4-4.9-10.2-4.9-10.2s-2.7-3.5-8.8-3.9
		c-6.1-0.4-8.4-0.4-9.4,0c-1,0.4-3.2,1.5-3.4,2c-0.1,0.6-0.1,1.7-0.9,2.1c-0.8,0.4-3.7,2.8-3.9,3c-0.3,0.2-0.4,1.6-0.4,1.6l-1.4-0.9
		c0,0,0.2,0.3-2.4,0.3c-2.6,0-4.3,0-4.9-0.1c-0.6-0.1-4.6-0.4-9-3.6c-4.4-3.2-4.9-2.9-6.6-7.3c0,0-2.8-4.2-4.9-2.9
		c0,0-2.8,1.1-3.4,1.5c-0.5,0.3-3.8,1.5-2.4,0.3s3.4-2,4-2.5s0.8-0.9,0.2-1.1c-0.6-0.1-6.1-3-6.6-3.9s-3.5-5-3.8-7.5
		c-0.3-2.5-0.4-3.7-1.5-3.8c-1.1-0.1-3,0.1-4,0.4c-0.9,0.3-5.7,2.3-6.3,3.5s-1.2,2.8-1.8,3.8c-0.6,1-2.4,2.8-2.9,3.3
		c-0.5,0.5-1.1-0.6-1.1-0.6s3-3.4,2.7-3.9c-0.3-0.5-1.4-1-2.5-1.2c-1.1-0.2-4.3-1.6-5.4-1.8c-1.1-0.2-2.3,0.4-2.6,0.6
		s-2.1,0-2.7-0.7c-0.6-0.7-3.6-2.8-3.7-3.7s-1.6-2.4-3.4-2.3c-1.8,0.1-3.7,0.3-4.1,0.6c-0.4,0.4-2.3,4-2.6,4.3
		c-0.3,0.3-6.4,6.6-6.8,7.3c-0.4,0.7-3.7,3.9-5.2,4.2c-1.5,0.3-1.1,0.4-2.1,0.9c-1,0.4-0.1,3.1-2.1,3.3c-2,0.2-4.5,0.6-4.2-0.7
		c0.3-1.3,0.7-1,0.9-1.5c0.2-0.4-0.4,0-0.8-1c-0.4-1-0.5-1.1,0.6-1.8c1.1-0.7,2.5-0.7,1.3-1.3s-1.3-0.9-2.1-0.4
		c-0.9,0.5-2,0.4-2.7,0.8c-0.7,0.4-0.5,2-1.3,2s-1.8,1.3-0.8-0.9c0.9-2.1,0.3-2.1,1.5-3c1.2-0.9,3.1-2.2,3.6-2.2
		c0.5,0,2.1,0.3,3.1,0.8s2.3,1.3,3.2,1.1c0.9-0.1,4.7-1.3,4.7-2c0-0.7-1.4-2.4-0.5-2.7s1.5,0.1,2.4-0.6c0.9-0.7,1.5-1.8,1.3-2.7
		c-0.1-0.9-0.9,0,1.1-1c2.1-1,3-2.3,3.1-3.4c0.1-1.1,0-1.3,1.5-2.5c1.5-1.3,3.5-3,3.7-3.9c0.1-0.9-0.3-3-2.7-4.8
		c-2.4-1.8-1.6-3.3-2.7-2.9c-1.1,0.4-1.1,0.3-1.6,0.8c-0.5,0.6-2,0.8-1.3-0.2c0.8-0.9,1.7-1.1,2-2c0.3-0.9,0.8-1.5-0.1-2.3
		c-0.9-0.9-1.3-1.6-2.1-1.6s-1.8,0.8-2.8,0.8c-1-0.1-1.7,0.6-2.3-0.1s-1.3-1-0.2-1.1c1.1-0.1,2.1,0.3,2.8-0.3s1.8-0.8,1.3-1.6
		c-0.5-0.9-1.1-2.4-1.8-2.8c-0.6-0.4-2.6-1.8-3.7-2.4c-1.1-0.6-2.9-1.8-3.7-2.2c-0.8-0.4-2.9-1.5-3.5-1.6c-0.6-0.1-2.1,2.6-2.1,2.6
		l-0.9-0.3l1.6-3l-5.2-2.8l-2.3,4l-1.3-0.8c0,0,0.1-1.6,0-1.8c-0.1-0.2-1.3-0.1-1.3-0.1l-1.3,1.5l-0.6-0.4c0,0,1.6-1.8,2.7-2.5
		C227.4,154.9,225.6,153.3,222.1,153.3L222.1,153.3L222.1,153.3z M255.3,169.2c-0.2,0-0.2,0.2-0.2,0.6c0,0.5,1.8,2,2.1,2.8
		s0.1,1.9,0.4,2.9c0.3,1,1,1.6,2.3,3.2c1.3,1.6,1.9,0.3,2.2-0.3s0.1-1.3-0.3-1.8c-0.3-0.5-1.9-1.4-2.5-3c-0.6-1.6-3.6-4.3-3.9-4.4
		C255.4,169.2,255.3,169.2,255.3,169.2z M408.3,181.8L408.3,181.8c-0.4,0.2-0.6,0.5-0.6,0.5c-0.1,0.2-0.1,0.9,0.2,1
		c0.3,0.1,0.9,0.2,0.9-0.3C408.9,182.5,408.6,181.9,408.3,181.8L408.3,181.8L408.3,181.8z M271.6,183.5c0,0-0.4,1.3-1,1.1
		c-0.6-0.2-1.6-0.8-1.6-0.8s-4.9,2.5-4.7,3s0.3,1.4,2.3,2.3s2.5,2,3,2.7c0.5,0.7,1.8,1.8,3.1,2.1c1.3,0.3,3,0.5,3.8,0.7
		c0.8,0.2,3.2,1.3,4.4,1.5c1.1,0.1,3.1,0.8,3.8,0.6c0.7-0.1,1.3-0.3,1.6-1.3c0.4-0.9,1.1-1.5,0.4-2.1c-0.7-0.6-4.8-3-5.9-3.7
		c-1.1-0.6-5.8-4-6.7-4.7C273.2,184.5,271.6,183.5,271.6,183.5z M410.6,183.7c-0.6,0-1.3,0.2-1.5,0.5c-0.3,0.3-0.3,0.8-0.7,1
		c-0.4,0.3-1.3,0.4-1,0.8c0.3,0.4,0.8,0.9,0.5,1.1c-0.3,0.3-0.4,0.3-1.4-0.5c-1-0.8-1-1.5-2.7-1.6c-1.7-0.1-2.1,0.1-2.5-0.1
		c-0.3-0.1-0.2-1.2-1.3-0.9c-1.1,0.3-1.2,1.4-1.4,1.8c-0.2,0.4-0.8,1.2-1,1.5c-0.2,0.3-0.8,0.8-1.5,1.1c-0.6,0.3-1.6,1-2.3,0.9
		c-0.7-0.1-1.9-0.3-2.8-0.3s-2.1-0.3-2.1-0.3c-0.4,0.1-0.5,0.2-0.5,0.5s0.1,1.1,0.2,1.3s0.2,0.9,0.3,1.6c0.1,0.7,0.3,2.8,0.4,3.1
		c0.1,0.3,1.1,1.1,1.3,1.3c0.1,0.2,0.1,1.1,0.1,1.3s-0.6,1.5-0.8,1.7s-0.5,0.8-0.8,1.1s-1.1,1.7-1.1,2s0.4,1,0.7,1.1
		c0.3,0.1,1,0.6,1.3,0.9c0.3,0.4,0.8,0.7,1.4,0.8c0.6,0.1,0.9,0.3,1.7,0.3c0.8,0.1,1.1,0.3,1,0.6c-0.1,0.3,0,0.6,0.1,0.8
		c0.1,0.2,0.4,0.7,0.8,1s0.4,0.7,0.2,0.9s-0.7,0.6-0.7,0.9s0.3,0.7,0.8,0.8c0.6,0.1,1.4,0.1,1.4,0.1l1,0.1c0,0-0.8,0.6-1,0.6
		c-0.2,0.1,0.6,0.7,0.9,1s0.5,1,0.8,1.2c0.3,0.2,2.2,2.8,2.3,3c0.1,0.3,1.6,2.6,2.1,3.1s2.3,3,2.7,3.1c0.4,0.1,1.9,2.7,3.7-0.2
		s1.9-3.2,3.5-3.7c1.6-0.4,5.1-1.8,6.8-2.2c1.7-0.4,4.2-1.3,5.4-0.9c1.2,0.3,2.5,0.5,3.2-0.7c0.8-1.2,1.2-2.1,1.4-4
		c0.2-1.9,1.6-6.1,1.5-7c-0.1-0.9-0.1-2.4,0.1-2.5v0c-0.1,0-1.1,0.3-1.6,0.1c-0.6-0.1-0.4-0.5,0.4-0.6s0.9,0.4,1.5-0.4
		s1.4-1.2,1.2-1.8c-0.2-0.6-1.1-0.6-1.2-1.3c-0.1-0.6-0.6-1.6-0.9-2c-0.3-0.4-0.9-2.1-1.6-2.5c-0.7-0.4-3.3-2.5-4.7-3.5
		s-2.8-2.4-4-3c-1.1-0.6-0.6-0.8-2.9-1.3s-3.7-0.6-4.1-1C412.6,184.4,411.2,183.7,410.6,183.7L410.6,183.7z M120.3,186.2
		c0.4-0.1,0.5,0.3,1.2,0.4c0.9,0.1,3.7,0.7,4,1.1c0.3,0.4,0.6,1.8,0.5,2c-0.1,0.3-1.2,0.2-2.1,0c-0.9-0.2-2.2,0-3.9,0.5
		c-1.7,0.5-1.2,1.5-1.3,1.8c-0.1,0.3-0.5,0-1.4-0.2c-0.9-0.2-1.9-1.1-2-1.4c-0.2-0.3-1.8-1.2-1.8-1.2s1.5-1.1,1.8-1.3
		c0.3-0.3,0.9,0.3,1.6,0.2c0.7-0.2,1.9-1.1,2.8-1.7C120,186.3,120.2,186.2,120.3,186.2z M315.5,186.8c-0.8,0.1-1,0.1-1.2,0.7
		c-0.3,0.5-0.4,1-0.6,0.8c-0.3-0.1-0.3-0.5-0.8-0.4c-0.5,0.1-0.7,0.3-0.8,0.5c-0.1,0.2,0.2,0.3-0.3,0.7c-0.4,0.4-0.9,0.5-1.3,0.5
		c-0.4,0-1.5,0.5-1.5,0.5s-0.1,0.4,0.1,0.9c0.2,0.5,0.5,0.8,0.9,1.1c0.4,0.4,0.5,0.6,0.6,1.1c0.1,0.5,0.7,1,0.7,1l0.6,0.4
		c0,0-0.1,0.6,0.7,0.6c0.7,0,1.8,0.4,2.1,0.1c0.3-0.2,0.1-0.4,0.4-0.7c0.4-0.3,0.9,0,0.5,0.2c-0.4,0.2-0.3,0-0.4,0.5
		c-0.1,0.5,0.2,0.8,0.6,1c0.4,0.2,1.1,0.4,1.4,0.4c0.3-0.1,0.5,0.1,0.7,0.4c0.1,0.3,0.1,0.4,0.4,0.1c0.3-0.3,0.8-0.8,0.8-0.8
		s0.5,0.7,0.3,0.9c-0.2,0.2,0.2,0.2,0.5,0.4c0.3,0.2,0.6,0.6,0.6,0.6s0.9,0.5,1.2,0.5c0.3,0,0.8-0.2,1.1,0.4
		c0.3,0.6,0.5,0.7,0.8,0.6c0.4-0.1,0.4-0.4,0.8-0.3c0.4,0.1,0.6,0.6,1,0.8c0.4,0.2,0.7,0.4,0.9,0.9c0.2,0.4,0.4,0.8,0.7,1.2
		c0.2,0.4,0.2,1,0.4,1.3c0.2,0.3,0.9,0.8,1.4,0.6c0.5-0.2,1-0.1,1-0.5c0.1-0.4,0.5-0.1,0.7,0.3c0.2,0.4,1,1.4,1,1.4s0.5,1.1,0.7,1.3
		c0.2,0.2,1,0.4,0.9,0.9c-0.1,0.5-0.6,0.8-0.2,1c0.4,0.2,1,0.3,1.5,0.2c0.5-0.1,1.2-0.1,1.6-0.1c0.4,0,1.4-0.2,1.8-0.4
		c0.4-0.2,1-0.5,1.2-0.6c0.3-0.1,0.1-0.3,0.3-0.5c0.1-0.2,0.3-0.1,0.7,0.2s0.2,0.2,0.7,0c0.5-0.2,0.7-0.7,1.2-0.8
		c0.4-0.1,1-0.9,1.2-0.2c0.2,0.7,0,0.4,0.2,0.7c0.2,0.3,0.8,0.2,0.8,0.2s0.4-0.6,0.6-0.8c0.2-0.2,1.2-0.2,1.5-0.6
		c0.3-0.4,0.4-0.7,0.3-0.9c0-0.3,0.3-1.1,0.3-1.1s1.9-1,2.2-1.1c0.3-0.1,0.3-0.4,0.9-0.4c0.7,0,1.5,0.4,1.5,0.4h1
		c0.9,0,0.5,0.2,1.2,0.4c0.7,0.2,1.2-0.6,2.3-0.6c1,0,0.6,0.4,1.1,0.4c0.5-0.1,0.3-0.9,1.2-0.9c1,0,1.3,0.4,1.6,0.1
		c0.3-0.2,0.1-0.1-0.2-0.6c-0.4-0.5,0-2.5,0-3.1c0-0.7-0.1-0.6,0-1.4c0.1-0.8-0.5-1.7-0.9-2.1c-0.4-0.4-1.3-0.6-1.9-0.5
		c-0.5,0.1-0.6,0.4-1.2,0.4c-0.6,0-0.3-0.9-0.6-0.9c-0.3,0-1.1,0.5-1.1,0.5l-1.4,0.2c0,0-1.1-0.4-1.6-0.4c-0.4,0-1,0.3-1.7,0.3
		c-0.7,0-1.5-0.3-1.8-0.4c-0.4-0.1-0.6,0.2-1.6-0.1c-1-0.3-1.9-0.5-2.1-0.7c-0.3-0.2,0-0.8-0.6-0.2c-0.7,0.6-1.4,1-2.4,0.8
		c-1-0.1-2.2-0.7-2.3-0.4c-0.2,0.3-0.8,0.4-1.3,0.8c-0.4,0.3-1.9,0.4-2.4,0.3c-0.5-0.1-1.8,0.1-2.2-0.1c-0.4-0.1-0.4-0.7-0.9-0.9
		c-0.5-0.3-0.7,0.4-1.8,0.3c-1.1-0.1-2.3-0.7-2.3-0.9c0.1-0.2-0.5-0.7-1-1.2c-0.5-0.5-0.6-1.2-1.5-1.5c-0.9-0.3-2.1-0.3-2.1-0.3
		s-1.5-0.5-2.4-0.8c-1-0.3-2-0.9-2.7-1.3C317.1,187.5,315.5,186.8,315.5,186.8L315.5,186.8L315.5,186.8z M381.7,190.2
		c-0.1,0.1-0.1,1.8-0.3,2c-0.3,0.1-0.9,0.7-1.2,1c-0.3,0.3-0.4,0.6-0.6,1.1c-0.2,0.6-0.2,0.4-0.2,0.9s-0.3,0.1,0.1,0.9
		s0.8,1.3,1.1,1.6s-0.4,0.1,0.6,0.4c1.1,0.3,1.3,0.3,1.9,0.3s1.2-0.1,2,0.1c0.8,0.2,1.4,0.3,1.6-0.1c0.2-0.3,0.5,0.8,0.4-0.9
		c-0.1-1.7-0.1-1.3-0.2-2c-0.1-0.8,0-0.6-0.2-1.1c-0.2-0.5,0.1,0-0.6-0.9c-0.8-0.9-1.1-1-1.6-1.3c-0.6-0.3-0.4,0-1-0.3
		c-0.6-0.3-1.1-0.4-1.1-0.4S382.5,191,381.7,190.2L381.7,190.2L381.7,190.2L381.7,190.2z M301.2,195.1c-0.1,0-0.2,0-0.3,0
		c-0.3,0-0.7,0.2-0.4,0.9c0.4,1.1,1.6,4.7,2.4,5.2c0.8,0.5,2.2,1.8,2.8,1.8c0.6,0.1,0.2,0.9,0.9,1.4c0.8,0.5,1.8,0.9,2.5,0.9
		c0.7-0.1,0.9-0.1,1.2,0.3c0.3,0.4-0.6,0.8,0.6,1.1c1.2,0.4,1.8,0.4,2-0.4c0.2-0.9-0.8-1.3-1.5-2.1c-0.6-0.8-3.3-3.2-3.8-3.7
		c-0.5-0.5-2.8-2-3.5-2.6c-0.7-0.6-3-2.8-3-2.8L301.2,195.1z M115.3,200.4L115.3,200.4c0.7,0.2,0.8,1.9,1.4,2.4
		c0.6,0.5,1.9,1,1.8,1.3c-0.1,0.3-2.3,0.3-2.9,0.6c-0.6,0.3-1.2,1.3-2.2,1.9c-1,0.6,0,1.4,0,1.4s1.9-0.6,2.4-0.9
		c0.6-0.3,0.8,0.2,1.8,0.8c1,0.6-0.2,1-0.5,1.9c-0.3,0.8-1,0.1-1.3,0c-0.3-0.1-1.1,0.3-1.3,1.1c-0.2,0.8-1.3,0.6-0.8,1.8
		c0.5,1.2,1.1,0.8,1.6,0.8c0.5,0,0.9-0.9,1.9-0.7c1,0.3,3.1,1.4,2.7,1.7s-2.9,0.6-3.4,0.8c-0.5,0.2-3.5,0.3-4.3,0.1
		c-0.8-0.2-0.8-1.4-1.4-1.4c-0.6,0-2.8,1.7-2.8,1.7l1.4-3l-1-2.9l-0.4-3.2l-1.3-1.3l2.5-1.8l1.1-1.8c0,0,1.3,0.8,1.8,1.3
		c0.5,0.5,2.3,0.4,3,0.4C116.2,203.6,114.9,200.7,115.3,200.4z M323.7,202.5c0,0,0.3,0.6,0.4,1.1c0.2,0.5,0.1,0.3,0.4,0.9
		s0.4,0.5,0.6,0.8c0.2,0.3,0.8,0.9,1.3,1.3c0.5,0.3,0.4,0.2,1.5,1c1.1,0.8,0.9,1,1.4,1.6c0.5,0.6,1,0.2,1.2-0.1
		c0.2-0.3,0.3-1.1,0.3-1.3c0-0.3-0.1-0.4-0.3-0.8c-0.3-0.4-0.4-0.4-0.6-0.6c-0.3-0.2-1.8-0.5-2.4-0.9c-0.6-0.4-0.3-0.3-0.7-0.6
		c-0.4-0.3-0.9-0.9-1.1-1.2c-0.2-0.3-0.2-0.8-0.4-1C324.9,202.5,324.4,202.5,323.7,202.5L323.7,202.5z M106.2,219.6
		c0.6,0,0.9,0.9,1.8,0.7c0.9-0.3,1.9,0,1.5,0.5c-0.4,0.5-0.5,0.9,0,1.1c0.5,0.2,1.2-0.1,2-0.1c0.8,0,0.8,0.4,1.3,0.6
		s0.5,0.5,1.4,0.1c0.9-0.4,1.1-1.6,1.7-1.3c0.6,0.3,0.4,1,1,1.4c0.6,0.3-1.3,1-1.5,1.3c-0.2,0.3-0.3,0.4,0,1.4s1.2,1.3,0.4,1.5
		c-0.8,0.2-2,0.5-2.9,0.1s-1-1.6-2.8-1.6s-2.9,0.4-3.1,0.8c-0.2,0.4-0.3,0.6,0.3,1.3c0.6,0.7,3,3.2,3,3.2l0.7,2c0,0-1.5-1.6-1.9-2.1
		c-0.4-0.5-0.7-0.9-1.2-0.4s-0.3,0.5-0.9,0.8c-0.6,0.3-2.5-0.4-3,0.2c-0.5,0.6-0.8,0.9-1.2,0.6c-0.3-0.3-0.7-1-1.1-1
		c-0.4,0-1.4,0.3-1.9,0.6c-0.5,0.3-0.9,1.5-1.3,1.6c-0.3,0.1-0.8,0.5-1.2,0.3c-0.3-0.2-1.4-0.3-2.1-0.3c-0.7,0.1-0.9,0.6-0.9,1.1
		c0,0.5,0.5,1.2,1.2,1.5c0.4,0.2,0.9,0,1,0c0,0-0.1,0.1-0.3,0.3c-0.8,0.7-1.3,0.9-1.2,1.3c0.1,0.4,1.2,0.9,1.3,1.4
		c0.1,0.5,0.1,1.9-0.6,1.5c-0.7-0.3-1.2-1.3-1.2-1.3s-0.2-1.3-0.8-1.3c-0.6,0-0.8,0.3-1.3,0.6c-0.5,0.3-1.6,0.8-2,0.8
		c-0.4-0.1-0.8-0.2-0.7-0.8c0.2-0.6,0.5-1.9,0.8-2.7c0.3-0.8,1.8-3.9,1.8-3.9s0.8,0.1,1.4,0.1c0.6,0,1-0.6,1.8-0.8s0.7-0.9,0.7-0.9
		s0.1-2.9,0.5-3.3c0.4-0.4,1.4-3,1.6-3.5c0.2-0.4,0.6-1.4,0.8-1.7c0.3-0.3,0.8,0.4,1.2,0.7c0.3,0.3,1.8,0.7,1.8,0.7l1.3-0.9
		c0,0,1.2,0.9,1.6,0.8c0.4-0.1,0.3-0.5,0.3-0.5s1.1-0.8,0.9-1.3c-0.2-0.4-0.8-1.3-0.1-1.5L106.2,219.6L106.2,219.6z"/>
	<path id="XMLID_89_" class="st0" d="M189.9,169.3c-1.6,0.7-3.7,1.7-4.1,2.1c-0.6,0.6-1.5,1.8-1.3,2.5c0.1,0.6-2,1-2.3,0.9
		c-0.3-0.1-1.6-0.9-2-0.8c-0.4,0.1-1.5,0.4-1.8,0.6c-0.3,0.2-1.5,0.3-2.3-0.1s-3.7-0.6-4-0.8c-0.3-0.1-5.4-1.1-5.7-1.2
		c-0.3-0.1-0.9-0.3-1,0.8c-0.1,1.1-0.2,3.3-0.2,3.7c0,0.4,0.4,3,1.7,4.9c1.3,1.9,1.5,3.7,1.1,4.2c-0.4,0.5-2.5,4.4-3.6,5.1
		c-1.1,0.8-2.1,1.1-2.1,1.1s-0.3,1.2,0.1,2c0.3,0.8-1.1,1-1.8,1.4c-0.7,0.4-2.8,1.3-3,1.9c-0.3,0.6-0.8,1.5-0.6,1.7
		c0.3,0.3,0.4,0.6-0.2,0.9c-0.6,0.3-1.5-0.1-1.5,0.5s0.5,2.8,0.9,3.4c0.4,0.6,2,4.9,2.2,5.1c0.2,0.3,2.3,1.6,1.9,3
		c-0.4,1.5-1,1.3-1.2,1.6c-0.2,0.3-1.3-0.4-1.5-1.7c-0.2-1.3-0.9-2.8-1.3-3.3c-0.4-0.4-1.5-3.6-2-3.2c-0.5,0.4-0.9,0.8-1.3,1.6
		s-0.1,2-0.1,2.6s-0.2,1.8-0.4,2.1c-0.2,0.4-1,1.5-1.4,1.7c-0.4,0.3-2.1,0.2-2.5,0.1c-0.4-0.1-0.3-0.7,0.5-1.1
		c0.8-0.4,1.3-0.2,1.6-1.3c0.3-1.1,0.7-1.3-0.1-1.6c-0.8-0.3-1.1-0.2-0.6-0.9c0.5-0.7,0.4-1.8,0.7-2.1c0.3-0.3,0.9-1.9,1.1-2.1
		c0.2-0.3,0.6-2,0.4-2.7c-0.2-0.8-0.5-1.2-1.1-0.9s-1,1-1.1,1.3c-0.1,0.3,0.1-1-0.5-1.3c-0.6-0.3-1.3-0.4-1.7-0.3
		c-0.4,0.1-1.6,0-2.1,0.3c-0.4,0.3-1.1,0.9-1-0.6c0.1-1.5-0.4-2.3,0.1-2.6c0.5-0.3,0.9-0.1,1.4,0.3c0.4,0.4,1.8,0.7,2.5,0.9
		c0.6,0.3,3,0.6,3.4,0.1s1.8-0.5,2.7-2s3.6-3.3,4.2-3.8c0.6-0.5,1.5-1.8,1.6-3.7c0.1-1.8,0.7-2.7,0.9-3.2c0.3-0.6,1.5-3.8,1.1-4.3
		c-0.3-0.5-1.5-1.2-1.8-2.5c-0.3-1.3-0.6-2.7,0-3.5s1.7-0.4,0.4-1.5c-1.3-1-3-1.9-3.3-2.5c-0.3-0.6-1.6-1.9-2.1-2.5l-0.2-0.2
		c-11.2,6.2-18.8,18.1-18.8,31.8c0,20,16.3,36.3,36.3,36.3s36.3-16.2,36.3-36.3C209.5,187.5,201.5,175.3,189.9,169.3z"/>
	<path id="XMLID_90_" class="st1" d="M189.9,169.3L189.9,169.3c-1.6,0.7-3.7,1.7-4.1,2.1c-0.5,0.5-1.3,1.7-1.3,2.4l0,0.1l0,0
		c0,0.2-0.4,0.5-0.9,0.6c-0.5,0.2-1,0.2-1.3,0.2l-0.1,0c-0.1,0-0.5-0.2-0.9-0.4c-0.4-0.2-0.8-0.4-1-0.4l-0.1,0
		c-0.4,0.1-1.5,0.4-1.8,0.6c-0.1,0.1-0.5,0.2-0.9,0.2c-0.4,0-0.9-0.1-1.4-0.2c-0.4-0.2-1.4-0.3-2.2-0.5c-0.9-0.1-1.6-0.2-1.7-0.3
		c-0.1-0.1-1.5-0.3-2.9-0.6c-1.4-0.3-2.7-0.5-2.8-0.6c-0.1,0-0.2-0.1-0.4-0.1c-0.3,0-0.7,0.2-0.7,0.9c-0.1,1.1-0.2,3.3-0.2,3.7
		c0,0.4,0.4,3,1.7,4.9c0.9,1.3,1.3,2.6,1.3,3.4c0,0.3-0.1,0.6-0.2,0.7c-0.4,0.5-2.5,4.4-3.6,5.1c-0.5,0.4-1.1,0.7-1.4,0.9
		c-0.4,0.2-0.6,0.3-0.6,0.3l0,0l0,0c0,0-0.1,0.5-0.1,1c0,0.3,0,0.7,0.2,1l0,0.2c0,0.3-0.3,0.5-0.7,0.7c-0.4,0.2-0.9,0.3-1.2,0.5
		c-0.3,0.2-1,0.5-1.7,0.9c-0.6,0.4-1.2,0.7-1.4,1c-0.2,0.5-0.6,1.1-0.6,1.5l0.1,0.2c0.1,0.1,0.2,0.3,0.2,0.4c0,0.2-0.1,0.3-0.4,0.5
		c-0.3,0.2-0.7,0.1-1,0.1c-0.2,0-0.3,0-0.4,0.1c-0.1,0.1-0.2,0.2-0.2,0.3c0,0.6,0.5,2.8,0.9,3.4c0.2,0.3,0.7,1.5,1.2,2.7
		c0.5,1.2,0.9,2.3,1,2.4c0.1,0.1,0.6,0.5,1,0.9c0.5,0.5,0.9,1.1,0.9,1.7c0,0.1,0,0.3-0.1,0.4c-0.4,1.4-1,1.3-1.2,1.6l-0.1,0.1
		c-0.3,0-1.1-0.7-1.3-1.8c-0.2-1.3-0.9-2.8-1.3-3.3c-0.2-0.2-0.5-1-0.9-1.8c-0.2-0.4-0.4-0.7-0.6-1c-0.2-0.3-0.3-0.5-0.5-0.5l-0.1,0
		c-0.5,0.4-0.9,0.8-1.3,1.6c-0.2,0.4-0.2,0.8-0.2,1.2c0,0.6,0.1,1.1,0.1,1.4c0,0.6-0.2,1.8-0.4,2.1c-0.2,0.4-1,1.5-1.4,1.7
		c-0.2,0.1-0.8,0.2-1.4,0.2c-0.5,0-0.9,0-1.1-0.1c-0.1,0-0.2-0.1-0.2-0.2c0-0.2,0.2-0.6,0.7-0.8c0.4-0.2,0.7-0.3,1-0.4
		c0.3-0.1,0.5-0.3,0.6-0.9c0.1-0.6,0.4-0.9,0.4-1.2c0-0.2-0.1-0.3-0.4-0.4c-0.3-0.1-0.5-0.2-0.6-0.2c-0.2-0.1-0.2-0.1-0.2-0.2
		c0-0.1,0.1-0.2,0.2-0.4c0.3-0.4,0.4-0.8,0.4-1.2c0.1-0.4,0.1-0.8,0.2-0.9c0.3-0.3,1-1.9,1.1-2.2c0.2-0.2,0.5-1.4,0.5-2.3
		c0-0.2,0-0.3,0-0.5c-0.2-0.6-0.4-1-0.8-1c-0.1,0-0.2,0-0.3,0.1c-0.6,0.3-1,1-1.2,1.3l0,0l0,0l0,0v0l0,0l0,0v0v0l0,0l0,0v0l0,0l0,0
		c0,0,0-0.3,0-0.6c0-0.3-0.2-0.6-0.4-0.7c-0.5-0.2-1-0.4-1.4-0.4c-0.1,0-0.2,0-0.3,0c-0.4,0.1-1.6,0-2.1,0.3
		c-0.2,0.2-0.5,0.4-0.7,0.4c-0.1,0-0.1,0-0.2-0.2c-0.1-0.1-0.1-0.3-0.1-0.6l0-0.2c0-0.1,0-0.2,0-0.3c0-0.9-0.2-1.4-0.2-1.8
		c0-0.2,0.1-0.4,0.2-0.5c0.2-0.1,0.3-0.2,0.5-0.2c0.3,0,0.6,0.2,0.9,0.5c0.5,0.5,1.8,0.7,2.5,1c0.4,0.2,1.5,0.4,2.4,0.4
		c0.5,0,0.9-0.1,1-0.3c0.1-0.2,0.6-0.4,1.1-0.6c0.5-0.2,1.1-0.6,1.5-1.3c0.8-1.4,3.6-3.3,4.2-3.8c0.6-0.5,1.5-1.8,1.6-3.7
		c0.1-1.8,0.7-2.6,0.9-3.2c0.2-0.5,1.2-3.1,1.2-4c0-0.1,0-0.2-0.1-0.3c-0.3-0.5-1.5-1.2-1.8-2.5c-0.2-0.8-0.4-1.5-0.4-2.2
		c0-0.5,0.1-0.9,0.4-1.3c0.2-0.3,0.5-0.4,0.7-0.5c0.2-0.1,0.4-0.2,0.4-0.3c0-0.1-0.2-0.3-0.6-0.7c-1.3-1-3-1.9-3.3-2.5
		c-0.3-0.6-1.6-1.9-2.1-2.5l-0.2-0.2l0,0l0,0c-11.2,6.2-18.8,18.1-18.8,31.8c0,20.1,16.3,36.3,36.3,36.3s36.3-16.2,36.3-36.3
		C209.5,187.5,201.5,175.3,189.9,169.3L189.9,169.3L189.9,169.3L189.9,169.3L189.9,169.3c11.6,6.1,19.6,18.2,19.6,32.2
		c0,10-4.1,19.1-10.6,25.6c-6.6,6.6-15.6,10.6-25.6,10.6c-10,0-19.1-4.1-25.7-10.6c-6.6-6.6-10.6-15.6-10.6-25.6
		c0-13.7,7.6-25.6,18.8-31.8l0,0l0,0l0.2,0.2c0.5,0.6,1.8,1.9,2.1,2.5c0.3,0.6,2,1.5,3.3,2.5c0.5,0.3,0.6,0.5,0.6,0.6
		c0,0.1-0.1,0.1-0.3,0.2c-0.2,0.1-0.5,0.3-0.7,0.5c-0.3,0.4-0.4,0.8-0.4,1.3c0,0.7,0.2,1.5,0.4,2.2c0.3,1.3,1.5,2,1.8,2.5
		c0,0.1,0,0.1,0,0.3c0,0.9-1,3.5-1.2,4c-0.3,0.6-0.9,1.4-1,3.2c-0.1,1.8-0.9,3.1-1.6,3.6c-0.6,0.5-3.4,2.3-4.2,3.8
		c-0.4,0.7-1,1.1-1.5,1.3c-0.5,0.2-1,0.4-1.1,0.6c-0.1,0.2-0.5,0.2-0.9,0.2c-0.8,0-2-0.2-2.4-0.4c-0.6-0.3-2-0.5-2.5-0.9
		c-0.3-0.3-0.6-0.5-0.9-0.5c-0.2,0-0.3,0.1-0.5,0.2c-0.2,0.1-0.2,0.3-0.2,0.5c0,0.4,0.2,1,0.2,1.8c0,0.1,0,0.2,0,0.3l0,0.2
		c0,0.3,0,0.5,0.1,0.6c0.1,0.1,0.1,0.2,0.2,0.2c0.2,0,0.5-0.2,0.7-0.4c0.4-0.3,1.6-0.2,2.1-0.3c0.1,0,0.2,0,0.3,0
		c0.4,0,0.9,0.2,1.4,0.4c0.3,0.1,0.4,0.4,0.4,0.7c0,0.1,0,0.3,0,0.4l0,0.1l0,0l0,0l0,0c0.1-0.3,0.6-1,1.1-1.3c0.1,0,0.2-0.1,0.3-0.1
		c0.4,0,0.6,0.4,0.7,1c0,0.1,0,0.3,0,0.5c0,0.8-0.3,2-0.5,2.2c-0.2,0.3-0.9,1.8-1.1,2.1c-0.1,0.2-0.2,0.5-0.3,0.9
		c-0.1,0.4-0.2,0.9-0.4,1.2c-0.2,0.2-0.2,0.4-0.2,0.5c0,0.1,0.1,0.2,0.3,0.2c0.2,0.1,0.4,0.1,0.6,0.2c0.3,0.1,0.4,0.2,0.4,0.4
		c0,0.2-0.2,0.5-0.4,1.2c-0.1,0.5-0.3,0.7-0.6,0.9c-0.3,0.1-0.6,0.2-1,0.4c-0.5,0.3-0.7,0.6-0.7,0.9c0,0.2,0.1,0.3,0.2,0.3
		c0.2,0,0.6,0.1,1.1,0.1c0.6,0,1.2,0,1.4-0.2c0.4-0.3,1.2-1.3,1.4-1.7c0.2-0.4,0.4-1.6,0.4-2.2c0-0.3-0.1-0.9-0.1-1.4
		c0-0.4,0-0.8,0.2-1.2c0.4-0.8,0.8-1.2,1.3-1.6l0.1,0c0.1,0,0.3,0.2,0.5,0.4c0.5,0.8,1.2,2.5,1.5,2.8c0.4,0.4,1.1,2,1.3,3.3
		c0.2,1.1,1,1.8,1.3,1.8l0.2-0.1c0.2-0.3,0.8-0.2,1.2-1.6c0-0.1,0.1-0.3,0.1-0.4c0-0.7-0.5-1.3-0.9-1.7c-0.5-0.5-1-0.8-1-0.9
		c-0.1-0.1-0.6-1.3-1-2.4c-0.5-1.2-1-2.4-1.2-2.7c-0.4-0.6-0.9-2.7-0.9-3.3c0-0.2,0.1-0.2,0.1-0.3c0.3-0.2,0.9,0,1.4-0.2
		c0.3-0.2,0.4-0.3,0.4-0.5c0-0.2-0.1-0.3-0.2-0.5l-0.1-0.2c0-0.4,0.4-1,0.6-1.5c0.1-0.3,0.7-0.7,1.3-1c0.6-0.4,1.3-0.7,1.7-0.9
		c0.3-0.2,0.8-0.3,1.2-0.5c0.4-0.2,0.7-0.4,0.7-0.7l0-0.2c-0.1-0.3-0.2-0.6-0.2-1c0-0.5,0.1-1,0.1-1l0,0l0,0c0,0,1-0.4,2.1-1.1
		c1.1-0.8,3.2-4.6,3.6-5.1c0.1-0.2,0.2-0.4,0.2-0.7c0-0.8-0.4-2.1-1.3-3.5c-1.3-1.9-1.7-4.5-1.7-4.9c0-0.4,0.1-2.7,0.2-3.7
		c0-0.7,0.4-0.8,0.6-0.9c0.1,0,0.3,0,0.3,0.1c0.1,0,1.5,0.3,2.8,0.6c1.4,0.3,2.7,0.6,2.8,0.6c0.1,0.1,0.9,0.2,1.8,0.3
		c0.9,0.1,1.8,0.3,2.2,0.4c0.4,0.2,1,0.2,1.4,0.2c0.4,0,0.8-0.1,1-0.2c0.3-0.2,1.4-0.5,1.8-0.6l0,0c0.2,0,0.6,0.2,1,0.4
		c0.4,0.2,0.8,0.4,0.9,0.4l0.1,0c0.2,0,0.8-0.1,1.3-0.2c0.5-0.2,0.9-0.4,0.9-0.7l0-0.1l0-0.1c0-0.6,0.8-1.8,1.3-2.3
		C186.2,171.1,188.3,170,189.9,169.3L189.9,169.3L189.9,169.3L189.9,169.3z"/>
	<path id="XMLID_94_" class="st1" d="M192.7,167.8c-0.5,0.3-1.2,0.8-1.2,0.8s-5.1,2.3-5.7,2.8s-1.5,1.8-1.3,2.5c0.1,0.6-2,1-2.3,0.9
		c-0.3-0.1-1.6-0.9-2-0.8c-0.4,0.1-1.5,0.4-1.8,0.6c-0.3,0.2-1.5,0.3-2.3-0.1s-3.7-0.6-4-0.8c-0.2-0.1-2.7-0.6-4.2-0.9
		c-0.9,0.6-1.7,1.2-2.5,1.8c-0.1,1-0.1,2.1-0.1,2.4c0,0.4,0.4,3,1.7,4.9c1.3,1.9,1.5,3.7,1.1,4.2c-0.4,0.5-2.5,4.4-3.6,5.1
		c-1.1,0.8-2.1,1.1-2.1,1.1s-0.3,1.2,0.1,2c0.3,0.8-1.1,1-1.8,1.4c-0.7,0.4-2.8,1.3-3,1.9s-0.8,1.5-0.6,1.7c0.3,0.3,0.4,0.6-0.2,0.9
		c-0.6,0.3-1.5-0.1-1.5,0.5s0.5,2.8,0.9,3.4c0.4,0.6,2,4.9,2.2,5.1c0.2,0.3,2.3,1.6,1.9,3c-0.4,1.5-1,1.3-1.2,1.6
		c-0.2,0.3-1.3-0.4-1.5-1.7c-0.2-1.3-0.9-2.8-1.3-3.3c-0.4-0.4-1.5-3.6-2-3.2c-0.5,0.4-0.9,0.8-1.3,1.6c-0.1,0.1-0.1,0.3-0.1,0.5
		c3,15.9,16.9,28,33.7,28c18.9,0,34.3-15.3,34.3-34.3C220.9,184.7,208.7,170.7,192.7,167.8L192.7,167.8z M160.7,179.1
		c-4.7,5.4-7.8,12.4-8.3,20c0.6-0.3,1.7-0.6,2.3-1.7c0.8-1.5,3.6-3.3,4.2-3.8c0.6-0.5,1.5-1.8,1.6-3.7c0.1-1.8,0.7-2.7,0.9-3.2
		c0.3-0.6,1.5-3.8,1.1-4.3c-0.3-0.5-1.5-1.2-1.8-2.5C160.8,179.6,160.8,179.4,160.7,179.1z M152.3,202c0,0.4,0,0.7,0,1
		C152.4,202.7,152.4,202.3,152.3,202L152.3,202L152.3,202z"/>
	<polygon id="XMLID_95_" class="st0" points="178,202.4 173,198.6 167.9,202.4 169.9,196.3 164.8,192.5 171,192.6 173,186.5 
		174.9,192.6 181.1,192.5 176.1,196.3 178,202.4 	"/>
	<polygon id="XMLID_96_" class="st0" points="217.6,202.4 212.5,198.6 207.5,202.4 209.4,196.3 204.4,192.5 210.6,192.6 
		212.5,186.5 214.4,192.6 220.7,192.5 215.6,196.3 217.6,202.4 	"/>
	<polygon id="XMLID_97_" class="st0" points="197.8,188 192.8,184.3 187.7,188 189.7,182 184.6,178.2 190.8,178.2 192.8,172.1 
		194.7,178.2 200.9,178.2 195.9,181.9 197.8,188 	"/>
	<polygon id="XMLID_98_" class="st0" points="185.4,225.4 180.4,221.6 175.3,225.4 177.3,219.3 172.2,215.5 178.4,215.5 
		180.4,209.4 182.3,215.5 188.5,215.5 183.5,219.3 185.4,225.4 	"/>
	<polygon id="XMLID_99_" class="st0" points="210.2,225.4 205.1,221.6 200.1,225.4 202,219.3 197,215.5 203.2,215.5 205.1,209.4 
		207,215.5 213.3,215.5 208.2,219.3 210.2,225.4 	"/>
</g>
</svg>
